<svg preserveAspectRatio="none" width="1920" height="87" viewBox="0 0 1920 87" fill="none" xmlns="http://www.w3.org/2000/svg">
<g clip-path="url(#clip0_3039_896)">
<path d="M-1 42.6099C101.03 8.40495 254.905 -4.1628 386.712 10.6902C431.848 15.7765 474.113 23.7546 517.192 30.8659C534.713 33.7577 553.216 36.566 572.373 36.1361C614.78 35.1833 641.865 19.6474 676.492 10.5565C741.477 -6.50776 831.187 -0.0244923 906.183 9.98338C981.18 19.9936 1059.47 33.0629 1137.46 26.902C1199.37 22.0091 1254.88 5.2266 1317.98 7.09636C1380.48 8.9494 1429.32 28.6667 1490.71 33.3924C1544.81 37.557 1599.56 29.5645 1654.04 26.1235C1745.54 20.3423 1843.75 27.9574 1921 46.9607V87H-1V42.6099Z" fill="white"/>
</g>
<defs>
<clipPath id="clip0_3039_896">
<rect width="1920" height="87" fill="white"/>
</clipPath>
</defs>
</svg>
