<svg width="490" height="360" viewBox="0 0 490 360" fill="none" xmlns="http://www.w3.org/2000/svg">
<g clip-path="url(#clip0_3028_927)">
<g clip-path="url(#clip1_3028_927)">
<path d="M331.44 178.048C335.369 178.36 340.333 178.921 343.435 181.654C343.891 182.059 344.293 182.53 344.544 183.093C344.597 183.214 344.641 183.339 344.695 183.459C344.728 183.535 344.752 183.615 344.775 183.695C344.814 183.81 344.707 183.406 344.789 183.725C344.859 184.018 344.92 184.317 344.958 184.619C344.978 184.772 344.986 184.925 344.996 185.083C345.012 185.335 344.996 185.083 345.001 185.039C345.001 185.147 345.006 185.254 344.999 185.359C344.852 188.634 343.02 191.646 340.953 194.413C337.763 198.692 333.821 202.39 329.777 205.844C324.275 210.543 318.401 214.799 312.382 218.807C297.006 229.059 280.587 237.765 263.833 245.512C246.265 253.632 228.172 260.746 209.609 266.251C202.078 268.481 194.451 270.428 186.731 271.899C180.646 273.058 174.474 273.955 168.272 274.124C164.13 274.239 159.638 274.063 155.858 272.656C155.498 272.521 155.138 272.374 154.789 272.21C154.312 271.989 154.297 271.983 153.977 271.789C153.687 271.61 153.4 271.425 153.129 271.22C152.984 271.11 152.844 270.998 152.702 270.881C152.645 270.834 152.595 270.79 152.543 270.74C152.276 270.504 152.743 270.947 152.499 270.694C152.285 270.47 152.076 270.244 151.89 270.001C151.8 269.879 151.714 269.754 151.629 269.63C151.578 269.556 151.465 269.342 151.636 269.645C151.585 269.559 151.535 269.473 151.49 269.385C151.362 269.11 151.244 268.844 151.131 268.563C151.003 268.235 151.137 268.645 151.087 268.438C151.043 268.259 151 268.08 150.966 267.896C150.754 266.732 150.936 265.398 151.294 264.258C151.855 262.479 152.617 261.087 153.601 259.572C156.325 255.392 159.903 251.796 163.587 248.465C174.912 238.22 188.036 229.915 201.264 222.382C218.597 212.505 236.719 203.957 255.283 196.658C272.042 190.071 289.276 184.333 306.915 180.599C310.22 179.9 313.543 179.283 316.888 178.782C318.64 178.521 318.222 175.799 316.478 176.063C299.551 178.601 282.954 183.664 266.867 189.387C247.206 196.379 228.04 204.849 209.616 214.651C194.74 222.568 180.059 231.331 166.947 241.974C162.347 245.705 157.891 249.716 154.102 254.285C151.581 257.327 149.15 260.829 148.344 264.769C147.711 267.857 148.594 270.895 150.984 272.987C153.738 275.399 157.709 276.21 161.231 276.594C166.677 277.182 172.24 276.779 177.652 276.105C184.968 275.2 192.2 273.675 199.342 271.877C217.786 267.226 235.764 260.705 253.235 253.217C270.705 245.73 289.408 236.394 306.343 225.906C313.116 221.714 319.748 217.259 326.049 212.385C331.037 208.529 335.856 204.399 340.094 199.72C344.588 194.766 352.385 184.247 344.207 178.77C340.614 176.364 335.964 175.62 331.744 175.288C329.983 175.15 329.678 177.881 331.446 178.021L331.44 178.048Z" fill="#E3C2F0"/>
<path d="M334.346 171.319C339.189 171.959 344.286 173.099 348.446 175.795C349.958 176.778 351.392 177.988 352.345 179.539C352.891 180.428 353.254 181.459 353.427 182.213C354.307 186.042 353.087 189.998 351.326 193.587C348.802 198.731 345.039 203.301 341.127 207.443C335.814 213.069 329.894 218.111 323.767 222.81C307.964 234.939 290.541 244.951 272.637 253.625C253.306 262.993 233.152 270.916 212.414 276.581C203.771 278.944 195.002 280.918 186.134 282.237C178.996 283.299 171.746 283.988 164.524 283.727C159.297 283.535 153.887 282.931 149.023 280.868C147.252 280.114 145.622 279.177 144.165 277.845C142.998 276.774 142.029 275.393 141.427 273.782C140.904 272.39 140.716 270.577 140.856 268.961C141.034 266.889 141.598 265.024 142.402 263.09C144.519 258.006 147.987 253.513 151.616 249.425C156.531 243.891 162.12 238.955 167.897 234.345C175.043 228.643 182.596 223.448 190.346 218.604C208.885 207.023 228.692 197.389 249.031 189.408C267.742 182.062 287.16 175.942 307.045 172.721C310.927 172.09 314.837 171.591 318.76 171.255C320.525 171.103 320.104 168.388 318.35 168.536C299.098 170.169 280.131 175.426 261.936 181.718C240.307 189.201 219.288 198.663 199.412 210.02C183.596 219.054 168.036 229.298 154.93 242.033C150.309 246.526 145.884 251.39 142.52 256.914C140.142 260.819 138.076 265.303 138.068 269.972C138.067 274.061 139.783 277.716 142.888 280.363C146.502 283.452 151.366 284.853 155.954 285.648C162.416 286.765 169.076 286.681 175.589 286.199C184.057 285.575 192.458 284.138 200.746 282.3C221.501 277.687 241.71 270.535 261.146 261.969C280.752 253.327 299.806 243.148 317.395 230.876C324.426 225.967 331.234 220.706 337.519 214.864C342.428 210.302 347.13 205.369 350.869 199.787C353.544 195.792 355.951 191.211 356.393 186.342C356.575 184.335 356.384 182.325 355.741 180.407C354.601 177.007 351.838 174.509 348.772 172.814C344.434 170.408 339.516 169.236 334.641 168.593C332.886 168.362 332.588 171.095 334.343 171.326L334.346 171.319Z" fill="#E3C2F0"/>
<path d="M139.186 275.533C141.18 279.962 143.647 284.211 146.17 288.357C152.16 298.18 159.072 307.454 167.008 315.79C176.848 326.123 188.29 335.049 201.302 341.008C210.806 345.36 221.347 348.33 231.844 348.46C242.746 348.596 253.699 347.494 264.404 345.472C281.708 342.201 298.64 336.313 313.791 327.269C322.589 322.013 330.769 315.756 338.002 308.481C341.912 304.55 345.561 300.357 348.886 295.922C349.479 295.134 350.064 294.369 350.573 293.528C353.958 287.904 356.689 281.849 359.015 275.721C363.432 264.112 366.295 251.845 367.242 239.442C368.468 223.346 366.35 207.093 360.806 191.912C359.245 187.633 357.412 183.458 355.35 179.39C354.555 177.817 352.043 178.922 352.843 180.505C360.427 195.489 364.637 212.033 364.843 228.835C365.002 242.01 362.889 255.166 358.902 267.703C357.418 272.361 355.684 276.944 353.7 281.408C352.943 283.111 352.149 284.796 351.311 286.463C350.982 287.115 350.651 287.762 350.313 288.406C350.23 288.557 350.154 288.711 350.071 288.862C349.884 289.211 350.144 288.728 349.959 289.069C349.817 289.331 349.67 289.595 349.528 289.856C348.575 291.575 347.589 293.085 346.396 294.657C339.935 303.196 332.298 310.795 323.768 317.262C309.213 328.293 292.222 335.874 274.576 340.4C262.252 343.563 249.523 345.371 236.796 345.698C234.397 345.759 231.65 345.783 229.088 345.64C223.373 345.322 217.585 343.977 212.138 342.251C198.384 337.893 186.052 329.964 175.446 320.256C166.502 312.072 158.741 302.591 152.04 292.507C148.385 287.005 144.976 281.284 142.098 275.273C141.961 274.991 141.828 274.707 141.703 274.425C140.978 272.809 138.471 273.924 139.196 275.54L139.191 275.543L139.186 275.533Z" fill="#E3C2F0"/>
<path d="M153.566 297.619C154.223 297.327 154.593 296.47 154.261 295.805C153.929 295.14 153.151 294.794 152.449 295.106C151.792 295.398 151.422 296.255 151.754 296.92C152.086 297.585 152.864 297.931 153.566 297.619Z" fill="#E3C2F0"/>
<path d="M227.726 348.093C228.61 348.904 229.66 349.563 230.679 350.181C233.59 351.945 236.742 353.306 239.986 354.332C245.054 355.937 250.341 356.777 255.639 357.021C263.18 357.364 270.744 356.558 278.116 354.995C281.344 354.312 284.417 353.253 287.519 352.138C293.361 350.039 299.114 347.673 304.718 345C311.546 341.74 318.236 338.024 324.263 333.423C326.59 331.647 328.887 329.735 331.03 327.734C334.771 324.246 338.21 320.392 341.17 316.216C344.953 310.891 347.985 304.961 349.528 298.585C349.929 296.92 350.23 295.233 350.411 293.533C350.592 291.833 347.865 291.468 347.681 293.23C347.005 299.665 344.537 305.784 341.19 311.222C339.648 313.726 337.918 316.115 336.06 318.393C335.228 319.413 334.368 320.41 333.479 321.383C333.278 321.605 333.071 321.829 332.862 322.048C333.025 321.874 332.764 322.152 332.715 322.204C332.602 322.327 332.486 322.445 332.37 322.562C331.989 322.961 331.6 323.356 331.209 323.747C329.422 325.535 327.544 327.201 325.593 328.798C323.063 330.862 320.515 332.844 317.781 334.638C314.708 336.655 311.506 338.477 308.248 340.173C302.313 343.264 296.16 345.947 289.909 348.329C286.694 349.554 283.448 350.764 280.145 351.739C280.081 351.755 280.021 351.782 279.956 351.799C279.981 351.788 280.231 351.743 279.959 351.779C279.687 351.816 279.425 351.902 279.165 351.964C278.603 352.093 278.045 352.215 277.484 352.332C275.457 352.758 273.416 353.124 271.37 353.426C267.745 353.961 264.087 354.299 260.422 354.364C257.387 354.413 254.318 354.279 251.293 353.933C249.957 353.78 248.622 353.586 247.3 353.343C246.693 353.233 246.086 353.112 245.487 352.981C245.195 352.918 244.908 352.853 244.619 352.783C244.478 352.75 244.337 352.716 244.195 352.683C243.901 352.615 244.224 352.694 243.938 352.617C240.324 351.689 236.844 350.401 233.531 348.678C233.319 348.567 233.794 348.826 233.586 348.708C233.514 348.667 233.442 348.627 233.372 348.592C233.228 348.511 233.077 348.428 232.931 348.343C232.672 348.193 232.411 348.038 232.155 347.881C231.734 347.623 231.313 347.352 230.905 347.07C230.421 346.738 229.96 346.377 229.499 346.016C229.443 345.969 229.386 345.922 229.331 345.868C228.783 345.365 227.813 345.628 227.415 346.178C226.941 346.841 227.181 347.595 227.729 348.098L227.726 348.093Z" fill="#E3C2F0"/>
<path d="M312.055 202.811C312.316 201.642 312.584 200.475 312.852 199.308C313.164 197.959 313.482 196.607 313.8 195.256C313.997 194.428 314.193 193.6 314.394 192.77C314.451 192.546 314.5 192.319 314.557 192.096C314.581 191.988 314.611 191.879 314.635 191.772C314.647 191.718 314.66 191.665 314.677 191.609C314.719 191.446 314.603 191.901 314.665 191.662C314.782 191.183 314.899 190.703 315.016 190.224C316.117 185.73 317.254 181.251 318.432 176.784C319.821 171.518 321.262 166.265 322.774 161.035C324.286 155.805 326.017 150.134 327.802 144.735C329.482 139.653 331.263 134.61 333.26 129.646C334.144 127.459 335.063 125.286 336.052 123.148C336.512 122.155 336.983 121.175 337.481 120.201C337.715 119.741 337.949 119.282 338.19 118.825C338.346 118.527 338.148 118.905 338.233 118.746C338.289 118.643 338.346 118.54 338.402 118.436C338.522 118.208 338.65 117.983 338.778 117.757C339.429 116.601 340.237 115.513 340.828 114.329C340.971 114.043 341.119 113.754 341.264 113.473C341.382 113.252 341.497 113.026 341.615 112.805C341.648 112.742 341.677 112.687 341.711 112.63C341.805 112.449 341.527 112.971 341.669 112.709C341.744 112.567 341.821 112.43 341.896 112.289C343.741 108.915 345.796 105.647 348.052 102.536C349.487 100.562 351.009 98.6506 352.652 96.8482C352.753 96.7371 352.849 96.6283 352.952 96.5223C353.001 96.4704 353.052 96.4112 353.101 96.3593C352.908 96.5719 353.045 96.4207 353.086 96.3783C353.315 96.1378 353.545 95.8973 353.776 95.6618C354.214 95.2143 354.661 94.7746 355.113 94.3449C355.998 93.5119 356.92 92.7101 357.878 91.9592C358.341 91.5965 358.816 91.2467 359.298 90.912C359.546 90.7413 359.79 90.5729 360.043 90.4122C360.159 90.3364 360.276 90.2605 360.399 90.1874C360.442 90.1623 360.634 90.0407 360.465 90.1461C360.281 90.2583 360.536 90.1026 360.574 90.0798C361.573 89.4908 362.604 88.9599 363.678 88.5244C364.204 88.3148 364.735 88.1326 365.273 87.9654C364.967 88.0596 365.268 87.9676 365.398 87.9342C365.527 87.9008 365.651 87.8696 365.781 87.8361C366.051 87.7699 366.32 87.7108 366.597 87.6596C367.14 87.5567 367.691 87.4861 368.244 87.4451C368.372 87.4363 368.505 87.4252 368.635 87.4213C368.7 87.4169 368.766 87.4175 368.83 87.4131C369.022 87.3998 368.577 87.4112 368.769 87.4102C369.064 87.4115 369.358 87.4128 369.653 87.4264C370.2 87.4541 370.75 87.5164 371.291 87.6127C371.423 87.6385 371.56 87.662 371.691 87.6878C371.764 87.7035 372.185 87.7992 372.022 87.7572C371.86 87.7153 372.253 87.8171 372.302 87.8317C372.452 87.8731 372.605 87.9195 372.751 87.9631C373.434 88.1768 374.096 88.5446 374.796 88.6729C374.999 88.7093 374.379 88.5576 374.568 88.618C374.616 88.6326 374.67 88.6449 374.718 88.6594C374.837 88.6969 374.961 88.7322 375.077 88.7769C375.234 88.8334 375.386 88.8921 375.538 88.9631C375.62 88.9989 375.697 89.0369 375.774 89.0749C376.13 89.2415 375.487 88.9016 375.764 89.0671C375.951 89.1766 376.135 89.2934 376.312 89.4197C376.4 89.4828 376.483 89.5482 376.568 89.6186C376.614 89.6527 376.654 89.689 376.694 89.7253C376.9 89.8924 376.708 89.7974 376.621 89.6555C376.74 89.8555 376.978 90.0265 377.124 90.2203C377.198 90.3197 377.265 90.4286 377.339 90.5281C377.437 90.6532 377.141 90.1645 377.273 90.4191C377.306 90.4945 377.355 90.5632 377.391 90.6314C377.452 90.7548 377.511 90.8732 377.557 91.0033C377.601 91.1038 377.732 91.5456 377.66 91.2764C377.588 91.0072 377.71 91.483 377.727 91.5897C377.759 91.7561 377.784 91.9197 377.801 92.0928C377.807 92.1743 377.816 92.2608 377.822 92.3424C377.822 92.3965 377.824 92.7265 377.829 92.4535C377.834 92.1804 377.824 92.5221 377.824 92.5763C377.821 92.6919 377.813 92.8097 377.809 92.9202C377.78 93.3423 377.71 93.7526 377.63 94.1674C377.561 94.5236 377.682 94.0122 377.618 94.2333C377.583 94.3449 377.556 94.4594 377.527 94.5688C377.448 94.8384 377.363 95.1053 377.268 95.3643C377.066 95.9236 376.83 96.474 376.576 97.0087C376.438 97.2928 376.298 97.5719 376.15 97.8482C376.263 97.6294 376.057 98.0162 376.017 98.0882C375.91 98.2802 375.801 98.4671 375.687 98.6564C375.267 99.3607 374.819 100.042 374.349 100.714C373.205 102.355 371.949 103.907 370.629 105.409C370.391 105.684 370.141 105.945 369.914 106.233C368.949 107.451 368.039 108.729 367.128 109.989C365.088 112.817 363.115 115.687 361.188 118.591C358.367 122.838 355.652 127.158 353.03 131.527C349.699 137.085 346.522 142.73 343.496 148.459C340.022 155.032 336.75 161.719 333.706 168.503C330.347 175.994 327.261 183.615 324.496 191.348C323.091 195.266 321.778 199.215 320.545 203.195C320.325 203.902 320.611 204.695 321.336 204.975C321.996 205.229 322.888 204.899 323.112 204.185C325.653 195.975 328.572 187.885 331.812 179.924C334.785 172.617 338.031 165.424 341.517 158.352C344.62 152.053 347.789 146.092 351.241 140.024C354.084 135.032 357.048 130.108 360.135 125.26C362.412 121.683 364.756 118.148 367.186 114.671C368.577 112.68 369.989 110.709 371.444 108.767C371.697 108.432 371.946 108.087 372.214 107.757C372.952 106.85 373.752 106.001 374.488 105.09C375.632 103.678 376.711 102.216 377.67 100.67C379.634 97.4968 381.864 92.8685 379.723 89.2152C378.671 87.4189 377.011 86.4956 375.084 85.9439C374.858 85.8818 375.238 86.02 375.238 85.9658C375.235 85.8106 373.71 85.3932 373.525 85.3428C372.344 84.9954 371.128 84.7596 369.899 84.698C367.478 84.5765 365.093 85.0351 362.836 85.9009C358.137 87.7076 354.202 91.1496 350.821 94.7969C347.63 98.2387 344.861 102.059 342.382 106.034C340.916 108.384 339.529 110.789 338.296 113.27C338.261 113.339 338.223 113.416 338.188 113.486C338.183 113.501 338.175 113.51 338.169 113.525C338.399 112.989 338.138 113.508 338.043 113.659C337.544 114.429 337.075 115.21 336.619 116.008C335.542 117.896 334.562 119.837 333.642 121.806C331.529 126.322 329.708 130.979 328.009 135.666C326.096 140.954 324.343 146.303 322.69 151.675C321.011 157.123 319.429 162.601 317.915 168.097C316.547 173.071 315.235 178.061 313.969 183.062C312.965 187.03 311.988 191.005 311.042 194.983C310.519 197.197 310.001 199.408 309.499 201.63C309.435 201.918 309.368 202.212 309.306 202.505C309.148 203.231 309.839 203.947 310.522 204.023C311.324 204.112 311.873 203.536 312.036 202.808L312.055 202.811Z" fill="#E3C2F0"/>
<path d="M373.815 88.1649C373.905 88.2577 373.971 88.3666 374.048 88.471C374.217 88.7028 373.861 88.1326 373.975 88.347C374.008 88.4224 374.057 88.4911 374.095 88.5643C374.188 88.7458 374.268 88.9267 374.341 89.1172C374.379 89.2026 374.395 89.388 374.454 89.4523C374.395 89.388 374.357 89.0859 374.415 89.3249C374.435 89.3947 374.454 89.4645 374.468 89.5366C374.538 89.8303 374.581 90.1301 374.61 90.4244C374.625 90.5802 374.628 90.7354 374.639 90.8934C374.643 90.9699 374.644 90.5958 374.635 90.8711C374.632 90.9867 374.629 91.1022 374.627 91.2178C374.607 91.6181 374.565 92.01 374.493 92.4031C374.473 92.5203 374.45 92.6448 374.425 92.7643C374.416 92.8106 374.348 93.1176 374.382 92.9641C374.416 92.8106 374.341 93.1271 374.326 93.1757C374.288 93.3069 374.251 93.438 374.208 93.5715C374.039 94.1102 373.841 94.6377 373.614 95.154C373.062 96.411 372.396 97.52 371.58 98.6959C371.37 98.994 371.153 99.2892 370.915 99.5637C370.8 99.6988 370.679 99.831 370.56 99.9683C370.5 100.037 370.439 100.101 370.379 100.169C370.224 100.334 370.547 99.9923 370.327 100.228C369.623 100.969 368.901 101.694 368.185 102.421C365.035 105.616 362.005 108.879 359.455 112.584C358.138 114.5 356.863 116.44 355.623 118.406C353.868 121.186 352.187 124.01 350.549 126.864C348.36 130.679 346.267 134.549 344.231 138.452C341.693 143.32 339.26 148.237 336.9 153.194C334.54 158.151 332.263 163.011 330.26 168.056C328.514 172.451 326.931 176.912 325.33 181.363C323.436 186.624 321.5 191.874 319.427 197.071C318.83 198.565 318.223 200.051 317.61 201.534C317.326 202.22 317.719 203.05 318.401 203.313C319.083 203.576 319.888 203.212 320.176 202.524C322.468 197.007 324.603 191.422 326.648 185.81C328.332 181.196 329.95 176.557 331.699 171.968C333.448 167.379 335.541 162.589 337.686 157.986C340.141 152.716 342.686 147.484 345.331 142.304C346.442 140.13 347.576 137.964 348.73 135.807C348.76 135.752 348.91 135.468 348.811 135.651C348.873 135.533 348.937 135.42 348.999 135.302C349.14 135.04 349.285 134.771 349.432 134.507C349.694 134.03 349.954 133.547 350.216 133.069C350.718 132.159 351.22 131.25 351.73 130.343C353.435 127.315 355.194 124.316 357.021 121.361C358.342 119.226 359.704 117.115 361.113 115.043C361.802 114.026 362.496 113.007 363.232 112.029C364.862 109.872 366.664 107.914 368.462 106.055C369.956 104.512 371.518 103.028 372.949 101.423C374.514 99.6608 375.76 97.4266 376.568 95.2188C377.561 92.5076 377.87 89.2332 376.18 86.7281C376.11 86.6264 376.039 86.5197 375.957 86.4298C375.452 85.8896 374.625 85.7456 374.021 86.2371C373.475 86.6846 373.323 87.6253 373.832 88.1755L373.815 88.1649Z" fill="#E3C2F0"/>
<path d="M311.299 204.003C311.71 203.778 312.136 203.588 312.571 203.431C312.681 203.394 312.832 203.315 312.948 203.306L312.788 203.352C312.853 203.336 312.917 203.319 312.982 203.302C313.208 203.244 313.432 203.193 313.66 203.151C313.888 203.11 314.12 203.079 314.35 203.055C314.567 203.031 314.835 202.972 315.048 203.004L314.893 203.006C314.959 203.007 315.025 203.008 315.092 203.008C315.207 203.011 315.328 203.012 315.443 203.014C315.676 203.025 315.906 203.043 316.141 203.071C316.356 203.096 316.569 203.128 316.783 203.165C316.915 203.191 317.046 203.216 317.173 203.244C317.504 203.314 316.891 203.165 317.219 203.254C317.666 203.38 318.109 203.526 318.539 203.709C318.739 203.794 318.998 203.878 319.17 204.006C318.906 203.804 319.131 203.987 319.21 204.03C319.325 204.099 319.438 204.164 319.55 204.24C319.944 204.492 320.315 204.773 320.665 205.087C321.207 205.562 322.202 205.355 322.582 204.776C323.022 204.105 322.845 203.371 322.268 202.857C319.042 200.005 313.949 199.44 310.177 201.492C309.547 201.832 309.134 202.605 309.482 203.306C309.796 203.931 310.617 204.372 311.294 204.005L311.299 204.003Z" fill="#E3C2F0"/>
<path d="M158.219 274.298C157.693 271.372 161.075 269.915 163.406 269.686C167.072 269.325 170.818 270.308 174.327 268.771C176.012 268.034 177.197 266.755 178.209 265.263C179.011 264.081 179.766 262.903 181.046 262.201C183.485 260.851 186.363 261.178 188.49 262.936C189.638 263.882 190.632 265.036 191.891 265.854C193.243 266.734 194.775 267.154 196.385 266.992C199.523 266.674 201.974 264.338 204.778 263.133C207.925 261.782 211.275 263.278 214.553 263.192C218.038 263.1 221.461 261.884 224.266 259.83C224.883 259.381 225.446 258.877 225.998 258.349C226.695 257.69 227.118 257.357 228.098 257.439C229.9 257.589 231.436 257.315 232.947 256.282C235.806 254.336 236.836 250.927 238.053 247.882C239.164 245.088 240.812 242.675 244.013 242.323C245.285 242.185 246.654 242.425 247.757 243.084C249.163 243.922 250.348 245.032 252.12 244.6C253.891 244.167 254.788 242.618 255.942 241.376C256.77 240.484 257.807 239.776 258.938 239.334C259.873 238.966 260.982 238.798 261.934 239.211C263.324 239.809 263.935 241.427 265.397 241.999C268.49 243.213 271.21 240.606 272.681 238.188C273.532 236.792 274.306 235.237 275.8 234.435C277.403 233.571 279.299 233.444 281.08 233.26C288.312 232.518 295.181 229.65 300.529 224.658C303.085 222.275 304.979 219.253 307.598 216.944C308.78 215.901 310.148 215.021 311.764 214.899C313.379 214.777 314.923 215.426 316.523 214.986C317.984 214.583 319.298 213.432 319.374 211.833C319.454 210.07 316.727 209.759 316.644 211.53C316.586 212.844 314.31 212.346 313.547 212.251C311.824 212.036 310.125 212.214 308.552 212.986C305.366 214.547 303.246 217.586 301.003 220.215C296.392 225.619 289.808 229.252 282.789 230.297C279.176 230.832 275.166 230.689 272.498 233.603C271.359 234.85 270.681 236.404 269.692 237.759C269.064 238.617 268.018 239.6 266.872 239.549C266.217 239.522 265.813 239.033 265.401 238.578C264.834 237.951 264.267 237.366 263.526 236.956C262.353 236.303 261.017 236.121 259.698 236.316C256.749 236.749 254.664 238.693 252.821 240.868C252.463 241.292 251.916 241.981 251.297 241.967C250.642 241.952 249.989 241.254 249.47 240.925C248.241 240.147 246.829 239.674 245.381 239.577C242.266 239.367 239.265 240.696 237.408 243.22C235.423 245.927 235.033 249.412 233.154 252.156C232.313 253.385 231.131 254.603 229.573 254.76C228.739 254.842 227.911 254.602 227.071 254.699C226.157 254.804 225.359 255.238 224.678 255.841C223.392 256.973 222.202 258.08 220.651 258.861C219.1 259.641 217.53 260.135 215.849 260.352C214.168 260.57 212.491 260.419 210.805 260.14C209.118 259.86 207.397 259.596 205.712 259.966C202.575 260.651 200.219 262.957 197.243 264.004C194.061 265.13 192.198 262.413 189.996 260.635C187.667 258.762 184.579 258.179 181.718 259C180.317 259.401 178.983 260.102 177.947 261.135C176.756 262.321 176.056 263.866 174.921 265.082C172.4 267.786 167.985 266.854 164.714 266.9C161.443 266.946 158.201 267.762 156.392 270.608C155.607 271.842 155.244 273.267 155.504 274.717C155.816 276.457 158.532 276.055 158.219 274.31L158.219 274.298Z" fill="#E3C2F0"/>
<path d="M324.17 206.075C324.17 206.021 324.197 205.69 324.165 205.927C324.127 206.233 324.242 205.67 324.156 205.961C324.112 206.107 324.122 206.048 324.16 205.984C324.243 205.832 324.226 206.051 324.075 206.064C324.11 206.06 324.271 205.91 324.299 205.879C324.395 205.783 324.185 205.96 324.166 205.957C324.18 205.963 324.322 205.875 324.322 205.875C324.402 205.84 324.482 205.804 324.565 205.773C324.795 205.671 324.302 205.818 324.55 205.78C324.663 205.766 324.773 205.741 324.889 205.732C324.945 205.725 324.999 205.725 325.059 205.722C325.261 205.705 324.838 205.712 325.044 205.729C325.154 205.734 325.274 205.735 325.385 205.74C325.647 205.75 325.912 205.764 326.175 205.762C326.871 205.759 327.523 205.698 328.169 205.423C329.289 204.943 330.131 203.96 330.913 203.058C331.493 202.391 332.029 201.677 332.459 200.902C332.951 200.009 333.341 199.076 333.467 198.051C333.526 197.561 333.519 197.047 333.442 196.563C333.396 196.27 333.313 195.988 333.225 195.709C333.192 195.609 333.16 195.509 333.129 195.414C333.105 195.346 333.079 195.274 333.055 195.206C332.978 195.005 333.02 195.222 333.061 195.246C333.042 195.23 332.988 194.935 332.998 194.93C333.034 194.915 332.96 195.194 333.011 194.973C333.014 194.978 332.949 195.211 333 195.068C333.05 194.925 332.954 195.155 332.951 195.162C333.053 194.972 332.975 195.242 332.901 195.196C332.901 195.196 333.148 194.984 333.176 194.965C333.37 194.819 333.579 194.696 333.786 194.568C333.847 194.529 334.12 194.359 333.928 194.481C334.079 194.389 334.231 194.298 334.382 194.206C335.405 193.589 336.456 193.007 337.579 192.574C337.744 192.513 337.909 192.451 338.076 192.395C338.138 192.373 338.203 192.357 338.265 192.335C338.472 192.261 338.104 192.377 338.28 192.328C338.539 192.261 338.792 192.197 339.053 192.147C339.313 192.098 339.573 192.06 339.837 192.033C339.975 192.02 340.121 192.009 340.261 192.001C340.308 191.998 340.375 191.987 340.421 191.996C340.328 191.977 340.21 191.994 340.381 192.002C340.661 192.01 340.943 192.023 341.217 192.057C341.337 192.07 341.459 192.088 341.578 192.113C341.63 192.121 341.683 192.133 341.73 192.143C342.061 192.2 341.555 192.088 341.74 192.138C341.989 192.214 342.237 192.284 342.481 192.386C342.592 192.433 342.703 192.48 342.811 192.535C342.849 192.554 343.044 192.666 342.888 192.573C342.716 192.469 342.998 192.644 343.005 192.647C343.618 193.025 344.497 192.989 344.921 192.337C345.304 191.751 345.261 190.819 344.608 190.417C342.672 189.225 340.311 188.993 338.119 189.534C336.814 189.855 335.592 190.375 334.413 191.02C333.866 191.317 333.331 191.64 332.803 191.965C332.275 192.29 331.649 192.598 331.187 193.032C330.608 193.579 330.254 194.242 330.272 195.053C330.279 195.447 330.375 195.784 330.494 196.159C330.535 196.279 330.576 196.399 330.62 196.524C330.642 196.574 330.655 196.629 330.672 196.681C330.74 196.862 330.609 196.39 330.659 196.651C330.699 196.85 330.73 197.041 330.753 197.241C330.794 197.578 330.771 197.053 330.758 197.293C330.752 197.416 330.75 197.532 330.739 197.657C330.727 197.765 330.713 197.867 330.698 197.97C330.689 198.016 330.68 198.063 330.675 198.107C330.64 198.339 330.682 198.068 330.696 198.031C330.601 198.236 330.565 198.481 330.48 198.693C330.402 198.884 330.325 199.075 330.231 199.256C330.209 199.301 330.176 199.388 330.145 199.426C330.145 199.426 330.276 199.194 330.198 199.33C330.134 199.443 330.07 199.556 329.999 199.666C329.748 200.073 329.47 200.461 329.175 200.839C328.881 201.217 328.594 201.543 328.286 201.879C328.134 202.049 328.286 201.879 328.31 201.85C328.264 201.895 328.225 201.942 328.178 201.987C328.075 202.093 327.967 202.201 327.862 202.302C327.757 202.403 327.644 202.501 327.525 202.597C327.476 202.636 327.428 202.676 327.372 202.713C327.367 202.715 327.066 202.903 327.212 202.826C327.358 202.749 327.167 202.846 327.152 202.853C327.057 202.895 326.959 202.932 326.862 202.97C326.686 203.048 326.939 202.941 326.941 202.946C326.928 202.97 326.708 202.99 326.669 202.995C326.612 203.003 326.56 203.008 326.503 203.015C326.503 203.015 326.156 203.031 326.345 203.025C326.513 203.023 326.321 203.024 326.296 203.022C326.201 203.023 326.107 203.016 326.012 203.017C325.376 202.992 324.71 202.939 324.079 203.075C322.799 203.356 321.418 204.331 321.421 205.781C321.421 206.497 321.838 207.245 322.637 207.299C323.311 207.343 324.151 206.855 324.15 206.084L324.17 206.075Z" fill="#E3C2F0"/>
<path d="M326.614 193.784C326.666 193.713 326.721 193.646 326.78 193.577C326.934 193.383 326.624 193.725 326.747 193.61C326.87 193.495 326.98 193.392 327.11 193.292C327.169 193.248 327.229 193.209 327.288 193.165C327.428 193.061 327.013 193.317 327.235 193.195C327.376 193.12 327.522 193.043 327.669 192.983C327.735 192.954 327.809 192.933 327.875 192.904C328.16 192.789 327.562 192.971 327.86 192.911C328.003 192.883 328.145 192.85 328.291 192.827C328.377 192.819 328.464 192.811 328.555 192.8C328.804 192.78 328.339 192.788 328.508 192.803C328.677 192.818 328.829 192.823 328.985 192.85C329.049 192.857 329.249 192.943 329.061 192.858C328.873 192.773 329.083 192.866 329.132 192.881C329.279 192.93 329.422 192.981 329.564 193.044C329.61 193.065 329.703 193.139 329.755 193.134C329.582 193.042 329.541 193.018 329.63 193.069C329.668 193.088 329.704 193.114 329.737 193.135C329.854 193.21 329.969 193.291 330.08 193.38C330.145 193.43 330.205 193.499 330.275 193.547C330.179 193.481 330.079 193.351 330.227 193.507C330.333 193.623 330.433 193.741 330.524 193.863C330.565 193.917 330.605 193.978 330.644 194.039C330.743 194.181 330.487 193.753 330.605 193.978C330.684 194.129 330.756 194.278 330.815 194.438C331.078 195.11 331.984 195.459 332.628 195.137C333.316 194.795 333.605 194.04 333.322 193.323C332.658 191.626 331.063 190.403 329.278 190.118C327.494 189.834 325.49 190.69 324.372 192.174C323.941 192.745 324.074 193.691 324.686 194.094C325.297 194.496 326.142 194.397 326.602 193.783L326.614 193.784Z" fill="#E3C2F0"/>
<path d="M164.943 268.321C164.958 265.425 166.12 262.608 168.205 260.585C169.225 259.596 170.393 258.805 171.717 258.283C173.365 257.628 175.176 257.539 176.818 256.857C179.833 255.6 180.748 252.7 181.814 249.897C182.242 248.767 182.739 247.588 183.736 246.844C184.872 245.996 186.429 245.863 187.781 245.623C189.297 245.358 190.844 245.013 192.109 244.089C193.527 243.049 194.094 241.449 194.469 239.794C195.107 237 196.229 234.514 198.3 232.485C200.371 230.456 202.795 229.113 205.537 228.58C208.936 227.917 212.346 229.291 215.716 228.412C217.464 227.954 219.124 227.095 220.433 225.838C221.668 224.657 222.505 223.189 223.521 221.828C224.428 220.612 225.413 219.68 227.014 219.931C228.728 220.205 230.208 220.792 231.942 220.208C235.513 218.999 236.075 215.022 237.749 212.182C238.536 210.845 239.728 209.893 241.281 209.642C243.021 209.356 244.464 210.358 246.163 210.451C249.814 210.651 251.68 207.473 253.896 205.163C254.791 204.23 255.638 204.015 256.919 204.126C258.398 204.251 259.841 204.645 261.314 204.796C262.787 204.948 264.319 204.856 265.602 203.972C266.794 203.154 267.552 201.847 268.466 200.754C269.379 199.662 270.423 199.402 271.727 199.093C272.763 198.843 273.764 198.675 274.754 198.782C277.44 199.068 279.717 201.012 282.565 200.624C286.232 200.131 288.573 197.236 291.151 194.903C293.422 192.839 296.418 191.308 299.565 191.51C303.026 191.729 305.467 194.544 308.809 195.171C310.481 195.487 312.194 195.177 313.553 194.127C314.912 193.077 313.206 190.916 311.808 192.001C310.579 192.951 308.866 192.503 307.58 191.907C305.956 191.16 304.526 190.05 302.845 189.419C299.765 188.26 296.29 188.698 293.365 190.089C291.823 190.823 290.427 191.817 289.179 192.981C287.789 194.273 286.522 195.746 284.932 196.802C283.769 197.578 282.231 198.172 280.812 197.87C279.509 197.588 278.281 196.84 276.995 196.461C274.584 195.751 272.341 196.044 269.961 196.73C268.343 197.196 267.227 197.916 266.161 199.233C265.433 200.122 264.702 201.597 263.54 201.982C262.377 202.366 260.92 201.979 259.759 201.773C258.31 201.514 256.834 201.22 255.354 201.39C252.043 201.767 250.812 205.223 248.394 207.026C246.963 208.09 245.699 207.544 244.15 207.126C242.44 206.658 240.656 206.753 239.023 207.456C237.389 208.158 236.16 209.391 235.318 210.916C234.476 212.44 234.049 214.087 233.176 215.541C232.303 216.995 231.226 217.962 229.527 217.681C227.829 217.401 226.362 216.831 224.638 217.412C221.349 218.525 220.434 222.49 217.813 224.445C216.423 225.478 214.671 226.035 212.94 225.992C211.209 225.949 209.414 225.561 207.623 225.599C204.597 225.669 201.699 226.663 199.162 228.291C196.624 229.919 194.582 232.201 193.22 234.878C192.514 236.263 192.125 237.724 191.793 239.233C191.461 240.741 190.948 241.83 189.47 242.397C187.993 242.964 186.502 242.977 185.053 243.35C183.474 243.758 182.076 244.422 181 245.677C179.212 247.76 179.079 250.662 177.548 252.865C176.611 254.215 175.115 254.592 173.583 254.93C171.942 255.293 170.367 255.734 168.917 256.608C166.271 258.194 164.185 260.633 163.079 263.521C162.531 264.951 162.227 266.483 162.223 268.014C162.223 268.755 162.649 269.444 163.439 269.532C164.117 269.61 164.95 269.065 164.953 268.317L164.943 268.321Z" fill="#E3C2F0"/>
<path d="M195.446 257.349C195.5 257.295 195.852 257.048 195.852 256.993C195.848 257.025 195.538 257.151 195.759 257.053C195.834 257.02 195.914 256.984 195.989 256.95C196.248 256.829 195.737 256.991 195.917 256.964C195.987 256.958 196.059 256.932 196.126 256.92C196.176 256.91 196.62 256.815 196.654 256.865L196.482 256.87C196.543 256.873 196.603 256.87 196.664 256.873C196.755 256.875 196.853 256.88 196.946 256.886C197.108 256.899 197.266 256.918 197.425 256.938C197.787 256.982 198.151 257.043 198.512 257.099C199.32 257.227 200.122 257.316 200.943 257.27C201.904 257.216 202.8 256.853 203.597 256.336C205.108 255.357 206.09 253.662 206.725 252.013C207.3 250.523 207.56 248.932 208.011 247.407C208.227 246.679 208.495 245.97 208.82 245.283C208.926 245.062 208.81 245.288 208.796 245.324C208.839 245.233 208.892 245.149 208.945 245.065C209.033 244.924 209.12 244.783 209.215 244.644C209.317 244.496 209.427 244.351 209.546 244.214C209.597 244.155 209.648 244.078 209.709 244.027C209.411 244.262 209.752 243.99 209.814 243.938C210.052 243.718 210.313 243.548 210.572 243.36C210.188 243.633 210.516 243.397 210.632 243.334C210.778 243.257 210.928 243.19 211.081 243.128C211.186 243.081 211.298 243.049 211.406 243.008C211.753 242.883 211.088 243.077 211.448 242.995C211.706 242.94 211.964 242.886 212.228 242.858C212.354 242.845 212.483 242.836 212.611 242.827C212.971 242.799 212.309 242.823 212.675 242.822C212.94 242.825 213.198 242.837 213.462 242.864C214.003 242.918 214.542 243.009 215.07 243.13C215.143 243.145 215.218 243.166 215.291 243.182C214.887 243.109 215.158 243.151 215.25 243.17C215.374 243.205 215.5 243.233 215.624 243.269C215.904 243.343 216.18 243.425 216.452 243.509C217.007 243.677 217.562 243.858 218.117 244.038C220.361 244.762 222.733 245.544 225.118 245.247C226.364 245.091 227.573 244.583 228.547 243.788C229.713 242.83 230.465 241.509 231.082 240.156C231.358 239.546 231.604 238.925 231.865 238.309C231.989 238.007 232.12 237.708 232.258 237.412C232.321 237.269 232.386 237.132 232.456 236.992C232.497 236.908 232.54 236.829 232.58 236.745C232.61 236.689 232.634 236.636 232.664 236.581C232.578 236.74 232.559 236.778 232.605 236.692C232.776 236.429 232.926 236.145 233.105 235.885C233.189 235.763 233.28 235.644 233.372 235.526C233.431 235.457 233.484 235.386 233.543 235.317C233.532 235.292 233.766 235.061 233.543 235.317C233.507 235.249 234.254 234.7 234.332 234.647C234.401 234.598 234.467 234.557 234.535 234.508C234.71 234.389 234.225 234.676 234.512 234.525C234.688 234.434 234.857 234.341 235.035 234.256C235.366 234.109 235.701 233.984 236.048 233.872C236.362 233.768 235.822 233.93 236.033 233.878C236.115 233.86 236.194 233.837 236.274 233.813C236.468 233.763 236.669 233.716 236.868 233.676C237.609 233.52 238.356 233.417 239.108 233.311C240.647 233.097 242.217 232.874 243.663 232.261C245.108 231.648 246.306 230.574 247.094 229.2C247.483 228.521 247.817 227.813 248.15 227.104C248.281 226.817 248.414 226.535 248.554 226.256C248.595 226.172 248.638 226.093 248.678 226.008C248.821 225.722 248.524 226.27 248.686 225.999C248.774 225.846 248.862 225.692 248.962 225.539C249.041 225.42 249.12 225.3 249.206 225.184C249.266 225.103 249.442 224.958 249.474 224.854L249.343 224.991C249.379 224.95 249.422 224.913 249.458 224.873C249.51 224.826 249.561 224.779 249.609 224.739C249.658 224.7 249.714 224.651 249.77 224.614C250.08 224.38 249.579 224.699 249.798 224.583C249.921 224.522 250.042 224.457 250.17 224.406L250.245 224.372C250.389 224.332 250.357 224.341 250.14 224.407C250.155 224.413 250.314 224.366 250.314 224.366C250.473 224.331 250.633 224.314 250.796 224.302C250.848 224.297 250.975 224.271 251.025 224.29C250.824 224.296 250.799 224.295 250.949 224.294C251.01 224.297 251.077 224.298 251.138 224.3C252.586 224.355 254.115 224.782 255.518 224.249C256.288 223.954 256.871 223.322 257.139 222.546C257.378 221.868 257.069 221.012 256.348 220.767C255.626 220.522 254.826 220.83 254.573 221.557C254.553 221.607 254.476 221.732 254.482 221.784C254.476 221.636 254.621 221.529 254.494 221.73C254.388 221.898 254.525 221.572 254.592 221.626C254.594 221.631 254.431 221.752 254.426 221.754C254.422 221.623 254.76 221.6 254.525 221.68C254.475 221.702 254.403 221.716 254.363 221.746C254.623 221.588 254.611 221.684 254.428 221.717C254.351 221.733 254.277 221.742 254.198 221.753C254.119 221.765 254.035 221.766 253.954 221.772C253.668 221.79 254.203 221.793 254.013 221.769C253.854 221.75 253.684 221.759 253.522 221.747C253.174 221.721 252.832 221.681 252.487 221.647C250.882 221.482 249.286 221.487 247.955 222.531C246.811 223.431 246.174 224.822 245.574 226.107C245.428 226.425 245.281 226.743 245.127 227.058C245.059 227.203 244.984 227.345 244.914 227.484C244.763 227.78 245.068 227.223 244.9 227.508C244.852 227.59 244.81 227.669 244.762 227.75C244.589 228.038 244.402 228.32 244.189 228.583C244.15 228.631 244.109 228.673 244.07 228.72C243.877 228.963 244.293 228.519 244.049 228.742C243.903 228.873 243.77 229.004 243.614 229.128C243.49 229.225 243.358 229.32 243.228 229.408C242.957 229.595 243.51 229.258 243.218 229.412C243.148 229.443 243.077 229.487 243.009 229.523C242.682 229.693 242.342 229.832 241.993 229.951C241.915 229.98 241.84 230.001 241.761 230.024C241.563 230.094 242.104 229.932 241.781 230.015C241.619 230.057 241.463 230.097 241.301 230.139C240.909 230.229 240.51 230.304 240.113 230.372C238.665 230.613 237.187 230.734 235.757 231.111C234.083 231.548 232.601 232.28 231.423 233.575C230.464 234.633 229.852 235.971 229.303 237.275C229.042 237.891 228.796 238.512 228.52 239.122C228.45 239.274 228.381 239.431 228.303 239.58C228.247 239.696 228.188 239.902 228.099 239.984L228.182 239.833C228.152 239.888 228.125 239.936 228.096 239.991C228.064 240.042 228.035 240.097 228.003 240.147C227.91 240.303 227.815 240.453 227.718 240.599C227.667 240.676 227.103 241.324 227.121 241.364C227.101 241.319 227.329 241.157 227.18 241.296C227.116 241.354 227.055 241.418 226.985 241.479C226.852 241.598 226.717 241.712 226.572 241.819C226.463 241.898 226.349 241.966 226.24 242.045C226.641 241.758 226.238 242.04 226.12 242.098C225.889 242.213 225.649 242.296 225.414 242.388C225.179 242.481 225.767 242.304 225.506 242.366C225.461 242.373 225.419 242.386 225.372 242.401C225.247 242.432 225.126 242.456 225.004 242.48C224.742 242.525 224.483 242.55 224.214 242.567C223.859 242.592 224.516 242.571 224.15 242.571C224.029 242.571 223.914 242.568 223.796 242.56C223.507 242.544 223.218 242.516 222.935 242.473C222.691 242.438 222.444 242.397 222.201 242.348C222.076 242.325 221.955 242.295 221.83 242.272C221.757 242.257 221.682 242.236 221.609 242.22C221.354 242.159 221.935 242.304 221.609 242.22C221.065 242.077 220.528 241.924 219.99 241.754C217.779 241.064 215.509 240.159 213.17 240.086C211.977 240.05 210.778 240.204 209.683 240.715C208.177 241.421 207.093 242.644 206.331 244.103C205.619 245.461 205.255 246.965 204.892 248.445C204.712 249.2 204.523 249.952 204.26 250.683C204.114 251.085 203.949 251.484 203.767 251.872C203.727 251.956 203.681 252.042 203.638 252.134C203.543 252.339 203.8 251.863 203.611 252.182C203.494 252.378 203.377 252.575 203.251 252.763C203.135 252.935 203.015 253.097 202.888 253.256C202.83 253.33 202.771 253.399 202.711 253.467C202.482 253.75 202.916 253.28 202.654 253.529C202.524 253.653 202.398 253.775 202.255 253.887C202.171 253.954 202.085 254.017 201.998 254.079L201.91 254.137C201.778 254.219 201.793 254.213 201.953 254.112C201.867 254.216 201.611 254.288 201.478 254.341C201.393 254.379 201.27 254.439 201.178 254.45C201.489 254.42 201.263 254.424 201.164 254.444C200.978 254.485 200.785 254.511 200.595 254.529C200.56 254.532 200.449 254.552 200.402 254.542C200.599 254.539 200.616 254.537 200.466 254.538C200.4 254.537 200.339 254.534 200.272 254.534C198.778 254.47 197.314 253.959 195.81 254.17C195.019 254.282 194.217 254.626 193.66 255.211C193.17 255.73 192.932 256.546 193.471 257.149C193.921 257.648 194.873 257.898 195.407 257.342L195.446 257.349Z" fill="#E3C2F0"/>
<path d="M256.839 234.09C256.929 233.887 257.017 233.679 257.115 233.48C257.161 233.381 257.21 233.275 257.261 233.174C257.285 233.121 257.312 233.073 257.336 233.02C257.35 232.996 257.463 232.777 257.385 232.926C257.304 233.082 257.414 232.871 257.435 232.837C257.462 232.789 257.489 232.741 257.521 232.691C257.579 232.593 257.635 232.502 257.695 232.408C257.829 232.21 257.978 232.03 258.121 231.84C258.22 231.711 258.062 231.896 258.059 231.903C258.073 231.867 258.147 231.816 258.177 231.791C258.252 231.715 258.336 231.648 258.42 231.58C258.504 231.513 258.593 231.455 258.684 231.391C258.821 231.294 258.601 231.446 258.606 231.444C258.601 231.434 258.772 231.358 258.792 231.349C258.882 231.309 258.972 231.269 259.058 231.231C259.103 231.211 259.209 231.193 259.24 231.168C259.235 231.17 258.969 231.234 259.123 231.202C259.333 231.162 259.54 231.113 259.755 231.083C259.953 231.055 260.155 231.038 260.355 231.027C260.455 231.024 260.554 231.017 260.66 231.012C260.712 231.007 260.761 231.009 260.815 231.009C261.009 231.001 260.569 231.01 260.766 231.007C261.292 231.001 261.813 230.998 262.336 230.971C263.348 230.912 264.304 230.655 265.162 230.099C266.019 229.543 266.547 228.61 266.993 227.707C267.095 227.505 267.19 227.3 267.29 227.093C267.339 227 267.387 226.906 267.431 226.814C267.498 226.67 267.391 226.886 267.388 226.893C267.398 226.835 267.462 226.764 267.494 226.714C267.6 226.534 267.714 226.357 267.844 226.191C267.87 226.155 268.005 225.945 268.042 225.946C268.042 225.946 267.859 226.13 267.975 226.012C268.026 225.965 268.075 225.913 268.126 225.867C268.291 225.709 268.467 225.565 268.654 225.433C268.679 225.422 268.908 225.248 268.918 225.256C268.922 225.266 268.681 225.385 268.829 225.313C268.894 225.284 268.955 225.245 269.013 225.213C269.199 225.118 269.395 225.031 269.59 224.957C269.635 224.937 269.945 224.823 269.765 224.891C269.585 224.959 269.755 224.895 269.79 224.88C269.859 224.861 269.924 224.844 269.996 224.83C270.204 224.786 270.412 224.753 270.62 224.734C270.706 224.725 270.853 224.69 270.935 224.714C270.729 224.655 270.785 224.714 270.896 224.719C270.964 224.725 271.035 224.723 271.104 224.729C271.322 224.746 271.534 224.778 271.746 224.822C272.002 224.871 271.606 224.777 271.853 224.847C271.984 224.885 272.111 224.925 272.242 224.963C273.424 225.34 274.555 225.777 275.813 225.741C277.071 225.706 278.331 225.151 278.942 224.066C279.294 223.44 279.293 222.586 278.629 222.147C278.061 221.773 277.089 221.79 276.713 222.457C276.662 222.546 276.607 222.624 276.554 222.708C276.42 222.906 276.722 222.585 276.529 222.732C276.493 222.759 276.447 222.792 276.412 222.82C276.306 222.921 276.498 222.757 276.523 222.758C276.444 222.757 276.246 222.893 276.164 222.924C275.928 223.029 276.387 222.885 276.129 222.94C276.029 222.96 275.925 222.982 275.822 222.992C275.775 222.995 275.546 223.048 275.508 223.017C275.504 223.007 275.771 223.026 275.602 223.011C275.533 223.006 275.462 223.007 275.393 223.002C275.293 222.992 275.19 222.977 275.088 222.963C274.998 222.949 274.679 222.88 274.927 222.938C274.684 222.878 274.446 222.803 274.206 222.723C273.729 222.568 273.26 222.391 272.776 222.263C271.725 221.978 270.655 221.87 269.581 222.101C268.506 222.332 267.54 222.78 266.697 223.45C265.854 224.12 265.274 224.992 264.794 225.952C264.692 226.154 264.597 226.359 264.497 226.566C264.449 226.659 264.405 226.751 264.357 226.845C264.338 226.883 264.315 226.954 264.287 226.984C264.346 226.928 264.396 226.797 264.306 226.946C264.202 227.118 264.094 227.293 263.971 227.462C263.955 227.481 263.781 227.697 263.781 227.697C263.767 227.679 264.034 227.47 263.81 227.654C263.756 227.696 263.707 227.748 263.654 227.79C263.613 227.82 263.57 227.845 263.537 227.878C263.424 227.976 263.638 227.821 263.648 227.816C263.563 227.842 263.479 227.91 263.396 227.952C263.313 227.995 263.225 228.028 263.133 228.063C263.088 228.083 263.043 228.091 262.998 228.111C262.823 228.177 263.261 228.055 263.078 228.088C262.656 228.167 262.246 228.229 261.822 228.249C261.721 228.252 261.622 228.26 261.521 228.262C261.504 228.264 261.379 228.253 261.366 228.265C261.366 228.265 261.63 228.262 261.467 228.262C261.145 228.267 260.823 228.272 260.501 228.277C260.08 228.289 259.659 228.302 259.243 228.366C257.952 228.556 256.874 229.143 256.003 230.103C255.228 230.953 254.74 232.043 254.281 233.09C253.991 233.749 254.392 234.636 255.072 234.87C255.806 235.115 256.536 234.785 256.847 234.08L256.839 234.09Z" fill="#E3C2F0"/>
<path d="M280.936 222.824C284.586 223.266 288.273 221.602 290.547 218.76C291.185 217.965 291.697 217.051 292.059 216.095C292.312 215.422 291.974 214.555 291.267 214.316C290.56 214.076 289.767 214.387 289.492 215.105C289.403 215.35 289.299 215.589 289.185 215.82C289.158 215.88 289.129 215.935 289.101 215.995C289.034 216.128 289.045 216.111 289.131 215.94C289.107 216.023 289.03 216.118 288.984 216.192C288.732 216.611 288.445 217.004 288.133 217.371C288.082 217.43 287.811 217.78 288.053 217.473C287.977 217.573 287.872 217.662 287.78 217.751C287.616 217.909 287.449 218.061 287.275 218.21C287.087 218.367 286.896 218.518 286.7 218.659C286.609 218.724 286.512 218.791 286.421 218.855C286.365 218.892 286.315 218.927 286.259 218.964C286.127 219.046 286.15 219.03 286.325 218.922C286.198 219.069 285.898 219.166 285.727 219.254C285.496 219.369 285.258 219.481 285.018 219.576C284.81 219.662 284.592 219.741 284.378 219.812C284.315 219.834 284.251 219.851 284.193 219.87C284.39 219.813 284.417 219.807 284.268 219.849C284.144 219.88 284.014 219.914 283.89 219.945C283.416 220.053 282.936 220.122 282.451 220.152C282.357 220.157 282.252 220.15 282.162 220.165C282.526 220.106 282.131 220.161 282.032 220.157C281.77 220.147 281.515 220.128 281.254 220.094C280.542 220.007 279.79 220.57 279.74 221.309C279.69 222.048 280.193 222.733 280.956 222.827L280.936 222.824Z" fill="#E3C2F0"/>
<path d="M295.094 206.78C299.015 207.209 303 205.311 305.311 202.146C305.949 201.272 306.462 200.279 306.796 199.245C307.015 198.564 306.733 197.714 306.004 197.466C305.331 197.236 304.468 197.523 304.229 198.256C304.099 198.651 303.951 199.035 303.77 199.411C303.737 199.486 303.651 199.59 303.643 199.666C303.643 199.666 303.774 199.433 303.694 199.565C303.67 199.606 303.646 199.647 303.625 199.692C303.513 199.887 303.399 200.076 303.27 200.259C303.039 200.603 302.783 200.934 302.512 201.241C302.48 201.279 302.447 201.312 302.416 201.35C302.317 201.466 302.493 201.267 302.498 201.265C302.425 201.316 302.362 201.404 302.295 201.47C302.136 201.625 301.971 201.782 301.8 201.925C301.496 202.186 301.178 202.43 300.851 202.654C300.76 202.719 300.666 202.778 300.573 202.838C300.35 202.985 300.792 202.71 300.558 202.845C300.376 202.949 300.197 203.047 300.011 203.142C299.639 203.331 299.261 203.494 298.869 203.638C298.781 203.671 298.686 203.701 298.597 203.729C298.551 203.749 298.507 203.757 298.459 203.772C298.223 203.847 298.505 203.752 298.539 203.748C298.339 203.771 298.136 203.855 297.938 203.895C297.489 203.993 297.029 204.053 296.568 204.083C296.509 204.086 296.166 204.099 296.363 204.096C296.56 204.093 296.218 204.094 296.157 204.092C295.902 204.085 295.647 204.066 295.395 204.039C294.681 203.959 293.929 204.511 293.881 205.254C293.833 205.998 294.334 206.691 295.097 206.773L295.094 206.78Z" fill="#E3C2F0"/>
<path d="M258.448 220.989C258.604 220.896 258.767 220.829 258.932 220.756C259.158 220.655 258.854 220.796 258.83 220.783C258.854 220.796 259.054 220.732 259.088 220.728C259.234 220.706 259.38 220.695 259.53 220.682C259.216 220.665 259.844 220.657 259.53 220.682C259.653 220.688 259.776 220.694 259.898 220.699C260.594 220.751 261.274 220.888 261.965 220.942C262.836 221.012 263.67 220.955 264.498 220.67C265.327 220.386 265.954 219.836 266.512 219.215C267.45 218.177 268.048 216.876 268.93 215.791C269.057 215.632 268.686 216.026 268.909 215.813C268.976 215.747 269.043 215.681 269.112 215.62C269.227 215.515 269.347 215.419 269.474 215.327L269.557 215.271C269.689 215.189 269.669 215.198 269.494 215.305C269.529 215.302 269.63 215.233 269.668 215.21C269.874 215.106 270.09 215.01 270.31 214.937C270.37 214.91 270.434 214.893 270.497 214.872C270.826 214.761 270.191 214.941 270.534 214.861C270.698 214.824 270.865 214.78 271.031 214.749C271.438 214.664 271.851 214.607 272.261 214.544C273.194 214.413 274.11 214.27 275.01 213.984C275.967 213.679 276.761 213.127 277.42 212.382C277.896 211.845 277.685 210.844 277.107 210.463C276.436 210.021 275.703 210.196 275.191 210.773C275.431 210.503 275.214 210.744 275.16 210.799C275.088 210.867 275.017 210.922 274.943 210.986C274.895 211.025 274.839 211.062 274.788 211.097C274.526 211.291 275.07 210.959 274.778 211.101C274.635 211.171 274.494 211.245 274.346 211.305C274.256 211.345 274.169 211.378 274.074 211.408C273.979 211.438 273.722 211.577 274.054 211.417C273.738 211.558 273.311 211.597 272.974 211.65C272.6 211.714 272.227 211.766 271.849 211.82C270.246 212.051 268.567 212.383 267.334 213.515C266.238 214.52 265.614 215.845 264.743 217.033C264.654 217.157 264.558 217.278 264.459 217.395C264.436 217.423 264.32 217.595 264.28 217.6L264.397 217.47C264.355 217.513 264.314 217.555 264.271 217.593C264.166 217.694 264.051 217.787 263.929 217.877C263.934 217.875 263.785 217.971 263.782 217.979C263.971 217.864 263.999 217.846 263.865 217.923C263.81 217.948 263.76 217.983 263.704 218.007C263.679 218.018 263.284 218.182 263.281 218.177L263.461 218.121C263.401 218.136 263.342 218.15 263.28 218.16C263.22 218.174 263.158 218.184 263.101 218.191C263.01 218.202 262.919 218.212 262.827 218.223L262.734 218.228C262.586 218.234 262.61 218.235 262.812 218.229C262.721 218.294 262.361 218.213 262.253 218.201C260.614 218.069 258.84 217.564 257.313 218.466C256.7 218.829 256.257 219.562 256.618 220.28C256.916 220.882 257.77 221.369 258.431 220.979L258.448 220.989Z" fill="#E3C2F0"/>
<path d="M330.593 239.571C330.656 239.483 330.721 239.4 330.794 239.319C330.833 239.272 330.874 239.23 330.913 239.182C331.009 239.061 330.827 239.286 330.823 239.276C330.801 239.214 331.302 238.841 331.36 238.797C331.444 238.729 331.525 238.669 331.614 238.611C331.665 238.577 331.718 238.547 331.761 238.51C331.883 238.419 331.645 238.586 331.637 238.583C331.69 238.607 332.198 238.291 332.284 238.253C332.479 238.166 332.679 238.102 332.879 238.025C333.116 237.937 332.61 238.096 332.919 238.007C333.053 237.971 333.19 237.941 333.326 237.91C333.542 237.868 333.755 237.834 333.977 237.807C334.222 237.777 334.499 237.804 334.734 237.753C334.734 237.753 334.464 237.753 334.616 237.758C334.665 237.76 334.712 237.757 334.761 237.76C334.889 237.763 335.016 237.766 335.146 237.775C335.387 237.788 335.626 237.814 335.863 237.847C336.1 237.88 336.337 237.926 336.573 237.971C336.809 238.016 336.32 237.903 336.653 237.99C336.777 238.025 336.901 238.06 337.02 238.098C337.473 238.239 337.913 238.417 338.338 238.631C338.617 238.772 338.195 238.538 338.401 238.663C338.492 238.719 338.587 238.773 338.678 238.829C338.896 238.967 339.108 239.119 339.312 239.281C339.403 239.35 339.49 239.425 339.578 239.5C339.616 239.532 339.649 239.565 339.687 239.597C339.831 239.719 339.51 239.416 339.637 239.552C339.806 239.73 339.978 239.9 340.134 240.09C340.291 240.279 340.442 240.471 340.583 240.667C340.648 240.758 340.71 240.857 340.775 240.949C340.844 241.051 340.807 241.115 340.733 240.883C340.753 240.941 340.804 241.002 340.832 241.05C341.071 241.48 341.275 241.925 341.444 242.385C341.48 242.495 341.515 242.6 341.552 242.71C341.615 242.893 341.485 242.451 341.533 242.641C341.543 242.69 341.558 242.738 341.571 242.78C341.636 243.034 341.689 243.288 341.731 243.546C341.766 243.771 341.795 243.999 341.817 244.224C341.827 244.34 341.829 244.454 341.836 244.565C341.85 244.757 341.838 244.311 341.837 244.498C341.836 244.577 341.837 244.661 341.836 244.74C341.824 245.226 341.763 245.711 341.666 246.194C341.616 246.433 341.736 245.946 341.645 246.282C341.615 246.391 341.581 246.503 341.544 246.609C341.471 246.822 341.39 247.033 341.302 247.241C341.259 247.332 341.216 247.424 341.172 247.515C341.069 247.742 341.198 247.438 341.215 247.436C341.21 247.438 341.124 247.597 341.132 247.587C341.023 247.774 340.907 247.958 340.781 248.135C340.663 248.302 340.541 248.458 340.406 248.615C340.378 248.645 340.206 248.8 340.207 248.842C340.208 248.763 340.405 248.639 340.271 248.771C340.222 248.823 340.168 248.877 340.117 248.924C339.801 249.227 339.462 249.504 339.104 249.753C339.021 249.809 338.932 249.866 338.849 249.921C338.641 250.062 339.103 249.778 338.824 249.932C338.63 250.037 338.443 250.144 338.245 250.238C338.047 250.332 337.844 250.417 337.644 250.493C337.553 250.534 337.454 250.566 337.359 250.596C337.304 250.621 337.249 250.633 337.192 250.652C337.01 250.715 337.24 250.625 337.294 250.625C337.102 250.626 336.856 250.735 336.663 250.773C336.452 250.813 336.239 250.847 336.027 250.869C335.844 250.89 335.602 250.86 335.425 250.908C335.654 250.842 335.654 250.909 335.526 250.905C335.47 250.9 335.411 250.902 335.357 250.902C335.241 250.9 335.129 250.889 335.016 250.879C334.816 250.86 334.62 250.839 334.422 250.8C334.325 250.783 334.228 250.754 334.13 250.738C333.955 250.707 334.39 250.821 334.223 250.757C334.158 250.731 334.085 250.716 334.016 250.698C333.626 250.576 333.265 250.412 332.899 250.225C332.868 250.209 332.839 250.198 332.808 250.182C332.769 250.163 332.738 250.147 332.705 250.125C332.464 250.003 333.043 250.318 332.854 250.204C332.564 250.038 332.279 249.869 332.004 249.684C331.625 249.426 331.254 249.145 330.908 248.841C330.856 248.792 330.802 248.75 330.75 248.701C330.7 248.657 330.523 248.489 330.721 248.678C330.919 248.866 330.74 248.693 330.696 248.647C330.644 248.598 330.59 248.543 330.54 248.487C330.341 248.281 330.149 248.065 329.972 247.843C329.795 247.621 329.614 247.364 329.449 247.112C329.326 246.932 329.647 247.451 329.497 247.193C329.462 247.13 329.423 247.069 329.389 247.006C329.307 246.862 329.233 246.709 329.166 246.558C329.105 246.422 329.045 246.286 328.995 246.146C328.963 246.076 328.944 246.006 328.918 245.933C328.892 245.861 328.806 245.574 328.878 245.831C328.951 246.087 328.872 245.816 328.862 245.754C328.841 245.666 328.821 245.579 328.8 245.492C328.768 245.326 328.739 245.152 328.719 244.986C328.699 244.82 328.688 244.633 328.676 244.458C328.664 244.228 328.67 244.809 328.677 244.487C328.682 244.389 328.679 244.288 328.688 244.187C328.711 243.792 328.767 243.406 328.848 243.021C328.908 242.723 328.785 243.229 328.854 242.994C328.883 242.897 328.907 242.802 328.936 242.705C329.002 242.489 329.075 242.275 329.156 242.065C329.242 241.84 329.337 241.623 329.438 241.403C329.487 241.297 329.541 241.189 329.592 241.088C329.619 241.028 329.649 240.96 329.686 240.908C329.628 240.994 329.593 241.076 329.67 240.939C329.955 240.445 330.266 239.97 330.601 239.507C331.02 238.924 330.907 237.993 330.288 237.588C329.669 237.183 328.822 237.276 328.372 237.898C327.099 239.656 326.046 241.744 325.948 243.955C325.872 245.729 326.367 247.369 327.327 248.851C328.421 250.555 330.085 251.838 331.871 252.748C335.469 254.585 339.808 253.306 342.43 250.411C345.547 246.978 345.098 241.35 342.027 238.026C340.437 236.301 338.248 235.269 335.925 235.014C333.601 234.759 331.311 235.23 329.548 236.653C329.106 237.011 328.707 237.436 328.369 237.893C327.941 238.469 328.071 239.41 328.683 239.813C329.294 240.215 330.139 240.116 330.599 239.502L330.593 239.571Z" fill="#E3C2F0"/>
<path d="M306.733 289.918C306.796 289.83 306.861 289.747 306.933 289.667C306.972 289.619 307.014 289.577 307.053 289.529C307.149 289.408 306.967 289.634 306.962 289.624C306.941 289.561 307.441 289.188 307.5 289.144C307.584 289.076 307.665 289.016 307.754 288.959C307.804 288.924 307.857 288.894 307.901 288.857C308.023 288.767 307.784 288.933 307.777 288.93C307.83 288.955 308.338 288.639 308.423 288.601C308.619 288.514 308.818 288.449 309.018 288.372C309.256 288.285 308.75 288.443 309.059 288.354C309.193 288.319 309.329 288.288 309.466 288.257C309.682 288.216 309.895 288.181 310.117 288.154C310.362 288.124 310.638 288.151 310.874 288.101C310.874 288.101 310.604 288.101 310.756 288.105C310.805 288.107 310.852 288.105 310.901 288.107C311.028 288.11 311.156 288.114 311.286 288.122C311.526 288.136 311.766 288.161 312.003 288.195C312.24 288.228 312.476 288.273 312.713 288.318C312.949 288.364 312.46 288.25 312.793 288.337C312.917 288.372 313.041 288.407 313.159 288.445C313.613 288.586 314.052 288.764 314.478 288.978C314.757 289.119 314.334 288.886 314.54 289.011C314.631 289.067 314.727 289.12 314.818 289.176C315.036 289.314 315.248 289.467 315.452 289.629C315.542 289.697 315.63 289.772 315.717 289.848C315.755 289.879 315.788 289.913 315.826 289.944C315.971 290.066 315.65 289.763 315.777 289.9C315.946 290.077 316.118 290.248 316.274 290.437C316.43 290.627 316.582 290.818 316.723 291.014C316.788 291.106 316.85 291.205 316.914 291.296C316.984 291.398 316.946 291.463 316.873 291.23C316.893 291.288 316.944 291.349 316.971 291.397C317.21 291.827 317.414 292.272 317.583 292.733C317.62 292.843 317.655 292.948 317.692 293.058C317.755 293.24 317.625 292.799 317.673 292.988C317.683 293.038 317.698 293.085 317.711 293.127C317.776 293.382 317.828 293.635 317.871 293.893C317.905 294.119 317.935 294.346 317.957 294.571C317.966 294.688 317.969 294.801 317.976 294.912C317.99 295.105 317.977 294.659 317.976 294.846C317.975 294.924 317.977 295.008 317.976 295.087C317.964 295.574 317.903 296.058 317.806 296.541C317.756 296.78 317.875 296.293 317.784 296.629C317.755 296.738 317.721 296.85 317.684 296.957C317.611 297.17 317.53 297.38 317.442 297.588C317.399 297.679 317.355 297.771 317.312 297.862C317.209 298.089 317.338 297.785 317.355 297.783C317.35 297.785 317.264 297.944 317.272 297.934C317.163 298.121 317.047 298.306 316.921 298.482C316.803 298.649 316.68 298.806 316.546 298.962C316.517 298.993 316.346 299.147 316.346 299.189C316.347 299.11 316.545 298.986 316.411 299.118C316.362 299.17 316.308 299.224 316.257 299.271C315.941 299.574 315.602 299.851 315.244 300.101C315.161 300.156 315.072 300.213 314.988 300.269C314.781 300.409 315.243 300.125 314.963 300.28C314.769 300.384 314.583 300.491 314.385 300.585C314.186 300.68 313.983 300.764 313.783 300.841C313.693 300.881 313.593 300.913 313.499 300.943C313.443 300.968 313.389 300.98 313.331 301C313.149 301.063 313.379 300.972 313.433 300.972C313.242 300.973 312.996 301.083 312.802 301.12C312.592 301.16 312.379 301.194 312.167 301.217C311.984 301.238 311.742 301.207 311.565 301.255C311.794 301.19 311.794 301.256 311.666 301.253C311.61 301.248 311.551 301.25 311.497 301.25C311.381 301.247 311.269 301.237 311.156 301.227C310.955 301.208 310.759 301.186 310.562 301.148C310.465 301.131 310.367 301.102 310.27 301.085C310.094 301.055 310.529 301.168 310.362 301.104C310.297 301.079 310.224 301.063 310.156 301.045C309.766 300.924 309.404 300.759 309.039 300.573C309.008 300.556 308.979 300.545 308.948 300.529C308.909 300.51 308.878 300.494 308.844 300.473C308.604 300.351 309.182 300.665 308.993 300.551C308.703 300.385 308.418 300.217 308.144 300.032C307.764 299.773 307.393 299.492 307.048 299.189C306.996 299.139 306.941 299.097 306.889 299.048C306.84 299.004 306.663 298.836 306.861 299.025C307.059 299.214 306.88 299.04 306.835 298.994C306.783 298.945 306.729 298.891 306.68 298.834C306.48 298.628 306.288 298.413 306.111 298.19C305.934 297.968 305.754 297.711 305.588 297.46C305.466 297.279 305.787 297.799 305.636 297.541C305.602 297.477 305.563 297.417 305.529 297.353C305.447 297.209 305.373 297.056 305.305 296.905C305.245 296.769 305.185 296.634 305.134 296.493C305.103 296.423 305.084 296.353 305.058 296.281C305.032 296.208 304.946 295.921 305.018 296.178C305.09 296.435 305.011 296.163 305.002 296.101C304.981 296.014 304.96 295.927 304.94 295.84C304.908 295.673 304.879 295.499 304.859 295.334C304.839 295.168 304.828 294.98 304.816 294.805C304.804 294.575 304.81 295.157 304.817 294.834C304.821 294.736 304.818 294.635 304.828 294.535C304.85 294.139 304.907 293.753 304.988 293.368C305.047 293.07 304.924 293.577 304.994 293.341C305.023 293.244 305.046 293.149 305.075 293.052C305.141 292.836 305.215 292.623 305.295 292.412C305.381 292.187 305.477 291.97 305.578 291.751C305.627 291.645 305.681 291.536 305.732 291.435C305.759 291.375 305.789 291.307 305.826 291.255C305.768 291.341 305.732 291.423 305.81 291.286C306.095 290.792 306.406 290.317 306.741 289.855C307.16 289.271 307.046 288.34 306.427 287.935C305.809 287.53 304.962 287.624 304.511 288.245C303.239 290.003 302.185 292.091 302.088 294.302C302.012 296.076 302.507 297.716 303.466 299.198C304.561 300.903 306.225 302.186 308.011 303.095C311.609 304.933 315.947 303.653 318.57 300.759C321.686 297.326 321.237 291.697 318.167 288.373C316.577 286.648 314.388 285.617 312.064 285.362C309.741 285.107 307.451 285.577 305.687 287C305.246 287.359 304.846 287.783 304.509 288.24C304.08 288.816 304.211 289.758 304.822 290.16C305.434 290.562 306.279 290.464 306.738 289.85L306.733 289.918Z" fill="#E3C2F0"/>
<path d="M258.057 279.058C258.12 278.97 258.185 278.887 258.258 278.806C258.297 278.759 258.338 278.716 258.377 278.669C258.473 278.548 258.291 278.773 258.287 278.763C258.265 278.701 258.765 278.327 258.824 278.283C258.908 278.216 258.989 278.156 259.078 278.098C259.129 278.064 259.182 278.034 259.225 277.997C259.347 277.906 259.109 278.073 259.101 278.07C259.154 278.094 259.662 277.778 259.748 277.74C259.943 277.653 260.143 277.588 260.343 277.512C260.58 277.424 260.074 277.583 260.383 277.494C260.517 277.458 260.654 277.427 260.79 277.397C261.006 277.355 261.219 277.321 261.441 277.294C261.686 277.263 261.962 277.291 262.198 277.24C262.198 277.24 261.928 277.24 262.08 277.245C262.129 277.247 262.176 277.244 262.225 277.246C262.353 277.25 262.48 277.253 262.61 277.262C262.85 277.275 263.09 277.301 263.327 277.334C263.564 277.367 263.801 277.413 264.037 277.458C264.273 277.503 263.784 277.39 264.117 277.476C264.241 277.512 264.365 277.547 264.484 277.584C264.937 277.726 265.376 277.904 265.802 278.118C266.081 278.259 265.659 278.025 265.865 278.15C265.955 278.206 266.051 278.26 266.142 278.316C266.36 278.454 266.572 278.606 266.776 278.768C266.866 278.836 266.954 278.912 267.042 278.987C267.08 279.019 267.113 279.052 267.151 279.083C267.295 279.206 266.974 278.903 267.101 279.039C267.27 279.217 267.442 279.387 267.598 279.577C267.754 279.766 267.906 279.958 268.047 280.154C268.112 280.245 268.174 280.344 268.239 280.436C268.308 280.537 268.27 280.602 268.197 280.37C268.217 280.427 268.268 280.489 268.296 280.537C268.535 280.966 268.739 281.411 268.907 281.872C268.944 281.982 268.979 282.087 269.016 282.197C269.079 282.38 268.949 281.938 268.997 282.127C269.007 282.177 269.022 282.225 269.035 282.267C269.1 282.521 269.153 282.775 269.195 283.033C269.23 283.258 269.259 283.486 269.281 283.711C269.29 283.827 269.293 283.94 269.3 284.052C269.314 284.244 269.302 283.798 269.301 283.985C269.3 284.064 269.301 284.148 269.3 284.226C269.288 284.713 269.227 285.198 269.13 285.681C269.08 285.92 269.2 285.433 269.109 285.768C269.079 285.878 269.045 285.989 269.008 286.096C268.935 286.309 268.854 286.52 268.766 286.727C268.723 286.819 268.68 286.91 268.636 287.002C268.533 287.229 268.662 286.924 268.679 286.923C268.674 286.925 268.588 287.083 268.596 287.074C268.487 287.261 268.371 287.445 268.245 287.621C268.127 287.788 268.005 287.945 267.87 288.101C267.841 288.132 267.67 288.287 267.671 288.329C267.672 288.25 267.869 288.126 267.735 288.258C267.686 288.31 267.632 288.364 267.581 288.411C267.265 288.714 266.926 288.991 266.568 289.24C266.485 289.295 266.396 289.353 266.313 289.408C266.105 289.549 266.567 289.265 266.288 289.419C266.094 289.524 265.907 289.631 265.709 289.725C265.51 289.819 265.308 289.903 265.108 289.98C265.017 290.02 264.918 290.053 264.823 290.083C264.768 290.107 264.713 290.12 264.656 290.139C264.473 290.202 264.704 290.112 264.758 290.112C264.566 290.113 264.32 290.222 264.127 290.26C263.916 290.299 263.703 290.334 263.491 290.356C263.308 290.377 263.066 290.346 262.889 290.395C263.118 290.329 263.118 290.396 262.99 290.392C262.934 290.387 262.875 290.389 262.821 290.389C262.705 290.386 262.593 290.376 262.48 290.366C262.279 290.347 262.084 290.326 261.886 290.287C261.789 290.27 261.692 290.241 261.594 290.224C261.419 290.194 261.853 290.308 261.687 290.243C261.621 290.218 261.548 290.203 261.48 290.185C261.09 290.063 260.729 289.899 260.363 289.712C260.332 289.696 260.303 289.685 260.272 289.669C260.233 289.65 260.202 289.633 260.169 289.612C259.928 289.49 260.507 289.805 260.318 289.69C260.027 289.524 259.742 289.356 259.468 289.171C259.089 288.912 258.718 288.632 258.372 288.328C258.32 288.279 258.266 288.237 258.214 288.188C258.164 288.144 257.987 287.976 258.185 288.164C258.383 288.353 258.204 288.18 258.159 288.134C258.108 288.084 258.053 288.03 258.004 287.974C257.805 287.768 257.613 287.552 257.436 287.33C257.259 287.107 257.078 286.85 256.912 286.599C256.79 286.419 257.111 286.938 256.96 286.68C256.926 286.617 256.887 286.556 256.853 286.493C256.771 286.349 256.697 286.195 256.63 286.045C256.569 285.909 256.509 285.773 256.459 285.633C256.427 285.563 256.408 285.493 256.382 285.42C256.356 285.348 256.27 285.061 256.342 285.317C256.415 285.574 256.336 285.302 256.326 285.24C256.305 285.153 256.285 285.066 256.264 284.979C256.232 284.813 256.203 284.639 256.183 284.473C256.163 284.307 256.152 284.12 256.14 283.944C256.128 283.715 256.134 284.296 256.141 283.974C256.146 283.876 256.143 283.775 256.152 283.674C256.174 283.279 256.231 282.893 256.312 282.507C256.372 282.21 256.249 282.716 256.318 282.481C256.347 282.383 256.371 282.288 256.4 282.191C256.466 281.975 256.539 281.762 256.62 281.552C256.706 281.327 256.801 281.11 256.902 280.89C256.951 280.784 257.005 280.676 257.056 280.575C257.083 280.515 257.113 280.447 257.15 280.395C257.092 280.48 257.057 280.563 257.134 280.426C257.419 279.932 257.73 279.456 258.065 278.994C258.484 278.41 258.37 277.48 257.752 277.075C257.133 276.669 256.286 276.763 255.836 277.385C254.563 279.143 253.51 281.231 253.412 283.442C253.336 285.216 253.831 286.856 254.79 288.338C255.885 290.042 257.549 291.325 259.335 292.235C262.933 294.072 267.271 292.793 269.894 289.898C273.011 286.465 272.562 280.837 269.491 277.513C267.901 275.787 265.712 274.756 263.389 274.501C261.065 274.246 258.775 274.717 257.011 276.139C256.57 276.498 256.171 276.923 255.833 277.38C255.405 277.956 255.535 278.897 256.147 279.3C256.758 279.702 257.603 279.603 258.063 278.989L258.057 279.058Z" fill="#E3C2F0"/>
<path d="M235.583 320.361C235.645 320.273 235.711 320.19 235.783 320.109C235.822 320.062 235.863 320.019 235.902 319.972C235.998 319.851 235.816 320.076 235.812 320.066C235.79 320.004 236.291 319.63 236.349 319.586C236.433 319.519 236.515 319.459 236.603 319.401C236.654 319.367 236.707 319.337 236.75 319.3C236.872 319.209 236.634 319.375 236.627 319.373C236.68 319.397 237.188 319.081 237.273 319.043C237.469 318.956 237.668 318.891 237.868 318.815C238.105 318.727 237.599 318.886 237.908 318.797C238.043 318.761 238.179 318.73 238.316 318.7C238.531 318.658 238.744 318.624 238.967 318.597C239.211 318.566 239.488 318.594 239.724 318.543C239.724 318.543 239.453 318.543 239.605 318.548C239.654 318.55 239.701 318.547 239.75 318.549C239.878 318.553 240.006 318.556 240.136 318.565C240.376 318.578 240.616 318.604 240.853 318.637C241.089 318.67 241.326 318.716 241.562 318.761C241.799 318.806 241.31 318.693 241.643 318.779C241.766 318.815 241.89 318.85 242.009 318.887C242.462 319.029 242.902 319.207 243.327 319.421C243.606 319.562 243.184 319.328 243.39 319.453C243.481 319.509 243.577 319.563 243.668 319.619C243.885 319.757 244.097 319.909 244.301 320.071C244.392 320.139 244.479 320.215 244.567 320.29C244.605 320.322 244.638 320.355 244.676 320.386C244.82 320.509 244.5 320.206 244.626 320.342C244.795 320.52 244.967 320.69 245.124 320.88C245.28 321.069 245.431 321.261 245.572 321.457C245.637 321.548 245.699 321.647 245.764 321.739C245.833 321.84 245.796 321.905 245.723 321.673C245.742 321.73 245.794 321.792 245.821 321.84C246.06 322.269 246.264 322.714 246.433 323.175C246.47 323.285 246.504 323.39 246.541 323.5C246.605 323.683 246.474 323.241 246.522 323.43C246.532 323.48 246.548 323.528 246.56 323.57C246.625 323.824 246.678 324.078 246.721 324.336C246.755 324.561 246.784 324.789 246.806 325.014C246.816 325.13 246.818 325.243 246.826 325.355C246.839 325.547 246.827 325.101 246.826 325.288C246.825 325.367 246.826 325.451 246.825 325.529C246.813 326.016 246.753 326.501 246.655 326.984C246.605 327.223 246.725 326.736 246.634 327.071C246.605 327.181 246.57 327.292 246.533 327.399C246.46 327.612 246.38 327.823 246.292 328.03C246.248 328.122 246.205 328.213 246.162 328.305C246.058 328.532 246.187 328.227 246.204 328.226C246.199 328.228 246.114 328.386 246.122 328.377C246.012 328.564 245.896 328.748 245.77 328.924C245.652 329.091 245.53 329.248 245.395 329.404C245.367 329.435 245.195 329.59 245.196 329.632C245.197 329.553 245.394 329.429 245.26 329.561C245.211 329.613 245.157 329.667 245.106 329.714C244.791 330.017 244.451 330.294 244.094 330.543C244.01 330.598 243.922 330.656 243.838 330.711C243.63 330.852 244.093 330.568 243.813 330.722C243.619 330.827 243.432 330.934 243.234 331.028C243.036 331.122 242.833 331.206 242.633 331.283C242.543 331.323 242.443 331.356 242.348 331.386C242.293 331.41 242.238 331.423 242.181 331.442C241.999 331.505 242.229 331.415 242.283 331.415C242.091 331.416 241.845 331.525 241.652 331.563C241.441 331.602 241.229 331.637 241.016 331.659C240.833 331.68 240.591 331.649 240.415 331.698C240.644 331.632 240.643 331.699 240.516 331.695C240.459 331.69 240.4 331.692 240.346 331.692C240.231 331.689 240.118 331.679 240.005 331.669C239.805 331.65 239.609 331.629 239.412 331.59C239.314 331.573 239.217 331.544 239.12 331.527C238.944 331.497 239.379 331.611 239.212 331.546C239.147 331.521 239.074 331.506 239.006 331.488C238.615 331.366 238.254 331.202 237.889 331.015C237.857 330.999 237.828 330.988 237.797 330.972C237.759 330.953 237.727 330.936 237.694 330.915C237.454 330.793 238.032 331.108 237.843 330.993C237.553 330.827 237.268 330.659 236.993 330.474C236.614 330.215 236.243 329.935 235.897 329.631C235.846 329.582 235.791 329.54 235.739 329.491C235.689 329.447 235.512 329.278 235.711 329.467C235.909 329.656 235.73 329.483 235.685 329.437C235.633 329.387 235.579 329.333 235.53 329.277C235.33 329.071 235.138 328.855 234.961 328.633C234.784 328.41 234.604 328.153 234.438 327.902C234.315 327.722 234.637 328.241 234.486 327.983C234.452 327.92 234.413 327.859 234.379 327.796C234.296 327.652 234.222 327.498 234.155 327.348C234.095 327.212 234.034 327.076 233.984 326.936C233.953 326.866 233.934 326.796 233.907 326.723C233.881 326.651 233.796 326.364 233.868 326.62C233.94 326.877 233.861 326.605 233.851 326.543C233.831 326.456 233.81 326.369 233.789 326.282C233.757 326.116 233.728 325.942 233.708 325.776C233.689 325.61 233.677 325.423 233.665 325.247C233.654 325.018 233.66 325.599 233.667 325.277C233.671 325.179 233.668 325.078 233.677 324.977C233.7 324.582 233.756 324.196 233.837 323.81C233.897 323.513 233.774 324.019 233.843 323.784C233.872 323.686 233.896 323.591 233.925 323.494C233.991 323.278 234.064 323.065 234.145 322.855C234.231 322.63 234.327 322.413 234.427 322.193C234.476 322.087 234.53 321.979 234.581 321.878C234.609 321.818 234.639 321.75 234.675 321.698C234.618 321.783 234.582 321.866 234.659 321.729C234.944 321.235 235.255 320.759 235.59 320.297C236.009 319.713 235.896 318.783 235.277 318.377C234.658 317.972 233.811 318.066 233.361 318.688C232.089 320.446 231.035 322.534 230.937 324.745C230.861 326.519 231.356 328.159 232.316 329.641C233.41 331.345 235.074 332.628 236.86 333.538C240.458 335.375 244.797 334.096 247.42 331.201C250.536 327.768 250.087 322.14 247.017 318.816C245.426 317.09 243.238 316.059 240.914 315.804C238.59 315.549 236.301 316.02 234.537 317.442C234.096 317.801 233.696 318.226 233.359 318.683C232.93 319.259 233.06 320.2 233.672 320.603C234.283 321.005 235.128 320.906 235.588 320.292L235.583 320.361Z" fill="#E3C2F0"/>
<path d="M182.207 298.945C182.27 298.857 182.335 298.774 182.408 298.693C182.446 298.646 182.488 298.603 182.527 298.556C182.623 298.435 182.441 298.66 182.436 298.65C182.415 298.588 182.915 298.214 182.974 298.17C183.058 298.103 183.139 298.043 183.228 297.985C183.279 297.951 183.331 297.921 183.375 297.884C183.497 297.793 183.258 297.959 183.251 297.957C183.304 297.981 183.812 297.665 183.897 297.627C184.093 297.54 184.293 297.475 184.493 297.399C184.73 297.311 184.224 297.47 184.533 297.381C184.667 297.345 184.804 297.314 184.94 297.284C185.156 297.242 185.369 297.208 185.591 297.181C185.836 297.15 186.112 297.178 186.348 297.127C186.348 297.127 186.078 297.127 186.23 297.132C186.279 297.134 186.326 297.131 186.375 297.133C186.503 297.137 186.63 297.14 186.76 297.149C187 297.162 187.24 297.188 187.477 297.221C187.714 297.254 187.95 297.3 188.187 297.345C188.423 297.39 187.934 297.277 188.267 297.363C188.391 297.399 188.515 297.434 188.633 297.471C189.087 297.613 189.526 297.791 189.952 298.005C190.231 298.146 189.809 297.912 190.014 298.037C190.105 298.093 190.201 298.147 190.292 298.203C190.51 298.341 190.722 298.493 190.926 298.655C191.016 298.723 191.104 298.799 191.192 298.874C191.23 298.906 191.262 298.939 191.3 298.97C191.445 299.093 191.124 298.79 191.251 298.926C191.42 299.104 191.592 299.274 191.748 299.464C191.904 299.653 192.056 299.845 192.197 300.041C192.262 300.132 192.324 300.231 192.388 300.323C192.458 300.424 192.42 300.489 192.347 300.257C192.367 300.314 192.418 300.376 192.445 300.424C192.684 300.853 192.888 301.298 193.057 301.759C193.094 301.869 193.129 301.974 193.166 302.084C193.229 302.267 193.099 301.825 193.147 302.014C193.157 302.064 193.172 302.112 193.185 302.154C193.25 302.408 193.303 302.662 193.345 302.92C193.379 303.145 193.409 303.373 193.431 303.598C193.44 303.714 193.443 303.827 193.45 303.939C193.464 304.131 193.451 303.685 193.451 303.872C193.449 303.951 193.451 304.035 193.45 304.113C193.438 304.6 193.377 305.085 193.28 305.568C193.23 305.807 193.35 305.32 193.259 305.655C193.229 305.765 193.195 305.876 193.158 305.983C193.085 306.196 193.004 306.407 192.916 306.614C192.873 306.706 192.829 306.797 192.786 306.889C192.683 307.116 192.812 306.811 192.829 306.81C192.824 306.812 192.738 306.97 192.746 306.961C192.637 307.148 192.521 307.332 192.395 307.508C192.277 307.675 192.154 307.832 192.02 307.988C191.991 308.019 191.82 308.174 191.82 308.216C191.821 308.137 192.019 308.013 191.885 308.145C191.836 308.197 191.782 308.251 191.731 308.298C191.415 308.601 191.076 308.878 190.718 309.127C190.635 309.182 190.546 309.24 190.463 309.295C190.255 309.436 190.717 309.152 190.437 309.306C190.244 309.411 190.057 309.518 189.859 309.612C189.66 309.706 189.457 309.79 189.257 309.867C189.167 309.907 189.067 309.94 188.973 309.97C188.918 309.994 188.863 310.007 188.806 310.026C188.623 310.089 188.853 309.999 188.907 309.999C188.716 310 188.47 310.109 188.277 310.147C188.066 310.186 187.853 310.221 187.641 310.243C187.458 310.264 187.216 310.233 187.039 310.282C187.268 310.216 187.268 310.283 187.14 310.279C187.084 310.274 187.025 310.276 186.971 310.276C186.855 310.273 186.743 310.263 186.63 310.253C186.429 310.234 186.234 310.213 186.036 310.174C185.939 310.157 185.842 310.128 185.744 310.111C185.568 310.081 186.003 310.195 185.837 310.13C185.771 310.105 185.698 310.09 185.63 310.072C185.24 309.95 184.878 309.786 184.513 309.599C184.482 309.583 184.453 309.572 184.422 309.556C184.383 309.537 184.352 309.52 184.318 309.499C184.078 309.377 184.657 309.692 184.467 309.577C184.177 309.411 183.892 309.243 183.618 309.058C183.238 308.799 182.867 308.519 182.522 308.215C182.47 308.166 182.415 308.124 182.364 308.075C182.314 308.031 182.137 307.862 182.335 308.051C182.533 308.24 182.354 308.067 182.309 308.021C182.257 307.971 182.203 307.917 182.154 307.861C181.954 307.655 181.762 307.439 181.585 307.217C181.408 306.994 181.228 306.737 181.062 306.486C180.94 306.306 181.261 306.825 181.11 306.567C181.076 306.504 181.037 306.443 181.003 306.38C180.921 306.236 180.847 306.082 180.78 305.932C180.719 305.796 180.659 305.66 180.609 305.52C180.577 305.45 180.558 305.38 180.532 305.307C180.506 305.235 180.42 304.948 180.492 305.204C180.564 305.461 180.486 305.189 180.476 305.127C180.455 305.04 180.435 304.953 180.414 304.866C180.382 304.7 180.353 304.526 180.333 304.36C180.313 304.194 180.302 304.007 180.29 303.831C180.278 303.602 180.284 304.183 180.291 303.861C180.295 303.763 180.293 303.662 180.302 303.561C180.324 303.166 180.381 302.779 180.462 302.394C180.522 302.097 180.398 302.603 180.468 302.367C180.497 302.27 180.521 302.175 180.549 302.078C180.616 301.862 180.689 301.649 180.769 301.439C180.856 301.214 180.951 300.997 181.052 300.777C181.101 300.671 181.155 300.563 181.206 300.462C181.233 300.402 181.263 300.334 181.3 300.282C181.242 300.367 181.207 300.45 181.284 300.313C181.569 299.819 181.88 299.343 182.215 298.881C182.634 298.297 182.52 297.367 181.902 296.961C181.283 296.556 180.436 296.65 179.985 297.272C178.713 299.03 177.66 301.118 177.562 303.329C177.486 305.103 177.981 306.743 178.94 308.225C180.035 309.929 181.699 311.212 183.485 312.122C187.083 313.959 191.421 312.68 194.044 309.785C197.16 306.352 196.711 300.724 193.641 297.4C192.051 295.674 189.862 294.643 187.538 294.388C185.215 294.133 182.925 294.604 181.161 296.026C180.72 296.385 180.32 296.81 179.983 297.267C179.555 297.843 179.685 298.784 180.296 299.187C180.908 299.589 181.753 299.49 182.213 298.876L182.207 298.945Z" fill="#E3C2F0"/>
</g>
<g clip-path="url(#clip2_3028_927)">
<path d="M174.803 205.167C163.052 188.411 147.924 173.714 129.901 163.851C121.057 159.011 111.511 155.368 101.615 153.404C91.9167 151.485 81.2486 150.737 71.987 154.855C67.6222 156.8 63.8846 159.967 61.3443 164.028C58.804 168.089 57.575 172.903 57.2963 177.667C57.0175 182.431 57.7334 187.455 59.2728 192.06C61.0592 197.369 64.0937 202.469 69.0476 205.357C73.501 207.948 78.8921 208.639 83.9727 208.55C89.085 208.455 94.3366 207.422 98.8724 204.977C103.098 202.69 106.582 199.041 108.058 194.41C109.464 190.027 108.964 185.117 106.968 181.006C102.851 172.53 92.2334 169.438 83.865 173.309C79.9246 175.133 76.4468 178.827 75.9843 183.293C75.5219 187.759 78.778 191.281 83.1428 191.237C85.1003 191.218 86.8614 190.305 87.856 188.601C88.7302 187.106 86.3926 185.782 85.5184 187.277C84.6949 188.684 82.9527 188.779 81.5337 188.285C79.9183 187.721 78.8287 186.454 78.6387 184.743C78.1889 180.784 81.6287 177.382 84.8976 175.786C88.4515 174.056 92.6959 173.892 96.4335 175.108C100.279 176.356 103.294 179.232 104.891 182.919C106.487 186.606 106.639 191.04 105.074 194.772C103.339 198.915 99.6833 201.835 95.6289 203.571C91.5746 205.307 86.7157 205.984 82.1672 205.87C77.6187 205.756 72.5698 204.888 68.7815 201.987C64.6955 198.851 62.4402 193.859 61.1542 189C60.033 184.775 59.6402 180.353 60.128 176.001C60.6158 171.649 61.9778 167.728 64.4104 164.282C66.843 160.835 70.5616 158.194 74.5716 156.705C83.1174 153.518 92.7022 154.348 101.457 156.135C110.212 157.921 118.84 161.089 126.835 165.282C143.16 173.841 157.16 186.473 168.405 200.999C169.805 202.804 171.148 204.654 172.459 206.523C173.447 207.929 175.791 206.612 174.797 205.199L174.803 205.167Z" fill="#E3C2F0"/>
<path d="M177.678 166.575C161.707 155.178 143.646 141.881 140.073 121.191C138.471 111.872 141.024 102.554 145.122 94.2106C148.999 86.3173 154.625 78.5127 162.784 74.661C178.596 67.1985 194.567 80.5209 201.282 94.1156C205.279 102.205 206.958 111.904 203.283 120.431C201.529 124.517 198.653 128.217 194.757 130.453C191.38 132.398 187.313 133.208 183.455 132.657C179.337 132.075 175.638 129.895 173.3 126.43C170.83 122.781 169.86 118.328 169.62 113.982C169.493 111.689 169.544 109.383 169.74 107.083C169.936 104.784 170.348 102.167 171.64 100.102C174.06 96.2378 179.35 96.3835 182.568 99.1329C184.393 100.691 185.609 102.807 186.356 105.062C186.895 106.703 189.499 106.025 188.954 104.378C187.357 99.551 183.784 95.1546 178.476 94.4957C176.366 94.236 174.124 94.5907 172.293 95.7247C170.082 97.0994 168.714 99.3673 167.953 101.813C167.193 104.258 166.984 107.001 166.889 109.605C166.794 112.208 166.889 114.571 167.219 117.029C167.852 121.831 169.512 126.633 172.907 130.193C179.173 136.762 190.018 137.016 197.316 131.999C205.672 126.253 208.991 115.648 207.737 105.892C206.527 96.4849 201.687 87.3879 195.086 80.6476C189.125 74.5597 181.067 69.8972 172.356 69.8275C162.537 69.7515 154.321 75.8013 148.6 83.3336C142.582 91.2649 138.205 101.217 137.109 111.144C136 121.21 139.256 131.207 144.679 139.607C150.97 149.356 159.946 156.876 169.182 163.705C171.552 165.453 173.953 167.17 176.347 168.88C177.754 169.881 179.071 167.537 177.671 166.543L177.678 166.575Z" fill="#E3C2F0"/>
</g>
</g>
<defs>
<clipPath id="clip0_3028_927">
<rect width="330.532" height="304.944" fill="white" transform="translate(54 55)"/>
</clipPath>
<clipPath id="clip1_3028_927">
<rect width="295.557" height="213.204" fill="white" transform="translate(105.699 200.243) rotate(-23.978)"/>
</clipPath>
<clipPath id="clip2_3028_927">
<rect width="110.885" height="177.871" fill="white" transform="translate(122.107 259.229) rotate(-135)"/>
</clipPath>
</defs>
</svg>
