<svg preserveAspectRatio="none" width="1920" height="127" viewBox="0 0 1920 127" fill="none" xmlns="http://www.w3.org/2000/svg">
<g clip-path="url(#clip0_3035_3246)">
<path d="M-164 51.9359C-44.424 11.0473 133.568 -3.97622 288.041 13.7791C340.939 19.8593 390.471 29.3964 440.959 37.8972C461.492 41.3541 483.178 44.711 505.629 44.1972C555.328 43.0583 587.071 24.4865 627.653 13.6192C703.813 -6.77939 808.949 0.970722 896.843 12.9342C984.736 24.9004 1076.49 40.5234 1167.89 33.1587C1240.44 27.3097 1305.5 7.24788 1379.45 9.483C1452.7 11.6981 1509.94 35.2682 1581.89 40.9173C1645.29 45.8957 1709.46 36.3415 1773.3 32.2281C1880.54 25.3172 1994.46 34.4204 2085 57.1369V105H-164V51.9359Z" fill="white"/>
<path d="M-163 76.9359C-43.424 36.0473 134.568 21.0238 289.041 38.7791C341.939 44.8593 391.471 54.3964 441.959 62.8972C462.492 66.3541 484.178 69.711 506.629 69.1972C556.328 68.0583 588.071 49.4865 628.653 38.6192C704.813 18.2206 809.949 25.9707 897.843 37.9342C985.736 49.9004 1077.49 65.5234 1168.89 58.1587C1241.44 52.3097 1306.5 32.2479 1380.45 34.483C1453.7 36.6981 1510.94 60.2682 1582.89 65.9173C1646.29 70.8957 1710.46 61.3415 1774.3 57.2281C1881.54 50.3172 1995.46 59.4204 2086 82.1369V130H-163V76.9359Z" fill="#BCE1F0"/>
</g>
<defs>
<clipPath id="clip0_3035_3246">
<rect width="1920" height="127" fill="white"/>
</clipPath>
</defs>
</svg>
