<svg preserveAspectRatio="none" width="1920" height="127" viewBox="0 0 1920 127" fill="none" xmlns="http://www.w3.org/2000/svg">
<g clip-path="url(#clip0_3035_3245)">
<path d="M-164 51.9359C-44.424 11.0473 133.568 -3.97622 288.041 13.7791C340.939 19.8593 390.471 29.3964 440.959 37.8972C461.492 41.3541 483.178 44.711 505.629 44.1972C555.328 43.0583 587.071 24.4865 627.653 13.6192C703.813 -6.77939 808.949 0.970722 896.843 12.9342C984.736 24.9004 1076.49 40.5234 1167.89 33.1587C1240.44 27.3097 1305.5 7.24788 1379.45 9.483C1452.7 11.6981 1509.94 35.2682 1581.89 40.9173C1645.29 45.8957 1709.46 36.3415 1773.3 32.2281C1880.54 25.3172 1994.46 34.4204 2085 57.1369V105H-164V51.9359Z" fill="white"/>
<path d="M-164 79.9359C-44.424 39.0473 133.568 24.0238 288.041 41.7791C340.939 47.8593 390.471 57.3964 440.959 65.8972C461.492 69.3541 483.178 72.711 505.629 72.1972C555.328 71.0583 587.071 52.4865 627.653 41.6192C703.813 21.2206 808.949 28.9707 896.843 40.9342C984.736 52.9004 1076.49 68.5234 1167.89 61.1587C1240.44 55.3097 1305.5 35.2479 1379.45 37.483C1452.7 39.6981 1509.94 63.2682 1581.89 68.9173C1645.29 73.8957 1709.46 64.3415 1773.3 60.2281C1880.54 53.3172 1994.46 62.4204 2085 85.1369V133H-164V79.9359Z" fill="#F4E8F9"/>
</g>
<defs>
<clipPath id="clip0_3035_3245">
<rect width="1920" height="127" fill="white"/>
</clipPath>
</defs>
</svg>
