<svg preserveAspectRatio="none" width="1920" height="127" viewBox="0 0 1920 127" fill="none" xmlns="http://www.w3.org/2000/svg">
<g clip-path="url(#clip0_3035_3249)">
<path d="M2084 50.9359C1964.42 10.0473 1786.43 -4.97622 1631.96 12.7791C1579.06 18.8593 1529.53 28.3964 1479.04 36.8972C1458.51 40.3541 1436.82 43.711 1414.37 43.1972C1364.67 42.0583 1332.93 23.4865 1292.35 12.6192C1216.19 -7.77939 1111.05 -0.0292782 1023.16 11.9342C935.264 23.9004 843.505 39.5234 752.11 32.1587C679.558 26.3097 614.503 6.24788 540.548 8.483C467.299 10.6981 410.058 34.2682 338.112 39.9173C274.708 44.8957 210.54 35.3415 146.696 31.2281C39.4601 24.3172 -74.4614 33.4204 -165 56.1369V104H2084V50.9359Z" fill="white"/>
<path d="M2084 77.9359C1964.42 37.0473 1786.43 22.0238 1631.96 39.7791C1579.06 45.8593 1529.53 55.3964 1479.04 63.8972C1458.51 67.3541 1436.82 70.711 1414.37 70.1972C1364.67 69.0583 1332.93 50.4865 1292.35 39.6192C1216.19 19.2206 1111.05 26.9707 1023.16 38.9342C935.264 50.9004 843.505 66.5234 752.11 59.1587C679.558 53.3097 614.503 33.2479 540.548 35.483C467.299 37.6981 410.058 61.2682 338.112 66.9173C274.708 71.8957 210.54 62.3415 146.696 58.2281C39.4601 51.3172 -74.4614 60.4204 -165 83.1369V131H2084V77.9359Z" fill="#F4E8F9"/>
</g>
<defs>
<clipPath id="clip0_3035_3249">
<rect width="1920" height="127" fill="white" transform="matrix(-1 0 0 1 1920 0)"/>
</clipPath>
</defs>
</svg>
