<svg preserveAspectRatio="none" width="1920" height="123" viewBox="0 0 1920 123" fill="none" xmlns="http://www.w3.org/2000/svg">
<g clip-path="url(#clip0_3035_3244)">
<path d="M-1 24.9994C101.19 5.73397 253.302 -1.34464 385.315 7.02112C430.522 9.88592 472.852 14.3795 515.999 18.3848C533.547 20.0136 552.079 21.5953 571.266 21.3532C613.739 20.8166 640.867 12.0661 675.548 6.9458C740.634 -2.66541 830.485 0.986205 905.598 6.623C980.712 12.2611 1059.13 19.6222 1137.24 16.1522C1199.24 13.3963 1254.84 3.94381 1318.04 4.99693C1380.64 6.04063 1429.55 17.1461 1491.04 19.8078C1545.22 22.1535 1600.06 17.6518 1654.62 15.7137C1746.27 12.4575 1843.63 16.7466 1921 27.45V125H-1V24.9994Z" fill="#BCE1F0"/>
</g>
<defs>
<clipPath id="clip0_3035_3244">
<rect width="1920" height="123" fill="white"/>
</clipPath>
</defs>
</svg>
