<svg width="490" height="360" viewBox="0 0 490 360" fill="none" xmlns="http://www.w3.org/2000/svg">
<g clip-path="url(#clip0_3028_973)">
<g clip-path="url(#clip1_3028_973)">
<path d="M158.07 145.29C161.406 143.753 164.43 141.464 167.357 139.275C171.631 136.069 175.754 132.654 179.83 129.19C189.171 121.248 198.237 112.99 207.25 104.692C213.89 98.5798 220.365 92.2246 227.317 86.4647C234.269 80.7048 242.427 75.1671 251.682 73.641C259.624 72.33 268.619 73.298 275.304 78.0644C282.409 83.1321 288.547 89.9843 293.274 97.2902C296.782 102.715 299.496 108.549 302.167 114.421C309.559 130.66 317.214 146.905 322.323 164.044C323.688 168.621 324.744 173.217 325.317 177.954C325.333 178.104 325.364 178.258 325.38 178.408C325.4 178.542 325.406 178.679 325.417 178.808C325.485 179.392 325.409 178.3 325.424 178.88C325.447 179.925 325.429 180.956 325.334 181.995C325.267 182.708 325.162 183.415 325.041 184.117C325.007 184.306 324.971 184.488 324.936 184.677C324.866 185.049 325.035 184.227 324.951 184.609C324.924 184.724 324.904 184.844 324.877 184.959C324.775 185.395 324.674 185.831 324.557 186.263C324.021 188.295 323.292 190.279 322.433 192.195C322.307 192.476 322.182 192.756 322.048 193.031C321.985 193.153 321.931 193.281 321.868 193.403C321.703 193.742 321.995 193.166 321.78 193.581C321.477 194.175 321.173 194.761 320.846 195.345C320.151 196.593 319.413 197.814 318.618 199.003C314.396 205.382 309.271 210.619 303.333 215.626C294.56 223.023 284.724 229.098 274.575 234.42C267.763 237.994 260.774 241.233 253.69 244.221C246.606 247.209 239.131 250.284 231.749 252.625C224.75 254.846 217.447 256.355 210.238 257.685C197.107 260.099 183.558 261.57 170.214 260.31C164.315 259.749 158.674 258.335 152.991 256.754C148.33 255.461 143.614 254.224 139.091 252.495C132.82 250.101 126.983 246.715 121.834 242.402C120.243 241.07 118.742 239.64 117.308 238.145C115.875 236.65 114.535 234.903 113.016 233.418C110.112 230.574 106.634 228.423 102.931 226.783C102.203 226.464 101.463 226.162 100.714 225.884C100.358 225.752 99.9879 225.58 99.6217 225.501C99.3019 225.434 99.424 225.497 99.4717 225.517C98.836 225.296 98.2772 224.986 97.6205 224.806C94.5843 224.008 91.3386 224.192 88.316 225.008C87.9222 225.117 86.0214 225.925 85.8767 225.824C85.6983 225.699 86.3421 225.78 86.1725 225.807C86.0674 225.829 85.9579 225.792 85.8542 225.784C85.6831 225.768 86.3635 225.922 86.0351 225.813C85.9565 225.785 85.607 225.645 85.9285 225.791C86.25 225.937 85.4184 225.326 85.8752 225.78C85.7824 225.682 85.6911 225.592 85.5983 225.494C85.3087 225.181 85.6561 225.635 85.5308 225.413C85.4407 225.256 85.359 225.105 85.2829 224.946C85.2462 224.873 85.0318 224.319 85.156 224.68C84.9922 224.196 84.8901 223.692 84.8019 223.185C84.5671 221.738 84.6155 220.249 84.713 218.786C84.8268 217.116 85.3637 215.302 85.2392 213.644C85.232 213.573 85.2234 213.494 85.2233 213.421C85.2797 214.168 85.2306 213.566 85.2273 213.333C85.2162 212.811 85.2121 212.287 85.2361 211.757C85.3995 207.344 86.5156 203.168 88.2937 199.091C91.8541 190.922 98.1336 184.613 104.797 178.905C114.102 170.926 124.202 163.851 134.716 157.559C142.27 153.039 150.071 148.944 158.077 145.288C160.167 144.333 158.558 141.146 156.461 142.103C141.363 148.997 126.994 157.469 113.65 167.331C108.099 171.436 102.703 175.773 97.6738 180.509C89.0499 188.641 82.0491 199.453 81.6658 211.636C81.6356 212.494 81.8568 213.514 81.7424 214.353C81.3205 217.383 80.7913 220.674 81.3037 223.886C81.7036 226.363 83.4467 229.96 86.5623 229.314C87.0598 229.213 87.5542 228.952 88.0403 228.796C89.08 228.454 90.1521 228.2 91.2342 228.032C92.6835 227.803 94.1362 227.808 95.5907 228.001C96.1911 228.084 96.925 228.321 97.6533 228.567C98.2638 228.771 96.8787 228.309 97.9509 228.703C98.7242 228.991 99.5086 229.226 100.276 229.522C103.889 230.932 107.403 232.938 110.206 235.642C111.784 237.166 113.126 238.927 114.643 240.507C116.159 242.087 117.67 243.494 119.285 244.872C124.607 249.426 130.693 252.995 137.205 255.574C141.71 257.357 146.418 258.589 151.068 259.898C157.027 261.584 162.987 263.13 169.165 263.773C176.2 264.504 183.29 264.386 190.336 263.876C202.205 263.008 213.998 260.902 225.534 257.995C235.641 255.451 245.346 251.574 254.947 247.544C268.146 242.005 281.078 235.623 293.022 227.708C301.041 222.387 308.705 216.396 315.152 209.223C319.444 204.447 323.197 199.204 325.83 193.336C327.413 189.809 328.55 186.022 328.921 182.164C329.081 180.507 329.034 178.869 328.831 177.22C328.238 172.246 327.088 167.436 325.634 162.637C323.062 154.158 319.858 145.873 316.47 137.691C313.083 129.509 308.989 120.755 305.155 112.314C302.359 106.154 299.455 100.067 295.674 94.4427C290.681 87.0157 284.381 79.9412 276.971 74.8407C269.96 70.0164 261.008 68.9377 252.722 69.8812C238.322 71.51 226.868 81.7313 216.638 91.1508C208.467 98.6734 200.335 106.246 192.08 113.677C183.347 121.525 174.554 129.399 165.16 136.463C162.324 138.597 159.763 140.574 156.465 142.088C154.377 143.05 155.986 146.237 158.081 145.273L158.07 145.29Z" fill="#78BAD5"/>
<path d="M96.3836 195.425C99.6024 192.805 103.273 191.012 107.485 190.989C111.378 190.972 115.131 191.997 118.556 193.81C121.98 195.623 124.975 197.872 128.096 200.024C131.216 202.175 134.668 204.266 138.299 205.768C145.671 208.806 153.794 210.009 161.722 210.326C169.82 210.645 178.161 210.157 186.097 208.454C195.494 206.44 204.403 202.666 213.248 199.008C215.469 198.091 217.691 197.174 219.925 196.284C221.371 195.714 222.852 195.21 224.284 194.606C224.834 194.371 225.376 194.093 225.921 193.83C233.001 190.427 239.963 186.692 246.572 182.444C250.45 179.945 254.303 177.284 257.657 174.105C260.147 171.742 262.793 168.815 263.317 165.284C263.747 162.398 262.113 159.88 259.762 158.36C255.061 155.326 249.682 153.189 244.302 151.736C238.923 150.283 233.572 149.618 228.033 149.684C220.966 149.768 213.928 150.75 207.027 152.229C196.128 154.57 185.503 158.159 175.193 162.362C160.375 168.404 146.14 175.815 132.365 183.942C128.208 186.395 124.087 188.921 120.006 191.497C119.191 192.012 118.751 192.976 119.216 193.902C119.619 194.702 120.801 195.206 121.623 194.689C136.258 185.441 151.379 176.896 167.151 169.727C178.192 164.706 189.11 160.51 200.734 157.426C204.991 156.293 209.306 155.338 213.653 154.61C215.452 154.311 217.253 154.055 219.063 153.842C219.904 153.744 220.747 153.653 221.585 153.578C221.965 153.545 222.352 153.51 222.733 153.484C222.906 153.471 223.071 153.459 223.244 153.446C223.345 153.44 223.446 153.434 223.545 153.421C224.048 153.385 223.242 153.439 223.566 153.417C227.887 153.175 232.23 153.148 236.523 153.742C242.138 154.521 247.665 156.235 252.803 158.619C253.85 159.106 254.67 159.516 255.831 160.17C256.473 160.528 257.111 160.901 257.731 161.3C257.993 161.473 258.243 161.663 258.504 161.836C258.806 162.03 258.21 161.539 258.459 161.794C258.505 161.843 258.556 161.877 258.602 161.925C258.731 162.06 258.866 162.185 258.99 162.328C259.086 162.44 259.176 162.56 259.271 162.672C259.367 162.783 259.478 163.045 259.207 162.568C259.263 162.666 259.332 162.754 259.381 162.853C259.442 162.972 259.509 163.09 259.571 163.216C259.662 163.409 259.745 163.895 259.621 163.279C259.677 163.559 259.754 163.827 259.81 164.107C259.91 164.634 259.85 163.764 259.816 164.172C259.807 164.305 259.811 164.435 259.802 164.568C259.791 164.731 259.758 164.89 259.745 165.046C259.714 165.468 259.872 164.627 259.718 165.161C259.627 165.471 259.535 165.774 259.421 166.074C259.363 166.217 259.303 166.353 259.244 166.496C259.194 166.608 259.021 166.905 259.28 166.423C259.216 166.538 259.166 166.65 259.102 166.765C258.734 167.437 258.301 168.071 257.84 168.675C257.702 168.856 257.562 169.03 257.422 169.204C257.346 169.3 256.919 169.78 257.27 169.388C256.949 169.752 256.621 170.11 256.277 170.464C255.576 171.182 254.84 171.87 254.091 172.532C252.457 173.971 250.721 175.307 248.949 176.57C248.49 176.896 248.031 177.222 247.563 177.543C247.525 177.572 247.096 177.863 247.436 177.634C247.327 177.707 247.224 177.779 247.115 177.852C246.832 178.041 246.557 178.228 246.274 178.416C245.29 179.068 244.294 179.699 243.297 180.324C241.309 181.565 239.282 182.756 237.24 183.913C233.85 185.832 230.396 187.654 226.91 189.388C225.413 190.136 223.91 190.965 222.346 191.56C213.476 194.917 204.858 198.937 195.872 202.005C191.464 203.511 186.963 204.773 182.363 205.545C178.588 206.179 174.754 206.555 170.931 206.732C163.104 207.102 155.093 206.736 147.446 204.934C143.869 204.092 140.31 202.948 137.015 201.306C133.72 199.663 130.505 197.371 127.396 195.203C124.286 193.035 121.04 190.879 117.479 189.4C113.656 187.814 109.427 187.141 105.305 187.576C101.184 188.01 97.2824 190.105 94.0005 192.775C92.2162 194.23 94.5936 196.889 96.3794 195.441L96.3836 195.425Z" fill="#78BAD5"/>
<path d="M88.0649 227.631C88.1197 227.686 88.4318 228.038 88.2743 227.837C88.1168 227.635 88.3237 227.972 88.3659 228.037C88.4659 228.206 88.3039 227.911 88.3207 227.886C88.3095 227.902 88.3703 228.094 88.3788 228.136C88.3915 228.199 88.3973 228.264 88.4101 228.327C88.4639 228.556 88.4191 228.011 88.4085 228.247C88.3965 228.512 88.4408 228.874 88.3321 229.129C88.353 229.089 88.4321 228.759 88.3306 229.086C88.3083 229.156 88.2916 229.218 88.2693 229.288C88.2206 229.444 88.1635 229.594 88.1064 229.744C88.0813 229.8 88.0437 229.939 87.9962 229.992C88.0088 229.982 88.1441 229.714 88.0422 229.895C87.9626 230.042 87.8831 230.19 87.8035 230.337C87.6373 230.633 87.4698 230.922 87.2952 231.213C86.9223 231.857 86.5607 232.52 86.2931 233.216C85.7191 234.739 85.821 236.358 86.279 237.897C86.4868 238.598 86.7338 239.277 86.9346 239.98C87.0307 240.31 87.1044 240.638 87.1655 240.975C87.201 241.15 87.2224 241.328 87.2509 241.504C87.2665 241.581 87.2667 241.654 87.2753 241.732C87.2824 241.767 87.314 242.104 87.2896 241.875C87.2709 241.639 87.2927 241.962 87.297 242.02C87.2986 242.099 87.2988 242.172 87.3074 242.251C87.3091 242.403 87.3109 242.556 87.3056 242.71C87.2968 243.098 87.2724 243.482 87.2397 243.86C87.2054 244.195 87.1627 244.525 87.106 244.857C87.0783 245.008 87.0521 245.166 87.0244 245.318C87.0105 245.393 86.9967 245.469 86.9829 245.545C86.9441 245.749 87.0426 245.3 86.9634 245.629C86.647 247.019 86.2436 248.376 85.8262 249.736C84.9621 252.564 84.2356 255.422 83.6549 258.317C82.5407 263.87 81.9793 269.522 81.8062 275.183C81.6332 280.844 81.8634 286.875 82.2867 292.707C82.71 298.538 83.3178 304.129 83.9624 309.828C84.0398 310.534 84.1242 311.238 84.2016 311.944C84.3103 312.877 85.4267 313.561 86.3082 313.339C87.3158 313.091 87.8199 312.231 87.7054 311.234C87.0509 305.485 86.4049 299.743 85.9439 293.977C85.8875 293.267 85.8311 292.557 85.7804 291.838C85.7645 291.652 85.757 291.471 85.7412 291.285C85.7368 291.191 85.7018 290.659 85.7224 291.048C85.6991 290.681 85.6744 290.308 85.651 289.941C85.5663 288.515 85.49 287.095 85.4348 285.67C85.3227 282.778 85.2836 279.885 85.3329 276.997C85.4371 271.284 85.9129 265.569 86.954 259.943C87.0177 259.61 87.0814 259.276 87.1451 258.943C87.1589 258.867 87.1728 258.791 87.1936 258.714C87.1382 258.981 87.2477 258.441 87.1936 258.714C87.2311 258.539 87.2671 258.357 87.3045 258.182C87.4585 257.465 87.6208 256.755 87.7902 256.043C88.1235 254.663 88.489 253.299 88.8924 251.942C89.7411 249.11 90.7424 246.24 90.8671 243.256C90.9252 241.743 90.752 240.241 90.2985 238.795C90.0724 238.076 89.8127 237.37 89.6343 236.634C89.5522 236.301 89.4995 235.969 89.4524 235.629C89.4183 235.424 89.4638 235.685 89.4554 235.716C89.4566 235.613 89.4493 235.506 89.4575 235.402C89.4641 235.218 89.4931 235.038 89.5081 234.86C89.5299 234.607 89.4176 235.133 89.5012 234.897C89.5249 234.834 89.5387 234.759 89.5624 234.696C89.6013 234.564 89.6543 234.429 89.7003 234.296C89.763 234.137 89.8285 233.993 89.8997 233.84C89.9792 233.656 89.8634 233.913 89.8522 233.93C89.9109 233.823 89.9625 233.718 90.0211 233.611C90.3367 233.045 90.6845 232.493 90.9847 231.922C91.7161 230.528 92.2101 228.934 91.867 227.349C91.6941 226.568 91.3193 225.798 90.7332 225.247C90.0558 224.604 88.9406 224.393 88.2089 225.103C87.564 225.736 87.3397 226.933 88.0635 227.624L88.0649 227.631Z" fill="#78BAD5"/>
<path d="M86.5268 236.703C95.0517 244.136 105.709 249.095 115.858 253.888C120.336 256.005 124.809 258.239 129.429 260.014C133.29 261.498 137.22 262.815 141.152 264.109C144.492 265.218 147.841 266.339 151.234 267.276C156.406 268.713 161.802 269.383 167.153 269.653C172.874 269.944 178.645 269.766 184.329 269.051C189.488 268.406 194.589 267.299 199.747 266.618C208.963 265.399 218.203 264.342 227.138 261.7C236.072 259.058 244.044 256.24 252.354 253.149C260.928 249.954 269.5 246.606 277.713 242.565C285.946 238.514 293.89 233.726 301.292 228.312C315.527 217.914 330.132 202.725 329.572 183.832C329.505 181.594 329.251 179.372 328.799 177.175C328.346 174.979 324.838 175.632 325.295 177.886C327.007 186.262 325.38 194.717 321.247 202.15C316.857 210.043 310.369 216.583 303.384 222.219C289.463 233.443 273.355 241.219 256.786 247.66C248.319 250.95 239.756 254.019 231.091 256.767C227.958 257.759 224.813 258.724 221.626 259.523C217.008 260.678 212.242 261.316 207.533 261.979C202.077 262.742 196.594 263.336 191.165 264.262C185.735 265.188 180.951 265.99 175.696 266.158C170.035 266.344 164.335 266.078 158.734 265.224C154.984 264.65 151.394 263.636 147.785 262.495C140.318 260.139 132.815 257.746 125.679 254.507C115.104 249.698 104.342 244.869 94.6552 238.401C92.7649 237.137 90.8968 235.803 89.1867 234.313C88.4519 233.675 87.4573 233.483 86.6624 234.169C86.0048 234.739 85.7905 236.058 86.517 236.691L86.5268 236.703Z" fill="#78BAD5"/>
<path d="M241.263 83.8706C246.528 81.1566 252.642 79.7569 258.59 79.659C264.538 79.5611 270.354 80.5394 274.724 84.2812C277.638 86.7805 279.692 90.1464 281.228 93.6244C282.985 97.5753 284.117 101.791 284.925 106.029C286.403 113.717 286.669 121.511 287.082 129.306C287.264 132.832 287.333 136.338 286.998 139.868C286.867 141.169 286.701 142.471 286.481 143.762C286.424 144.094 286.366 144.419 286.308 144.744C286.276 144.911 286.244 145.078 286.212 145.245C286.192 145.358 286.114 145.731 286.224 145.191C286.2 145.291 286.185 145.396 286.161 145.495C286.003 146.227 285.844 146.952 285.655 147.675C284.849 150.863 283.767 153.983 282.412 156.983C282.237 157.375 282.054 157.769 281.864 158.165C281.773 158.366 281.674 158.561 281.577 158.762C281.779 158.357 281.431 159.054 281.363 159.185C280.923 160.039 280.467 160.882 279.994 161.714C278.981 163.486 277.877 165.204 276.69 166.866C276.059 167.751 275.411 168.619 274.737 169.47C274.406 169.887 274.074 170.304 273.733 170.708C273.564 170.917 273.386 171.121 273.21 171.331C273.139 171.411 273.069 171.498 272.998 171.578C272.862 171.737 272.856 171.746 272.974 171.605C272.902 171.685 272.833 171.772 272.754 171.854C271.187 173.622 269.547 175.324 267.825 176.941C258.932 185.295 248.349 191.426 237.15 196.283C234.012 197.648 230.796 198.803 227.639 200.113C225.768 200.886 223.88 201.611 221.985 202.309C221.286 202.567 220.586 202.818 219.877 203.064C219.7 203.129 219.515 203.188 219.339 203.253C219.162 203.318 218.678 203.482 219.127 203.325C218.704 203.469 218.288 203.612 217.865 203.756C216.09 204.356 214.309 204.929 212.517 205.481C208.354 206.755 204.149 207.892 199.904 208.869C195.08 209.978 190.2 210.879 185.283 211.497C180.367 212.114 175.601 212.461 170.379 212.361C167.831 212.316 165.281 212.155 162.75 211.867C161.503 211.726 160.249 211.55 159.009 211.335C157.686 211.108 156.972 210.968 155.622 210.644C150.853 209.505 146.378 207.796 142.401 205.381C141.411 204.78 140.449 204.137 139.513 203.444C139.043 203.103 138.583 202.744 138.13 202.377C137.902 202.19 137.674 202.003 137.454 201.814C137.402 201.774 137.118 201.525 137.33 201.708C137.197 201.589 137.064 201.478 136.931 201.359C136.217 200.717 135.186 200.525 134.407 201.215C133.745 201.801 133.539 203.089 134.261 203.736C142.052 210.713 152.038 214.198 162.315 215.409C172.665 216.62 183.238 215.694 193.461 213.833C202.102 212.264 210.609 209.964 218.922 207.134C222.758 205.832 226.521 204.385 230.275 202.858C233.504 201.548 236.778 200.352 239.963 198.934C243.149 197.516 246.448 195.907 249.597 194.198C255.025 191.247 260.251 187.877 265.086 184.018C272.423 178.173 278.898 171.067 283.444 162.829C286.801 156.749 289.079 150.173 290.147 143.31C290.79 139.179 290.929 135.004 290.712 130.836C290.441 125.761 290.265 120.68 289.816 115.619C289.026 106.794 287.469 97.5992 283.289 89.6797C281.442 86.1843 278.973 82.8952 275.75 80.5607C273.33 78.8067 270.461 77.6465 267.554 76.9822C261.155 75.5027 254.333 75.8944 247.999 77.5427C245.116 78.2946 242.286 79.3054 239.638 80.673C237.597 81.7279 239.199 84.9158 241.254 83.8581L241.263 83.8706Z" fill="#78BAD5"/>
<path d="M324.821 174.294C335.108 187.578 343.263 202.475 350.221 217.724C352.521 222.774 354.697 227.893 356.689 233.079C357.355 234.817 358.239 236.584 358.448 238.443C358.485 238.771 358.517 239.107 358.54 239.438C358.554 239.617 358.567 239.789 358.582 239.969C358.559 239.602 358.582 240.041 358.594 240.17C358.626 240.871 358.645 241.574 358.642 242.281C358.637 243.623 358.55 244.96 358.384 246.298C358.184 247.905 358.053 248.588 357.673 250.027C356.958 252.796 355.798 255.567 354.605 257.747C351.164 264.02 346.391 269.017 341.014 273.692C333.347 280.355 324.783 285.939 316.064 291.117C303.607 298.517 290.669 305.089 277.631 311.383C269.516 315.294 261.34 319.086 253.134 322.798C244.927 326.509 236.025 330.499 227.253 333.83C210.681 340.111 193.325 344.503 175.58 345.426C165.878 345.935 156.061 345.556 146.443 344.212C140.52 343.386 134.594 341.505 128.945 339.589C122.394 337.361 116.298 334.063 110.321 330.596C103.931 326.892 97.4062 322.815 92.2572 317.46C90.3525 315.478 88.6254 313.292 87.7078 310.672C87.3831 309.754 86.0911 309.498 85.3011 309.884C84.3459 310.355 84.1955 311.377 84.5118 312.289C86.6717 318.41 92.614 323.036 97.6707 326.711C104.036 331.338 110.945 335.221 117.947 338.779C124.162 341.943 130.725 344.089 137.462 345.865C144.898 347.819 152.409 348.665 160.091 349.024C178.594 349.894 197.008 347.306 214.697 341.891C232.715 336.374 249.859 328.344 266.906 320.414C281.434 313.658 295.863 306.631 309.853 298.81C319.808 293.251 329.624 287.289 338.634 280.274C344.878 275.409 350.858 269.926 355.349 263.361C358.812 258.308 361.218 252.581 361.967 246.482C362.324 243.568 362.303 240.584 361.954 237.674C361.703 235.605 360.708 233.613 359.964 231.672C359.101 229.428 358.211 227.196 357.287 224.978C351.205 210.375 344.02 196.127 335.32 182.9C332.851 179.145 330.254 175.473 327.506 171.92C326.101 170.099 323.434 172.491 324.836 174.298L324.821 174.294Z" fill="#78BAD5"/>
<path d="M93.1258 253.897C93.0774 259.489 96.6805 264.56 100.503 268.34C101.964 269.785 103.553 271.22 105.335 272.272C106.28 272.831 107.309 273.191 108.361 273.488C110 273.943 111.736 274.232 113.435 273.939C115.134 273.645 116.575 272.69 117.347 271.208C118.047 269.878 118.288 268.364 118.239 266.865C118.191 265.294 117.923 263.796 117.396 262.307C117.019 261.239 116.419 260.333 115.748 259.434C114.301 257.476 112.622 255.673 110.939 253.923C109.905 252.85 108.882 251.833 107.654 250.996C105.495 249.524 103.053 248.307 100.445 247.932C99.1673 247.746 97.6881 247.791 96.5272 248.435C95.2291 249.157 94.2418 250.297 93.6308 251.638C93.3142 252.343 93.145 253.128 93.1202 253.906C93.0902 254.837 93.7865 255.789 94.7836 255.813C95.7217 255.834 96.6637 255.155 96.6936 254.151C96.696 253.983 96.7054 253.813 96.7289 253.641C96.7357 253.566 96.7677 253.472 96.7676 253.4C96.7718 253.421 96.673 253.725 96.7413 253.558C96.7998 253.415 96.8261 253.257 96.8832 253.107C96.9013 253.052 96.9279 253.003 96.946 252.948C97.0713 252.595 96.8035 253.181 96.9124 252.999C97.0549 252.766 97.1819 252.529 97.3497 252.312C97.3735 252.286 97.4644 252.194 97.4839 252.147C97.4756 252.178 97.1832 252.463 97.3902 252.26C97.4812 252.169 97.5777 252.069 97.67 251.985C97.7624 251.901 97.8617 251.815 97.9569 251.745C98.0017 251.714 98.0661 251.672 98.1025 251.635C98.0899 251.645 97.6992 251.877 97.9359 251.749C98.1123 251.648 98.2986 251.559 98.4764 251.465C98.6935 251.348 97.9887 251.578 98.2929 251.531C98.391 251.511 98.4961 251.49 98.5942 251.47C98.7064 251.447 98.9448 251.472 99.0358 251.417C99.0106 251.436 98.5787 251.429 98.8928 251.431C98.9882 251.434 99.0821 251.429 99.1761 251.425C99.4607 251.425 99.7426 251.448 100.027 251.485C100.162 251.502 100.291 251.527 100.426 251.543C100.667 251.582 100.488 251.596 100.486 251.553C100.357 251.528 100.335 251.525 100.426 251.543C100.479 251.554 100.541 251.571 100.594 251.582C101.178 251.726 101.756 251.915 102.312 252.137C102.581 252.243 102.845 252.357 103.103 252.48C103.175 252.509 103.241 252.547 103.305 252.577C103.491 252.664 103.317 252.67 103.2 252.526C103.269 252.614 103.494 252.678 103.592 252.731C104.058 252.979 104.513 253.243 104.955 253.518C105.556 253.892 106.142 254.298 106.697 254.732C106.749 254.772 106.792 254.807 106.844 254.848C107.052 255.01 106.398 254.443 106.653 254.697C106.926 254.962 107.199 255.228 107.466 255.502C109.036 257.093 110.565 258.736 111.987 260.459C112.334 260.877 112.668 261.298 112.997 261.734C113.136 261.917 113.27 262.108 113.403 262.3C113.555 262.509 113.149 261.907 113.382 262.268C113.437 262.359 113.498 262.441 113.553 262.532C113.792 262.921 113.97 263.329 114.136 263.755C114.253 264.044 114.007 263.336 114.139 263.769C114.178 263.892 114.219 264.022 114.252 264.146C114.34 264.471 114.42 264.797 114.479 265.121C114.54 265.422 114.585 265.719 114.618 266.025C114.633 266.168 114.647 266.311 114.661 266.454C114.67 266.532 114.648 266.784 114.674 266.517C114.696 266.228 114.676 266.597 114.679 266.647C114.701 267.262 114.658 267.876 114.576 268.482C114.518 268.917 114.649 268.227 114.571 268.527C114.533 268.666 114.504 268.81 114.458 268.944C114.423 269.06 114.382 269.178 114.338 269.288C114.315 269.352 114.284 269.416 114.26 269.479C114.192 269.682 114.466 269.124 114.306 269.382C114.241 269.49 114.177 269.605 114.104 269.715C114.07 269.765 114.023 269.819 113.989 269.869C113.855 270.071 114.222 269.647 114.048 269.799C113.943 269.893 113.838 269.987 113.74 270.08C113.483 270.322 113.833 269.996 113.838 270.024C113.841 270.038 113.617 270.156 113.583 270.17C113.445 270.242 113.295 270.294 113.156 270.366C112.984 270.452 113.319 270.304 113.327 270.31C113.268 270.307 113.155 270.359 113.092 270.372C112.932 270.412 112.769 270.437 112.615 270.469C112.552 270.481 112.495 270.486 112.43 270.491C112.139 270.529 112.312 270.45 112.468 270.498C112.336 270.46 112.091 270.509 111.951 270.501C111.796 270.496 111.642 270.491 111.486 270.479C111.308 270.464 111.13 270.449 110.949 270.42C110.806 270.398 110.451 270.412 110.346 270.324C110.346 270.324 110.667 270.397 110.461 270.351C110.37 270.333 110.279 270.315 110.193 270.289C110.04 270.254 109.879 270.214 109.724 270.173C109.37 270.077 109.02 269.973 108.676 269.86C108.333 269.748 108.011 269.638 107.686 269.507C107.495 269.429 107.156 269.199 107.737 269.548C107.156 269.199 106.583 268.856 106.035 268.457C105.674 268.188 105.319 267.91 104.978 267.63C104.891 267.56 104.81 267.489 104.723 267.419C104.671 267.378 104.626 267.336 104.574 267.296C104.355 267.114 104.681 267.391 104.698 267.402C104.507 267.215 104.298 267.046 104.092 266.862C103.251 266.092 102.451 265.278 101.687 264.427C101.271 263.957 100.868 263.478 100.475 262.982C100.3 262.762 100.131 262.541 99.9689 262.319C99.8705 262.193 99.7776 262.059 99.6862 261.932C99.6369 261.869 99.5947 261.805 99.5441 261.735C99.5117 261.683 99.3077 261.397 99.4709 261.626C99.6243 261.842 99.3766 261.485 99.3344 261.42C99.2485 261.285 99.1627 261.149 99.0768 261.013C98.9051 260.742 98.7404 260.469 98.5813 260.188C98.2757 259.653 97.9982 259.111 97.7459 258.55C97.6261 258.283 97.5133 258.014 97.4075 257.744C97.3595 257.616 97.3185 257.486 97.2649 257.365C97.1691 257.144 97.3808 257.721 97.3045 257.488C97.279 257.399 97.2452 257.304 97.2127 257.215C97.0403 256.653 96.8959 256.085 96.8006 255.506C96.7523 255.232 96.725 254.953 96.6977 254.675C96.6776 254.504 96.7631 254.494 96.705 254.819C96.7147 254.758 96.7004 254.652 96.6961 254.595C96.6887 254.45 96.687 254.298 96.6936 254.151C96.7012 253.216 96.0357 252.273 95.0303 252.243C94.1132 252.218 93.1291 252.906 93.1202 253.906L93.1258 253.897Z" fill="#78BAD5"/>
<path d="M169.629 266.397C165.879 268.308 162.088 270.119 158.263 271.87C153.514 274.035 148.715 276.094 143.84 277.957C142.655 278.408 141.467 278.846 140.276 279.269C140.126 279.322 139.976 279.374 139.819 279.427C139.417 279.567 140.078 279.338 139.765 279.446C139.451 279.553 139.13 279.662 138.816 279.769C138.249 279.957 137.681 280.145 137.112 280.326C135.029 280.989 132.924 281.583 130.791 282.037C129.881 282.229 128.959 282.394 128.042 282.514C127.587 282.57 127.128 282.612 126.676 282.645C126.589 282.648 126.496 282.66 126.409 282.663C126.2 282.676 126.545 282.65 126.554 282.656C126.383 282.639 126.193 282.678 126.028 282.689C125.682 282.708 125.334 282.721 124.986 282.733C122.486 282.817 119.984 282.712 117.506 282.361C116.942 282.279 116.391 282.187 115.83 282.082C115.761 282.067 115.692 282.051 115.618 282.045C116.067 282.099 115.869 282.096 115.755 282.075C115.618 282.045 115.48 282.014 115.343 281.984C115.068 281.923 114.8 281.861 114.523 281.793C113.51 281.546 112.509 281.246 111.533 280.898C110.558 280.549 109.667 280.183 108.763 279.754C108.706 279.729 108.649 279.697 108.593 279.672C108.423 279.59 108.82 279.786 108.795 279.769C108.688 279.711 108.576 279.661 108.469 279.602C108.25 279.493 108.037 279.376 107.823 279.259C107.405 279.031 106.991 278.787 106.583 278.541C105.817 278.07 105.078 277.557 104.362 277.009C103.999 276.733 103.656 276.446 103.306 276.159C103.087 275.978 103.661 276.467 103.368 276.212C103.297 276.147 103.218 276.083 103.146 276.017C102.969 275.863 102.798 275.701 102.626 275.539C101.399 274.382 100.287 273.106 99.2955 271.74C99.1829 271.581 99.0633 271.423 98.9494 271.256C98.7651 270.995 98.9127 271.183 99.0113 271.346C98.948 271.249 98.8776 271.154 98.8129 271.051C98.5919 270.717 98.3766 270.374 98.1682 270.03C97.7515 269.342 97.3601 268.634 97.0022 267.912C96.6443 267.191 96.3201 266.491 96.0183 265.758C95.8745 265.408 95.7362 265.05 95.5979 264.692C95.5344 264.522 95.4695 264.346 95.413 264.175C95.293 263.835 95.485 264.387 95.4638 264.318C95.4285 264.216 95.3932 264.114 95.3579 264.012C94.4795 261.369 93.9065 258.614 93.6853 255.832C93.6767 255.753 93.6751 255.673 93.6665 255.595C93.6348 255.222 93.6885 255.991 93.681 255.774C93.6708 255.616 93.662 255.465 93.6588 255.305C93.6427 255.009 93.6336 254.712 93.6329 254.421C93.6217 253.862 93.6302 253.292 93.6555 252.733C93.6782 252.233 93.7233 251.736 93.7824 251.235C93.7961 251.123 93.8099 251.011 93.8236 250.899C93.8582 250.673 94.0071 250.221 93.7902 250.986C93.8096 250.902 93.8291 250.818 93.8485 250.734C94.1816 249.282 94.4052 247.793 94.3876 246.303C94.3657 244.143 93.9451 241.816 92.4296 240.17C91.6269 239.305 90.5653 238.675 89.4134 238.391C88.5071 238.167 87.4338 238.523 87.1445 239.507C86.8886 240.368 87.2868 241.541 88.2604 241.773C88.506 241.833 88.7473 241.908 88.9775 241.999C89.0337 242.025 89.0898 242.05 89.153 242.073C89.3579 242.148 88.8076 241.881 88.9915 241.997C89.1081 242.068 89.2302 242.13 89.3398 242.203C89.424 242.259 89.5097 242.322 89.5884 242.386C89.9044 242.613 89.3031 242.094 89.5701 242.368C89.7276 242.532 89.878 242.699 90.0242 242.88C90.2675 243.181 89.8102 242.508 90.0031 242.848C90.0496 242.934 90.1031 243.017 90.1496 243.103C90.2566 243.307 90.3497 243.514 90.4357 243.723C90.6133 244.131 90.341 243.399 90.4272 243.681C90.4569 243.791 90.4936 243.9 90.5247 244.018C90.5856 244.246 90.6394 244.476 90.6778 244.701C90.7218 244.918 90.7447 245.139 90.7747 245.359C90.7876 245.459 90.7948 245.566 90.8007 245.667C90.828 245.946 90.7876 245.459 90.7861 245.452C90.7723 245.527 90.795 245.639 90.7952 245.712C90.8116 246.153 90.8057 246.592 90.7843 247.026C90.7454 247.77 90.6546 248.51 90.5259 249.243C90.5037 249.349 90.4095 249.82 90.4955 249.417C90.5815 249.013 90.4955 249.417 90.4733 249.523C90.4511 249.63 90.4261 249.722 90.4039 249.829C90.2777 250.393 90.2061 250.976 90.1542 251.548C90.0559 252.647 90.0388 253.75 90.0807 254.857C90.1927 257.713 90.6271 260.54 91.4104 263.289C92.3097 266.43 93.5915 269.478 95.348 272.241C97.3368 275.358 99.8182 278.098 102.802 280.292C106.069 282.697 109.892 284.356 113.835 285.27C118.71 286.395 123.881 286.637 128.843 285.996C133.292 285.414 137.628 283.952 141.844 282.471C146.774 280.736 151.614 278.735 156.395 276.621C160.627 274.751 164.826 272.792 168.969 270.735C169.731 270.355 170.492 269.975 171.253 269.587C172.086 269.163 172.513 268.027 172.042 267.183C171.572 266.338 170.529 265.944 169.636 266.395L169.629 266.397Z" fill="#78BAD5"/>
</g>
</g>
<defs>
<clipPath id="clip0_3028_973">
<rect width="330.532" height="304.944" fill="white" transform="translate(46 55)"/>
</clipPath>
<clipPath id="clip1_3028_973">
<rect width="287" height="260" fill="white" transform="translate(43.6992 112.117) rotate(-11.4582)"/>
</clipPath>
</defs>
</svg>
