<svg width="515" height="360" viewBox="0 0 515 360" fill="none" xmlns="http://www.w3.org/2000/svg">
<g clip-path="url(#clip0_3028_893)">
<path d="M205.175 352.063C213.2 349.522 221.509 346.826 228.026 341.281C231.285 338.509 233.843 335.08 236.57 331.815C239.297 328.549 242.107 325.527 245.095 322.591C257.094 310.805 271.238 301.427 285.835 293.167C293.22 288.988 300.755 285.086 308.331 281.269C315.907 277.451 323.485 274.135 330.524 269.589C341.897 262.241 349.287 250.665 355.481 238.902C358.892 232.42 362.324 225.988 367.269 220.508C372.938 214.224 380.002 209.41 387.304 205.221C395.114 200.738 403.234 196.788 411.242 192.678C419.703 188.338 428.164 183.999 436.619 179.657C445.152 175.281 453.701 170.927 462.22 166.523C465.595 164.777 468.967 162.949 471.898 160.506C474.362 158.449 476.07 156.129 477.67 153.399C479.56 150.18 480.853 146.382 479.501 142.687C477.291 136.644 469.849 134.044 463.937 135.143C456.741 136.478 450.084 140.836 443.487 143.832C434.652 147.846 425.814 151.856 416.974 155.871C408.134 159.886 399.566 163.777 390.865 167.729C382.163 171.681 373.54 175.849 364.707 179.481C356.31 182.936 347.736 185.198 338.598 184.612C330.554 184.093 322.715 182.012 314.73 181.013C311.071 180.555 307.367 180.293 303.678 180.514C302.682 180.574 301.746 180.778 300.781 180.731C299.021 180.647 297.377 180.618 295.61 180.876C284.739 182.474 274.348 187.894 264.874 193.154C259.642 196.059 253.93 198.027 248.377 200.269C239.857 203.703 231.344 207.139 222.824 210.573C218.882 212.162 214.897 213.662 211.044 215.455C206.689 217.484 202.306 219.47 197.859 221.282C195.984 222.043 194.062 222.889 192.09 223.361C188.539 224.211 184.569 223.877 180.946 223.881C176.667 223.887 172.444 224.08 168.262 225.068C163.732 226.136 159.423 227.945 155.254 229.988C153.334 230.926 151.449 231.928 149.568 232.946C147.875 233.867 145.77 234.694 144.382 236.069C141.722 238.704 143.853 242.098 145.22 244.784C147.381 249.036 149.54 253.284 151.696 257.538C153.734 261.556 155.556 265.814 157.981 269.615C158.902 271.06 160.003 272.411 161.355 273.472C163.077 274.827 165.107 275.749 166.723 277.24C169.659 279.951 170.852 283.976 171.708 287.751C172.706 292.127 173.46 296.525 174.74 300.838C176.043 305.203 177.649 309.471 179.472 313.646C183.192 322.182 187.738 330.316 192.437 338.346C195.511 343.6 198.78 351.356 205.808 351.785C207.662 351.899 207.523 349.022 205.689 348.91C202.126 348.696 199.879 345.201 198.209 342.458C195.865 338.618 193.624 334.708 191.408 330.789C186.893 322.812 182.67 314.638 179.51 306.02C177.943 301.744 176.638 297.37 175.693 292.912C174.925 289.28 174.381 285.563 173.075 282.067C171.824 278.73 169.896 275.824 166.946 273.763C165.346 272.643 163.57 271.755 162.184 270.357C160.709 268.872 159.72 266.955 158.766 265.121C156.66 261.051 154.618 256.951 152.54 252.867C151.56 250.934 150.579 249.001 149.598 247.068C148.507 244.92 147.112 242.744 146.291 240.481C145.392 238.007 147.838 237.168 149.654 236.166C151.647 235.065 153.652 233.983 155.688 232.956C159.857 230.857 164.189 229.018 168.734 227.899C173.202 226.8 177.736 226.744 182.308 226.751C185.686 226.755 189.292 226.942 192.612 226.185C196.838 225.22 200.946 223.132 204.89 221.389C216.552 216.228 228.323 211.447 240.16 206.671C247.076 203.884 253.994 201.091 260.909 198.304C263.848 197.116 266.497 195.502 269.299 194.006C275.099 190.909 281.07 188.054 287.302 185.937C290.465 184.863 293.739 183.907 297.077 183.581C297.908 183.5 298.742 183.459 299.576 183.488C300.085 183.505 299.793 183.553 300.457 183.59C302.483 183.704 304.589 183.301 306.64 183.305C310.58 183.315 314.489 183.809 318.371 184.436C325.722 185.624 333.024 187.312 340.494 187.565C348.931 187.856 357.027 185.669 364.793 182.529C373.363 179.065 381.714 175.007 390.127 171.185C407.134 163.465 424.135 155.741 441.141 148.02C444.808 146.357 448.487 144.732 452.086 142.933C455.244 141.355 458.399 139.708 461.776 138.635C465.153 137.562 468.738 137.282 472.102 139.005C474.981 140.481 477.284 142.876 477.154 146.281C477.084 148.133 476.376 149.899 475.464 151.493C474.708 152.809 473.16 155.366 471.524 156.984C468.833 159.638 465.477 161.559 462.158 163.319C458.219 165.409 454.222 167.406 450.255 169.439C433.725 177.917 417.197 186.399 400.667 194.877C386.516 202.134 371.541 209.522 361.832 222.592C357.974 227.787 355.113 233.502 352.06 239.171C348.974 244.898 345.577 250.497 341.539 255.611C337.041 261.308 331.796 265.579 325.558 269.268C318.513 273.435 310.931 276.725 303.641 280.432C289.144 287.801 274.783 295.594 261.569 305.11C255.098 309.77 248.908 314.842 243.201 320.413C240.386 323.159 237.69 326.029 235.146 329.026C232.403 332.255 229.906 335.743 226.747 338.594C220.491 344.24 212.153 346.835 204.277 349.328C202.51 349.887 203.386 352.625 205.157 352.064L205.175 352.063Z" fill="#E3C2F0"/>
<path d="M165.947 241.111C160.133 242.833 154.896 245.378 149.631 248.344C148.019 249.253 149.598 251.658 151.211 250.749C156.258 247.903 161.261 245.499 166.831 243.846C168.61 243.32 167.729 240.584 165.951 241.109L165.947 241.111Z" fill="#E3C2F0"/>
<path d="M170.921 250.251C165.659 253.831 160.31 257.215 154.575 260.008C152.916 260.816 154.502 263.213 156.154 262.412C161.886 259.625 167.234 256.236 172.501 252.655C174.03 251.615 172.461 249.203 170.921 250.251Z" fill="#E3C2F0"/>
<path d="M174.919 259.746C170.662 263.703 165.577 266.445 159.964 267.935C158.169 268.41 159.054 271.145 160.844 270.672C166.964 269.046 172.434 265.966 177.064 261.666C178.42 260.408 176.272 258.493 174.92 259.75L174.919 259.746Z" fill="#E3C2F0"/>
<path d="M180.408 267.954C176 270.139 171.499 272.117 167.09 274.298C165.435 275.118 167.022 277.516 168.67 276.702C173.077 274.517 177.579 272.539 181.987 270.359C183.642 269.538 182.056 267.141 180.408 267.954Z" fill="#E3C2F0"/>
<path d="M186.238 276.545C181.545 278.148 177.499 281.122 172.811 282.723C171.057 283.325 171.934 286.062 173.692 285.46C178.384 283.857 182.43 280.883 187.118 279.281C188.872 278.68 187.996 275.942 186.238 276.545Z" fill="#E3C2F0"/>
<path d="M189.118 286.441C184.476 288.432 179.83 290.424 175.188 292.415C173.497 293.14 174.361 295.882 176.068 295.151C180.71 293.16 185.357 291.168 189.999 289.177C191.689 288.452 190.826 285.711 189.118 286.441Z" fill="#E3C2F0"/>
<path d="M193.743 293.919C188.11 297 182.664 300.401 177.033 303.486C175.409 304.376 176.989 306.78 178.612 305.891C184.245 302.81 189.691 299.409 195.323 296.324C196.946 295.434 195.367 293.03 193.743 293.919Z" fill="#E3C2F0"/>
<path d="M197.92 302.498C192.552 305.215 187.242 308.039 181.872 310.751C180.221 311.584 181.809 313.986 183.452 313.156C188.82 310.439 194.13 307.615 199.5 304.903C201.151 304.069 199.563 301.668 197.92 302.498Z" fill="#E3C2F0"/>
<path d="M201.748 310.464C195.855 312.258 190.014 314.909 185.04 318.562C183.552 319.654 185.12 322.067 186.62 320.967C191.408 317.447 196.956 314.928 202.628 313.2C204.402 312.662 203.526 309.924 201.748 310.464Z" fill="#E3C2F0"/>
<path d="M205.221 318.452C200.119 321.2 195.511 324.991 189.773 326.354C187.968 326.782 188.857 329.515 190.653 329.091C196.643 327.67 201.477 323.726 206.801 320.857C208.433 319.978 206.849 317.575 205.221 318.452Z" fill="#E3C2F0"/>
<path d="M209.416 327.801C204.607 330.779 199.519 333.917 193.913 335.084C192.102 335.463 192.995 338.195 194.794 337.821C200.623 336.609 205.992 333.302 210.995 330.205C212.572 329.229 210.997 326.823 209.416 327.801Z" fill="#E3C2F0"/>
<path d="M212.311 334.191C208.521 337.915 203.44 341.946 198.023 342.742C196.204 343.011 196.309 345.886 198.142 345.616C204.409 344.696 210.044 340.435 214.452 336.108C215.776 334.809 213.627 332.894 212.307 334.192L212.311 334.191Z" fill="#E3C2F0"/>
</g>
<g clip-path="url(#clip1_3028_893)">
<path d="M9.26019 146.07C13.9002 125.621 30.0299 109.82 46.3142 97.7563C55.3512 91.0569 65.2814 85.4771 76.3382 83.008C86.7013 80.6915 97.562 81.0947 107.89 83.3848C118.37 85.7079 128.418 89.9332 137.533 95.5937C145.586 100.613 154.587 108.571 155.598 118.625C156.609 128.679 148.638 136.55 139.478 138.92C133.82 140.376 127.833 139.935 122.205 138.607C117.214 137.428 112.383 135.592 107.985 132.954C100.621 128.544 92.7852 120.03 94.9604 110.668C95.4683 108.472 96.6601 106.555 98.6393 105.421C100.882 104.135 103.72 103.822 106.26 103.753C111.209 103.622 116.137 104.973 120.38 107.488C122.48 108.741 124.365 110.305 126.031 112.089C127.348 113.499 129.366 111.272 128.049 109.872C124.361 105.92 119.544 103.112 114.324 101.724C109.235 100.361 102.966 100.113 98.0854 102.353C93.2047 104.594 91.3129 109.738 91.68 114.806C92.0471 119.875 94.3729 124.441 97.5713 128.186C104.571 136.358 115.749 140.981 126.227 142.403C137.228 143.891 149.161 140.9 155.512 131.133C158.38 126.734 159.281 121.386 158.25 116.259C157.22 111.131 154.25 106.495 150.755 102.614C143.121 94.1312 132.273 88.4416 121.725 84.4398C111.176 80.4381 99.5238 78.0898 88.0217 78.5274C76.5196 78.9651 64.6798 82.6721 54.3829 88.7597C44.0859 94.8472 35.1592 102.192 27.0451 110.43C19.3423 118.258 12.5583 127.325 8.66763 137.678C7.71462 140.205 6.93377 142.775 6.33645 145.415C5.90388 147.298 8.83809 147.961 9.26066 146.08L9.26019 146.07Z" fill="#E3C2F0"/>
<path d="M14.4624 105.673C30.4011 97.7797 46.5726 89.7256 59.8328 77.6431C71.4702 67.0381 80.8633 52.7538 82.8334 36.8644C83.7353 29.6044 83.2829 21.4266 78.8513 15.2869C74.4197 9.14716 66.7378 7.14374 59.4024 8.69802C51.8291 10.3035 44.9781 14.9385 39.6802 20.462C34.3824 25.9854 30.3887 33.2799 31.6516 41.0194C32.7469 47.7455 37.468 54.082 44.6379 54.7679C53.3263 55.603 60.0596 49.0914 64.4509 42.379C65.6092 40.603 66.6748 38.7712 67.7304 36.9399C68.7032 35.2626 66.0359 33.8857 65.0727 35.5525C61.3028 42.0657 56.9899 49.3851 49.187 51.4317C45.9333 52.2846 42.3877 51.8197 39.6969 49.7231C37.3492 47.9008 35.8042 45.26 35.0009 42.4245C33.0708 35.6172 36.2288 28.8623 40.6767 23.789C45.3527 18.4548 51.4834 14.0437 58.3273 12.0419C64.7569 10.1696 72.016 11.0515 76.2173 16.7615C80.4186 22.4715 80.7109 29.7959 79.8676 36.3824C78.0062 50.9553 69.7439 63.9453 59.3313 73.9826C47.5677 85.3143 32.8862 93.1185 18.3987 100.363C16.54 101.291 14.6808 102.209 12.8221 103.137C11.1 103.988 12.7393 106.504 14.4515 105.653L14.4624 105.673Z" fill="#E3C2F0"/>
</g>
<defs>
<clipPath id="clip0_3028_893">
<rect width="136" height="350" fill="white" transform="translate(473.176 123) rotate(72.1629)"/>
</clipPath>
<clipPath id="clip1_3028_893">
<rect width="153.41" height="137.64" fill="white" transform="translate(159.672 141.49) rotate(177.323)"/>
</clipPath>
</defs>
</svg>
