<svg preserveAspectRatio="none" width="1920" height="114" viewBox="0 0 1920 114" fill="none" xmlns="http://www.w3.org/2000/svg">
<g clip-path="url(#clip0_3036_857)">
<path d="M-1 24.8059C101.084 5.6958 254.038 -1.32573 385.913 6.97256C431.073 9.81426 473.359 14.2716 516.461 18.2446C533.991 19.8603 552.504 21.4292 571.67 21.1891C614.1 20.6567 641.199 11.9769 675.844 6.89785C740.863 -2.63585 830.619 0.986316 905.655 6.57766C980.691 12.1703 1059.03 19.472 1137.05 16.03C1198.99 13.2963 1254.53 3.92007 1317.66 4.96469C1380.2 5.99998 1429.07 17.0159 1490.49 19.6561C1544.62 21.9829 1599.4 17.5175 1653.9 15.595C1745.45 12.3651 1843.71 16.6197 1921 27.2367V124H-1V24.8059Z" fill="white"/>
</g>
<defs>
<clipPath id="clip0_3036_857">
<rect width="1920" height="114" fill="white"/>
</clipPath>
</defs>
</svg>
