<svg width="1477" height="565" viewBox="0 0 1477 565" fill="none" xmlns="http://www.w3.org/2000/svg">
<path fill-rule="evenodd" clip-rule="evenodd" d="M322.111 463.188C363.021 471.496 394.553 463.421 417.318 439.584C427.604 454.542 444.2 463.622 462.95 463.783C479.218 463.871 492.636 457.296 504.3 446.821C533.854 472.154 553.06 471.979 587.044 446.208C587.463 446.487 587.9 446.762 588.344 447.041L588.345 447.042L588.347 447.043C589.294 447.639 590.27 448.253 591.166 448.969C624.886 475.792 663.254 478.465 700.614 456.025C705.525 453.089 708.112 454.491 711.971 457.34C741.964 479.561 774.061 482.98 808.044 467.421C825.277 459.531 837.555 446.208 847.772 429.903L847.728 429.86C851.408 431.699 853.994 433.013 856.578 434.326L856.586 434.33C884.211 448.136 918.194 441.255 938.321 417.719C946.588 408.075 951.667 397.173 953.812 386.022C978.787 400.016 1005.63 401.359 1032.99 391.396C1061.7 443.922 1103.81 459.785 1159.09 441.575C1159.34 441.976 1159.57 442.326 1159.78 442.647C1160.18 443.263 1160.5 443.77 1160.77 444.317C1188.67 504.622 1252.45 520.933 1306.08 481.613C1308.88 479.55 1313.49 478.609 1317.01 479.034C1373.13 485.652 1425.3 450.844 1437.81 398.111C1451.27 341.318 1422.7 287.632 1367.59 268.195C1357.71 264.718 1355.04 260.489 1354.95 250.044C1354.55 184.685 1325.27 135.169 1267.42 105.582C1215.45 78.9934 1162.55 82.1191 1112.24 112.537C1103.36 117.906 1095.28 124.574 1086.99 131.414C1083.07 134.651 1079.1 137.927 1074.98 141.122C1074.79 140.989 1074.58 140.846 1074.37 140.695C1072.95 139.695 1071.01 138.334 1069.1 136.908C1033.36 110.442 983.145 112.979 951.416 144.061C943.431 151.897 937.156 153.301 926.696 150.341C922.386 149.119 918.021 148.326 913.653 147.935C902.07 116.208 868.77 92.3036 830.153 97.5355C823.619 98.4121 820.637 96.6151 818.007 90.26C804.589 57.9145 779.77 38.9806 745.26 35.5181C711.847 32.1433 684.529 45.3357 664.49 72.7285C663.584 73.9535 662.63 75.1137 661.607 76.3567L661.602 76.3625L661.602 76.3628C660.943 77.1637 660.256 77.9991 659.535 78.9084C659.088 78.4314 658.67 77.9874 658.275 77.5681L658.271 77.5649L658.267 77.5602C656.959 76.1721 655.906 75.0549 654.931 73.9119C632.699 47.8339 597.181 38.2355 565.566 49.8062C538.101 59.8889 518.612 82.9167 513.429 110.615C490.512 107.939 466.475 112.794 444.206 125.883C435.124 131.231 430.14 130.543 422.048 123.836C371.508 81.7516 314.442 72.1536 254.186 97.4636C200.047 120.196 168.167 162.914 158.958 221.346C157.33 231.662 157.223 242.202 157.114 253.013C157.062 258.13 157.01 263.308 156.795 268.552C156.581 268.608 156.352 268.669 156.11 268.732L156.071 268.743L156.07 268.743C154.379 269.188 152.08 269.793 149.748 270.336C106.22 280.665 75.6265 320.937 78.9723 365.505C79.8251 376.731 76.8382 382.468 67.7818 388.595C37.6633 408.947 26.6993 450.122 41.6243 482.535C58.1484 518.409 96.0129 537.701 132.54 526.757C142.139 523.891 151.093 518.846 160.535 513.526C164.994 511.013 169.562 508.439 174.358 506.005L174.338 506.068C197.635 524.366 226.2 532.393 257.908 523.473C289.658 514.532 310.99 493.575 322.111 463.188Z" fill="#F4E8F9"/>
<path fill-rule="evenodd" clip-rule="evenodd" d="M588.343 447.041C587.9 446.762 587.463 446.487 587.044 446.208C553.06 471.979 533.854 472.154 504.3 446.821C492.636 457.296 479.218 463.871 462.95 463.783C452.379 463.692 442.493 460.766 434.036 455.551C427.493 451.515 421.805 446.109 417.318 439.585C408.924 448.373 399.339 455.019 388.531 459.491C370.026 467.149 347.937 468.433 322.111 463.188C310.99 493.575 289.658 514.532 257.908 523.473C226.24 532.382 197.707 524.386 174.425 506.137C174.396 506.114 174.367 506.091 174.338 506.068L174.358 506.005C174.33 506.019 174.302 506.033 174.274 506.048C169.509 508.469 164.968 511.028 160.535 513.526C153.709 517.372 147.138 521.074 140.394 523.913C137.809 525.002 135.199 525.963 132.54 526.757C96.0129 537.701 58.1484 518.409 41.6243 482.535C26.6992 450.122 37.6633 408.947 67.7817 388.595C76.8381 382.468 79.8251 376.731 78.9723 365.505C75.6264 320.937 106.22 280.665 149.748 270.336C152.079 269.793 154.379 269.188 156.07 268.743L156.11 268.732C156.352 268.669 156.581 268.608 156.795 268.552C157.01 263.308 157.062 258.13 157.114 253.013C157.223 242.202 157.33 231.662 158.958 221.346C168.167 162.914 200.047 120.196 254.186 97.4637C314.442 72.1537 371.508 81.7516 422.048 123.836C430.14 130.543 435.124 131.231 444.206 125.883C466.475 112.794 490.512 107.939 513.429 110.615C518.612 82.9167 538.101 59.8889 565.566 49.8063C588.214 41.5175 612.864 44.0921 633.199 55.806C641.25 60.4442 648.625 66.5151 654.931 73.912C655.906 75.055 656.959 76.1721 658.267 77.5602L658.271 77.5649L658.274 77.5682C658.67 77.9875 659.088 78.4315 659.535 78.9084C660.256 77.9992 660.943 77.1638 661.602 76.3625L661.607 76.3567L661.609 76.3542C662.631 75.1122 663.585 73.9527 664.49 72.7286C665.305 71.6141 666.132 70.5231 666.972 69.4558C666.98 69.4448 666.989 69.4338 666.998 69.4228C667.076 69.3228 667.155 69.2229 667.234 69.1233C667.249 69.1047 667.264 69.0861 667.279 69.0675C667.535 68.7446 667.792 68.4239 668.05 68.1054C668.058 68.0957 668.066 68.086 668.074 68.0763C672.754 62.3117 677.795 57.2671 683.186 52.9689C700.448 39.205 721.285 33.0966 745.26 35.5182C779.77 38.9806 804.589 57.9146 818.006 90.26C820.637 96.6151 823.619 98.4121 830.153 97.5355C868.77 92.3037 902.07 116.208 913.653 147.935C918.021 148.326 922.386 149.119 926.696 150.341C937.156 153.301 943.431 151.897 951.416 144.061C983.145 112.979 1033.36 110.442 1069.1 136.908C1071.01 138.334 1072.95 139.694 1074.37 140.695C1074.58 140.846 1074.79 140.989 1074.98 141.122C1079.1 137.927 1083.07 134.651 1086.99 131.414C1095.28 124.574 1103.36 117.906 1112.24 112.537C1162.55 82.1191 1215.45 78.9935 1267.42 105.582C1325.27 135.169 1354.55 184.685 1354.95 250.044C1355.04 260.489 1357.71 264.718 1367.59 268.195C1422.7 287.632 1451.27 341.318 1437.81 398.112C1425.3 450.844 1373.13 485.652 1317.01 479.034C1313.49 478.609 1308.88 479.55 1306.08 481.613C1252.45 520.933 1188.67 504.622 1160.77 444.317C1160.5 443.77 1160.18 443.263 1159.78 442.647C1159.57 442.326 1159.34 441.976 1159.09 441.575C1103.81 459.785 1061.7 443.922 1032.99 391.396C1017.48 397.045 1002.13 399.06 987.195 397.194C975.79 395.769 964.626 392.081 953.812 386.022C951.681 397.101 946.652 407.936 938.479 417.534C938.427 417.596 938.374 417.657 938.321 417.719C924.086 434.365 902.92 442.68 881.974 441.238C873.304 440.64 864.672 438.372 856.586 434.33L856.578 434.326C854.007 433.02 851.435 431.713 847.786 429.889C847.767 429.879 847.748 429.869 847.728 429.86L847.772 429.903C847.666 430.073 847.559 430.243 847.452 430.412C837.299 446.484 825.098 459.614 808.044 467.421C774.061 482.98 741.963 479.561 711.97 457.34C708.112 454.491 705.525 453.089 700.613 456.025C663.254 478.465 624.886 475.792 591.165 448.969C590.27 448.253 589.294 447.639 588.347 447.043L588.345 447.042L588.343 447.041ZM586.771 488.355C603.883 498.439 622.521 504.598 642.226 505.895C663.404 507.289 684.158 502.958 703.778 493.907C719.572 503.335 736.639 509.438 754.845 511.355C778.024 513.797 800.827 509.219 822.613 499.244C837.436 492.458 849.331 483.119 859.111 472.642C896.979 483.208 938.641 471.187 964.91 440.479C967.743 437.173 970.337 433.747 972.692 430.22C987.38 433.33 1002.31 433.657 1017.17 431.428C1032.18 451.35 1050.69 466.721 1073.29 475.591C1095.27 484.22 1118.47 485.66 1141.95 481.806C1160.1 508.18 1185.49 526.639 1215.09 534.228C1250.18 543.224 1287.45 535.987 1320.12 514.469C1389.95 519.33 1455.53 475.084 1471.86 406.187L1471.86 406.185C1488.51 335.974 1455.15 267.755 1389.66 239.285C1386.11 166.388 1350.14 108.578 1283.36 74.4228C1219.99 42.0022 1154.22 46.2574 1094.14 82.5823C1094.13 82.5834 1094.13 82.5846 1094.13 82.5857C1086.19 87.3841 1078.93 92.8783 1072.58 97.9766C1028.43 75.1851 973.662 79.6802 934.465 112.251C914.987 83.1722 881.739 62.5612 843.066 61.8225C823.448 26.7488 790.805 4.91553 748.766 0.694182C748.762 0.693797 748.758 0.693412 748.754 0.693026C712.969 -2.91553 681.657 7.67178 656.91 29.3436C626.835 9.4155 588.672 4.07926 553.537 16.9384L553.504 16.9504C524.465 27.6111 501.37 48.7242 488.446 75.485C470.699 77.0974 453.053 82.072 436.26 90.4088C377.916 45.8402 310.171 35.9868 240.635 65.1931C240.634 65.1936 240.633 65.1942 240.631 65.1948C174.681 92.8883 135.374 146.181 124.385 215.891M425.859 96.0428C425.861 96.0387 425.94 95.9956 426.091 95.9261C425.933 96.0122 425.858 96.047 425.859 96.0428ZM445.235 97.5416C445.237 97.5486 445.14 97.4864 444.94 97.3339C445.133 97.4583 445.233 97.5345 445.235 97.5416ZM1378.6 234.941C1378.61 234.94 1378.69 234.972 1378.84 235.043C1378.67 234.978 1378.6 234.942 1378.6 234.941ZM1389.97 250.438C1390 250.666 1390 250.792 1390 250.799C1389.99 250.807 1389.98 250.693 1389.97 250.438ZM1326.78 509.839C1326.79 509.831 1326.8 509.824 1326.81 509.816L1326.8 509.817L1326.78 509.839ZM586.771 488.355C573.881 495.536 559.791 500.557 544.282 500.677C529.003 500.796 515.576 496.181 503.639 489.354C491.743 495.232 478.146 498.865 462.761 498.782L462.705 498.782L462.649 498.782C445.466 498.634 429.284 493.794 415.452 485.209C393.845 497.63 369.119 502.543 342.546 501.082C325.969 528.101 300.715 547.779 267.396 557.163L267.387 557.165C232.538 566.969 200.135 561.63 172.767 546.801C164.563 551.371 154.123 556.835 142.585 560.284C142.58 560.286 142.574 560.288 142.569 560.289C87.3625 576.821 32.7502 546.928 9.83452 497.178L9.83279 497.174C-11.4088 451.043 2.62157 393.705 43.7824 362.736C42.0882 309.53 74.6729 262.281 122.258 242.561C122.448 234.341 122.924 225.155 124.384 215.897M48.929 359.056C48.9294 359.056 48.9182 359.066 48.8943 359.085C48.9168 359.066 48.9287 359.056 48.929 359.056Z" fill="white"/>
</svg>
