<svg width="253" height="78" viewBox="0 0 253 78" fill="none" xmlns="http://www.w3.org/2000/svg">
<rect width="253" height="78" rx="39" fill="#78BAD5"/>
<path d="M22.9171 55.9328C22.3072 55.9328 21.7415 55.871 21.2199 55.7472C20.6984 55.6146 20.2343 55.429 19.8277 55.1903C19.6155 55.0754 19.4697 54.934 19.3901 54.766C19.3105 54.598 19.284 54.4345 19.3105 54.2754C19.3371 54.1074 19.4034 53.9616 19.5094 53.8378C19.6155 53.7141 19.7569 53.6345 19.9337 53.5992C20.1105 53.5638 20.3094 53.5992 20.5304 53.7052C20.7426 53.8202 20.9636 53.9174 21.1934 53.9969C21.4321 54.0677 21.6796 54.1207 21.9359 54.1561C22.2011 54.1914 22.4707 54.2091 22.7448 54.2091C23.1956 54.2091 23.5624 54.1649 23.8453 54.0765C24.1282 53.9793 24.3403 53.8378 24.4818 53.6522C24.6232 53.4666 24.6939 53.2323 24.6939 52.9494C24.6939 52.5782 24.5702 52.3041 24.3226 52.1274C24.0751 51.9417 23.6862 51.8489 23.1558 51.8489H21.631C21.3569 51.8489 21.1448 51.7826 20.9945 51.65C20.8531 51.5086 20.7823 51.3053 20.7823 51.0401C20.7823 50.7837 20.8531 50.5892 20.9945 50.4567C21.1448 50.3152 21.3569 50.2445 21.631 50.2445H22.9304C23.4431 50.2445 23.8232 50.1561 24.0707 49.9793C24.3182 49.8025 24.442 49.5285 24.442 49.1572C24.442 48.9274 24.3801 48.7285 24.2563 48.5605C24.1414 48.3837 23.9602 48.2467 23.7127 48.1495C23.474 48.0523 23.1558 48.0036 22.758 48.0036C22.4221 48.0036 22.0818 48.0434 21.737 48.123C21.3923 48.2025 21.0741 48.313 20.7823 48.4545C20.5525 48.5694 20.3492 48.6092 20.1724 48.5738C20.0045 48.5384 19.863 48.4589 19.7481 48.3351C19.642 48.2025 19.5757 48.0523 19.5492 47.8843C19.5315 47.7163 19.5625 47.5528 19.642 47.3937C19.7216 47.2257 19.8586 47.0887 20.0531 46.9827C20.4774 46.7528 20.9415 46.5804 21.4453 46.4655C21.9492 46.3506 22.4707 46.2932 23.01 46.2932C23.7878 46.2932 24.4287 46.4037 24.9326 46.6246C25.4453 46.8456 25.8298 47.1506 26.0862 47.5396C26.3425 47.9197 26.4707 48.3616 26.4707 48.8655C26.4707 49.4224 26.3072 49.8953 25.9801 50.2843C25.6619 50.6732 25.2287 50.934 24.6807 51.0666V50.8544C25.3171 50.9694 25.8121 51.2257 26.1657 51.6235C26.5281 52.0124 26.7094 52.5207 26.7094 53.1483C26.7094 53.6964 26.5723 54.1826 26.2983 54.6069C26.0243 55.0224 25.6044 55.3494 25.0387 55.5881C24.4818 55.8179 23.7746 55.9328 22.9171 55.9328ZM28.5237 57.6301C28.2586 57.6301 28.0508 57.5505 27.9005 57.3914C27.7503 57.2411 27.6751 57.0245 27.6751 56.7417V55.1638C27.6751 54.5538 27.9757 54.2489 28.5768 54.2489H29.3856L28.1923 54.6732C28.4132 54.3726 28.5856 54.0632 28.7094 53.745C28.842 53.4179 28.9348 53.0467 28.9878 52.6312C29.0497 52.2069 29.0806 51.6942 29.0806 51.0931V50.4036C29.0806 50.0412 29.1735 49.7627 29.3591 49.5683C29.5536 49.3738 29.832 49.2766 30.1944 49.2766H33.2972C33.6596 49.2766 33.9381 49.3738 34.1325 49.5683C34.327 49.7627 34.4242 50.0412 34.4242 50.4036V55.1903L33.4828 54.2489H34.5966C34.8883 54.2489 35.1093 54.3284 35.2596 54.4876C35.4187 54.6378 35.4983 54.8632 35.4983 55.1638V56.7417C35.4983 57.3339 35.2154 57.6301 34.6497 57.6301C34.3756 57.6301 34.1635 57.5505 34.0132 57.3914C33.8718 57.2411 33.801 57.0245 33.801 56.7417V55.787H29.3591V56.7417C29.3591 57.3339 29.0806 57.6301 28.5237 57.6301ZM30.221 54.2621H32.5546V50.8014H30.7779V51.597C30.7779 52.0832 30.7292 52.5649 30.632 53.0423C30.5348 53.5196 30.3978 53.9262 30.221 54.2621ZM39.7256 55.9328C39.0272 55.9328 38.4173 55.7958 37.8958 55.5218C37.3831 55.2478 36.9853 54.8544 36.7024 54.3417C36.4195 53.829 36.2781 53.2235 36.2781 52.5251C36.2781 52.0036 36.3576 51.5351 36.5168 51.1196C36.6759 50.7042 36.9057 50.3506 37.2063 50.0589C37.5156 49.7583 37.8825 49.5329 38.3068 49.3826C38.7311 49.2235 39.204 49.144 39.7256 49.144C40.4239 49.144 41.0294 49.281 41.5421 49.555C42.0637 49.829 42.4659 50.218 42.7487 50.7218C43.0405 51.2257 43.1863 51.8268 43.1863 52.5251C43.1863 53.0555 43.1023 53.5284 42.9344 53.9439C42.7753 54.3594 42.5454 54.7174 42.2449 55.0179C41.9443 55.3185 41.5775 55.5483 41.1443 55.7074C40.72 55.8577 40.2471 55.9328 39.7256 55.9328ZM39.7256 54.4345C40.0173 54.4345 40.2692 54.3638 40.4814 54.2224C40.6935 54.0809 40.8615 53.8732 40.9852 53.5992C41.109 53.3163 41.1709 52.9583 41.1709 52.5251C41.1709 51.8798 41.0383 51.4069 40.7731 51.1064C40.5079 50.797 40.1587 50.6423 39.7256 50.6423C39.4427 50.6423 39.1908 50.7086 38.9698 50.8412C38.7576 50.9738 38.5897 51.1815 38.4659 51.4644C38.351 51.7384 38.2935 52.092 38.2935 52.5251C38.2935 53.1704 38.4261 53.6522 38.6913 53.9704C38.9565 54.2798 39.3013 54.4345 39.7256 54.4345ZM45.6064 58.293C45.2793 58.293 45.0274 58.2046 44.8506 58.0279C44.6826 57.8599 44.5987 57.608 44.5987 57.2721V50.1782C44.5987 49.8511 44.6826 49.6036 44.8506 49.4357C45.0274 49.2589 45.2705 49.1705 45.5799 49.1705C45.9069 49.1705 46.1544 49.2589 46.3224 49.4357C46.4904 49.6036 46.5743 49.8511 46.5743 50.1782V51.0798L46.4285 50.5627C46.5611 50.1384 46.8263 49.7981 47.224 49.5417C47.6307 49.2766 48.0948 49.144 48.6163 49.144C49.182 49.144 49.6771 49.281 50.1014 49.555C50.5345 49.829 50.8704 50.218 51.1091 50.7218C51.3478 51.2257 51.4671 51.8268 51.4671 52.5251C51.4671 53.2235 51.3478 53.829 51.1091 54.3417C50.8704 54.8544 50.5389 55.2478 50.1146 55.5218C49.6903 55.7958 49.1909 55.9328 48.6163 55.9328C48.1036 55.9328 47.6484 55.8091 47.2506 55.5616C46.8528 55.3052 46.5832 54.9737 46.4417 54.5671H46.6009V57.2721C46.6009 57.608 46.5125 57.8599 46.3357 58.0279C46.1677 58.2046 45.9246 58.293 45.6064 58.293ZM48.0196 54.4345C48.3025 54.4345 48.55 54.3638 48.7622 54.2224C48.9831 54.0809 49.1511 53.8732 49.266 53.5992C49.3898 53.3163 49.4517 52.9583 49.4517 52.5251C49.4517 51.8798 49.3191 51.4069 49.0539 51.1064C48.7887 50.797 48.4439 50.6423 48.0196 50.6423C47.7368 50.6423 47.4848 50.7086 47.2638 50.8412C47.0517 50.9738 46.8837 51.1815 46.76 51.4644C46.6362 51.7384 46.5743 52.092 46.5743 52.5251C46.5743 53.1704 46.7069 53.6522 46.9721 53.9704C47.2373 54.2798 47.5865 54.4345 48.0196 54.4345ZM56.0281 55.9328C55.3297 55.9328 54.7198 55.7958 54.1983 55.5218C53.6856 55.2478 53.2878 54.8544 53.0049 54.3417C52.722 53.829 52.5806 53.2235 52.5806 52.5251C52.5806 52.0036 52.6602 51.5351 52.8193 51.1196C52.9784 50.7042 53.2082 50.3506 53.5088 50.0589C53.8182 49.7583 54.185 49.5329 54.6093 49.3826C55.0336 49.2235 55.5065 49.144 56.0281 49.144C56.7264 49.144 57.3319 49.281 57.8446 49.555C58.3662 49.829 58.7684 50.218 59.0513 50.7218C59.343 51.2257 59.4888 51.8268 59.4888 52.5251C59.4888 53.0555 59.4048 53.5284 59.2369 53.9439C59.0778 54.3594 58.8479 54.7174 58.5474 55.0179C58.2468 55.3185 57.88 55.5483 57.4468 55.7074C57.0225 55.8577 56.5496 55.9328 56.0281 55.9328ZM56.0281 54.4345C56.3198 54.4345 56.5717 54.3638 56.7839 54.2224C56.996 54.0809 57.164 53.8732 57.2877 53.5992C57.4115 53.3163 57.4734 52.9583 57.4734 52.5251C57.4734 51.8798 57.3408 51.4069 57.0756 51.1064C56.8104 50.797 56.4612 50.6423 56.0281 50.6423C55.7452 50.6423 55.4933 50.7086 55.2723 50.8412C55.0601 50.9738 54.8922 51.1815 54.7684 51.4644C54.6535 51.7384 54.596 52.092 54.596 52.5251C54.596 53.1704 54.7286 53.6522 54.9938 53.9704C55.259 54.2798 55.6038 54.4345 56.0281 54.4345ZM61.8691 55.787C61.5597 55.787 61.3211 55.703 61.1531 55.5351C60.9851 55.3671 60.9012 55.124 60.9012 54.8058V50.2578C60.9012 49.9395 60.9851 49.6964 61.1531 49.5285C61.3211 49.3605 61.5597 49.2766 61.8691 49.2766H64.6006C65.1928 49.2766 65.6658 49.3473 66.0193 49.4887C66.3818 49.6213 66.6425 49.8158 66.8017 50.0721C66.9608 50.3196 67.0403 50.6246 67.0403 50.987C67.0403 51.3848 66.9033 51.7251 66.6293 52.008C66.3553 52.282 65.9928 52.4544 65.542 52.5251V52.3262C66.1343 52.3704 66.5718 52.5384 66.8547 52.8301C67.1376 53.1218 67.279 53.4975 67.279 53.9572C67.279 54.5141 67.058 54.9605 66.616 55.2964C66.1829 55.6235 65.5464 55.787 64.7067 55.787H61.8691ZM62.7442 54.5936H64.5078C64.826 54.5936 65.0647 54.5318 65.2238 54.408C65.3917 54.2754 65.4757 54.0809 65.4757 53.8246C65.4757 53.5682 65.3917 53.3782 65.2238 53.2544C65.0647 53.1218 64.826 53.0555 64.5078 53.0555H62.7442V54.5936ZM62.7442 51.8754H64.3884C64.6536 51.8754 64.8613 51.8135 65.0116 51.6898C65.1619 51.5572 65.237 51.3804 65.237 51.1594C65.237 50.9296 65.1619 50.7572 65.0116 50.6423C64.8613 50.5274 64.6536 50.4699 64.3884 50.4699H62.7442V51.8754ZM71.7349 55.9328C71.0366 55.9328 70.4267 55.7958 69.9051 55.5218C69.3924 55.2478 68.9946 54.8544 68.7118 54.3417C68.4289 53.829 68.2875 53.2235 68.2875 52.5251C68.2875 52.0036 68.367 51.5351 68.5261 51.1196C68.6852 50.7042 68.9151 50.3506 69.2156 50.0589C69.525 49.7583 69.8919 49.5329 70.3162 49.3826C70.7405 49.2235 71.2134 49.144 71.7349 49.144C72.4333 49.144 73.0388 49.281 73.5515 49.555C74.073 49.829 74.4752 50.218 74.7581 50.7218C75.0498 51.2257 75.1957 51.8268 75.1957 52.5251C75.1957 53.0555 75.1117 53.5284 74.9437 53.9439C74.7846 54.3594 74.5548 54.7174 74.2542 55.0179C73.9537 55.3185 73.5869 55.5483 73.1537 55.7074C72.7294 55.8577 72.2565 55.9328 71.7349 55.9328ZM71.7349 54.4345C72.0266 54.4345 72.2786 54.3638 72.4907 54.2224C72.7029 54.0809 72.8708 53.8732 72.9946 53.5992C73.1183 53.3163 73.1802 52.9583 73.1802 52.5251C73.1802 51.8798 73.0476 51.4069 72.7824 51.1064C72.5172 50.797 72.1681 50.6423 71.7349 50.6423C71.4521 50.6423 71.2001 50.7086 70.9791 50.8412C70.767 50.9738 70.599 51.1815 70.4753 51.4644C70.3604 51.7384 70.3029 52.092 70.3029 52.5251C70.3029 53.1704 70.4355 53.6522 70.7007 53.9704C70.9659 54.2798 71.3106 54.4345 71.7349 54.4345ZM77.6157 55.9063C77.2887 55.9063 77.0367 55.8179 76.86 55.6411C76.692 55.4555 76.608 55.1991 76.608 54.8721V50.4036C76.608 50.0412 76.7008 49.7627 76.8865 49.5683C77.0809 49.3738 77.3594 49.2766 77.7218 49.2766H81.0235C81.2975 49.2766 81.5052 49.3428 81.6467 49.4754C81.7881 49.608 81.8588 49.8025 81.8588 50.0589C81.8588 50.3152 81.7881 50.5097 81.6467 50.6423C81.5052 50.7749 81.2975 50.8412 81.0235 50.8412H78.6102V54.8721C78.6102 55.5616 78.2787 55.9063 77.6157 55.9063ZM85.9656 55.9328C85.2673 55.9328 84.6574 55.7958 84.1358 55.5218C83.6231 55.2478 83.2253 54.8544 82.9425 54.3417C82.6596 53.829 82.5182 53.2235 82.5182 52.5251C82.5182 52.0036 82.5977 51.5351 82.7568 51.1196C82.9159 50.7042 83.1458 50.3506 83.4463 50.0589C83.7557 49.7583 84.1226 49.5329 84.5469 49.3826C84.9712 49.2235 85.4441 49.144 85.9656 49.144C86.664 49.144 87.2695 49.281 87.7822 49.555C88.3037 49.829 88.7059 50.218 88.9888 50.7218C89.2805 51.2257 89.4264 51.8268 89.4264 52.5251C89.4264 53.0555 89.3424 53.5284 89.1744 53.9439C89.0153 54.3594 88.7855 54.7174 88.4849 55.0179C88.1844 55.3185 87.8176 55.5483 87.3844 55.7074C86.9601 55.8577 86.4872 55.9328 85.9656 55.9328ZM85.9656 54.4345C86.2573 54.4345 86.5093 54.3638 86.7214 54.2224C86.9336 54.0809 87.1015 53.8732 87.2253 53.5992C87.349 53.3163 87.4109 52.9583 87.4109 52.5251C87.4109 51.8798 87.2783 51.4069 87.0131 51.1064C86.7479 50.797 86.3988 50.6423 85.9656 50.6423C85.6828 50.6423 85.4308 50.7086 85.2098 50.8412C84.9977 50.9738 84.8297 51.1815 84.706 51.4644C84.5911 51.7384 84.5336 52.092 84.5336 52.5251C84.5336 53.1704 84.6662 53.6522 84.9314 53.9704C85.1966 54.2798 85.5413 54.4345 85.9656 54.4345ZM95.5498 55.9063C95.2227 55.9063 94.9708 55.8179 94.794 55.6411C94.6261 55.4643 94.5421 55.2124 94.5421 54.8853V50.1915C94.5421 49.8644 94.6261 49.6125 94.794 49.4357C94.9708 49.2589 95.2227 49.1705 95.5498 49.1705C95.868 49.1705 96.1111 49.2589 96.2791 49.4357C96.4559 49.6125 96.5443 49.8644 96.5443 50.1915V51.703H97.3266L98.8116 49.6346C98.9531 49.4312 99.1166 49.2987 99.3023 49.2368C99.4967 49.1749 99.6824 49.1705 99.8592 49.2235C100.036 49.2766 100.182 49.3738 100.297 49.5152C100.412 49.6478 100.474 49.8069 100.482 49.9926C100.5 50.1782 100.434 50.3771 100.283 50.5892L98.8514 52.6047L98.4536 51.955C98.6923 51.9815 98.9089 52.0522 99.1034 52.1671C99.2978 52.282 99.4746 52.4323 99.6337 52.618C99.7929 52.7948 99.9431 53.0113 100.085 53.2677L100.787 54.5538C100.911 54.7748 100.951 54.9826 100.907 55.177C100.871 55.3627 100.778 55.5174 100.628 55.6411C100.487 55.7649 100.319 55.84 100.124 55.8665C99.9299 55.9019 99.7398 55.8798 99.5542 55.8002C99.3685 55.7207 99.2139 55.566 99.0901 55.3362L98.2813 53.9041C98.1929 53.7273 98.1001 53.5903 98.0028 53.4931C97.9056 53.3958 97.7951 53.3296 97.6713 53.2942C97.5564 53.2588 97.4194 53.2412 97.2603 53.2412H96.5443V54.8853C96.5443 55.2124 96.4559 55.4643 96.2791 55.6411C96.1111 55.8179 95.868 55.9063 95.5498 55.9063ZM103.149 55.9063C102.946 55.9063 102.773 55.8665 102.632 55.787C102.49 55.7074 102.384 55.5925 102.314 55.4422C102.252 55.2831 102.221 55.0798 102.221 54.8323V50.1252C102.221 49.8158 102.3 49.5815 102.459 49.4224C102.618 49.2545 102.839 49.1705 103.122 49.1705C103.414 49.1705 103.635 49.2545 103.785 49.4224C103.944 49.5815 104.024 49.8158 104.024 50.1252V53.692H103.666L106.596 49.8069C106.702 49.6655 106.839 49.5241 107.007 49.3826C107.175 49.2412 107.414 49.1705 107.723 49.1705C107.927 49.1705 108.095 49.2103 108.227 49.2898C108.369 49.3605 108.47 49.4754 108.532 49.6346C108.603 49.7848 108.638 49.9837 108.638 50.2312V54.9516C108.638 55.2522 108.559 55.4864 108.4 55.6544C108.249 55.8223 108.033 55.9063 107.75 55.9063C107.449 55.9063 107.22 55.8223 107.06 55.6544C106.91 55.4864 106.835 55.2522 106.835 54.9516V51.3716H107.206L104.263 55.2566C104.157 55.4069 104.02 55.5527 103.852 55.6942C103.693 55.8356 103.458 55.9063 103.149 55.9063ZM111.359 55.787C111.05 55.787 110.811 55.703 110.643 55.5351C110.475 55.3671 110.391 55.124 110.391 54.8058V50.1782C110.391 49.8423 110.471 49.5904 110.63 49.4224C110.798 49.2545 111.032 49.1705 111.333 49.1705C111.633 49.1705 111.863 49.2545 112.022 49.4224C112.181 49.5904 112.261 49.8423 112.261 50.1782V54.2356H114.223V50.1782C114.223 49.8423 114.303 49.5904 114.462 49.4224C114.63 49.2545 114.864 49.1705 115.165 49.1705C115.465 49.1705 115.695 49.2545 115.854 49.4224C116.013 49.5904 116.093 49.8423 116.093 50.1782V54.2356H118.055V50.1782C118.055 49.8423 118.135 49.5904 118.294 49.4224C118.462 49.2545 118.696 49.1705 118.997 49.1705C119.297 49.1705 119.527 49.2545 119.686 49.4224C119.845 49.5904 119.925 49.8423 119.925 50.1782V54.8058C119.925 55.124 119.841 55.3671 119.673 55.5351C119.505 55.703 119.266 55.787 118.957 55.787H111.359ZM125.051 55.9328C124.282 55.9328 123.619 55.7958 123.062 55.5218C122.514 55.2389 122.09 54.8456 121.789 54.3417C121.497 53.829 121.352 53.2279 121.352 52.5384C121.352 51.8666 121.493 51.2787 121.776 50.7749C122.059 50.2622 122.452 49.8644 122.956 49.5815C123.469 49.2898 124.048 49.144 124.693 49.144C125.161 49.144 125.586 49.2235 125.966 49.3826C126.346 49.5329 126.673 49.7539 126.947 50.0456C127.221 50.3285 127.429 50.6776 127.57 51.0931C127.712 51.4997 127.782 51.955 127.782 52.4588C127.782 52.6268 127.729 52.755 127.623 52.8434C127.517 52.9229 127.363 52.9627 127.159 52.9627H122.996V51.9285H126.337L126.125 52.1141C126.125 51.7517 126.072 51.4511 125.966 51.2124C125.86 50.9649 125.705 50.7793 125.502 50.6555C125.307 50.5318 125.064 50.4699 124.772 50.4699C124.445 50.4699 124.167 50.545 123.937 50.6953C123.707 50.8456 123.531 51.0622 123.407 51.345C123.283 51.6279 123.221 51.9682 123.221 52.366V52.4721C123.221 53.1439 123.376 53.6389 123.685 53.9572C124.003 54.2754 124.472 54.4345 125.091 54.4345C125.303 54.4345 125.546 54.408 125.82 54.355C126.094 54.3019 126.35 54.2179 126.589 54.103C126.792 54.0058 126.974 53.9748 127.133 54.0102C127.292 54.0367 127.416 54.1074 127.504 54.2224C127.592 54.3373 127.641 54.4699 127.65 54.6201C127.667 54.7704 127.637 54.9207 127.557 55.071C127.477 55.2124 127.345 55.3317 127.159 55.429C126.859 55.5969 126.518 55.7207 126.138 55.8002C125.767 55.8886 125.405 55.9328 125.051 55.9328ZM134.206 55.9063C133.888 55.9063 133.645 55.8135 133.477 55.6279C133.309 55.4422 133.225 55.177 133.225 54.8323V53.5992C132.995 53.6964 132.761 53.7671 132.522 53.8113C132.292 53.8555 132.062 53.8776 131.833 53.8776C130.843 53.8776 130.104 53.6389 129.618 53.1616C129.132 52.6754 128.889 51.955 128.889 51.0003V50.1782C128.889 49.8511 128.973 49.6036 129.141 49.4357C129.318 49.2589 129.565 49.1705 129.883 49.1705C130.202 49.1705 130.449 49.2589 130.626 49.4357C130.803 49.6036 130.891 49.8511 130.891 50.1782V50.8147C130.891 51.3274 130.988 51.6986 131.183 51.9285C131.386 52.1583 131.731 52.2732 132.217 52.2732C132.403 52.2732 132.575 52.2555 132.734 52.2202C132.902 52.176 133.052 52.1097 133.185 52.0213V50.2312C133.185 49.5241 133.521 49.1705 134.193 49.1705C134.529 49.1705 134.776 49.2633 134.935 49.4489C135.103 49.6257 135.187 49.8865 135.187 50.2312V54.8323C135.187 55.177 135.108 55.4422 134.949 55.6279C134.789 55.8135 134.542 55.9063 134.206 55.9063ZM137.944 55.9063C137.617 55.9063 137.365 55.8179 137.188 55.6411C137.02 55.4643 136.936 55.2124 136.936 54.8853V50.1782C136.936 49.8423 137.02 49.5904 137.188 49.4224C137.365 49.2545 137.617 49.1705 137.944 49.1705C138.262 49.1705 138.505 49.2545 138.673 49.4224C138.85 49.5904 138.939 49.8423 138.939 50.1782V51.6898H141.418V50.1782C141.418 49.8423 141.502 49.5904 141.67 49.4224C141.838 49.2545 142.085 49.1705 142.413 49.1705C142.731 49.1705 142.978 49.2545 143.155 49.4224C143.332 49.5904 143.42 49.8423 143.42 50.1782V54.8853C143.42 55.2124 143.332 55.4643 143.155 55.6411C142.978 55.8179 142.731 55.9063 142.413 55.9063C142.085 55.9063 141.838 55.8179 141.67 55.6411C141.502 55.4643 141.418 55.2124 141.418 54.8853V53.2412H138.939V54.8853C138.939 55.2124 138.855 55.4643 138.687 55.6411C138.519 55.8179 138.271 55.9063 137.944 55.9063ZM146.087 55.9063C145.884 55.9063 145.711 55.8665 145.57 55.787C145.428 55.7074 145.322 55.5925 145.252 55.4422C145.19 55.2831 145.159 55.0798 145.159 54.8323V50.1252C145.159 49.8158 145.238 49.5815 145.397 49.4224C145.557 49.2545 145.778 49.1705 146.06 49.1705C146.352 49.1705 146.573 49.2545 146.723 49.4224C146.883 49.5815 146.962 49.8158 146.962 50.1252V53.692H146.604L149.534 49.8069C149.641 49.6655 149.778 49.5241 149.946 49.3826C150.113 49.2412 150.352 49.1705 150.662 49.1705C150.865 49.1705 151.033 49.2103 151.165 49.2898C151.307 49.3605 151.408 49.4754 151.47 49.6346C151.541 49.7848 151.576 49.9837 151.576 50.2312V54.9516C151.576 55.2522 151.497 55.4864 151.338 55.6544C151.187 55.8223 150.971 55.9063 150.688 55.9063C150.388 55.9063 150.158 55.8223 149.999 55.6544C149.848 55.4864 149.773 55.2522 149.773 54.9516V51.3716H150.144L147.201 55.2566C147.095 55.4069 146.958 55.5527 146.79 55.6942C146.631 55.8356 146.396 55.9063 146.087 55.9063ZM154.337 55.9063C154.01 55.9063 153.758 55.8179 153.581 55.6411C153.413 55.4643 153.33 55.2124 153.33 54.8853V50.1915C153.33 49.8644 153.413 49.6125 153.581 49.4357C153.758 49.2589 154.01 49.1705 154.337 49.1705C154.655 49.1705 154.899 49.2589 155.067 49.4357C155.243 49.6125 155.332 49.8644 155.332 50.1915V51.703H156.114L157.599 49.6346C157.741 49.4312 157.904 49.2987 158.09 49.2368C158.284 49.1749 158.47 49.1705 158.647 49.2235C158.823 49.2766 158.969 49.3738 159.084 49.5152C159.199 49.6478 159.261 49.8069 159.27 49.9926C159.287 50.1782 159.221 50.3771 159.071 50.5892L157.639 52.6047L157.241 51.955C157.48 51.9815 157.696 52.0522 157.891 52.1671C158.085 52.282 158.262 52.4323 158.421 52.618C158.58 52.7948 158.731 53.0113 158.872 53.2677L159.575 54.5538C159.699 54.7748 159.738 54.9826 159.694 55.177C159.659 55.3627 159.566 55.5174 159.416 55.6411C159.274 55.7649 159.106 55.84 158.912 55.8665C158.717 55.9019 158.527 55.8798 158.342 55.8002C158.156 55.7207 158.001 55.566 157.878 55.3362L157.069 53.9041C156.98 53.7273 156.887 53.5903 156.79 53.4931C156.693 53.3958 156.583 53.3296 156.459 53.2942C156.344 53.2588 156.207 53.2412 156.048 53.2412H155.332V54.8853C155.332 55.2124 155.243 55.4643 155.067 55.6411C154.899 55.8179 154.655 55.9063 154.337 55.9063ZM163.209 55.9328C162.732 55.9328 162.303 55.84 161.923 55.6544C161.543 55.4688 161.247 55.2168 161.035 54.8986C160.822 54.5804 160.716 54.2224 160.716 53.8246C160.716 53.3472 160.84 52.9715 161.088 52.6975C161.335 52.4146 161.737 52.2158 162.294 52.1008C162.851 51.9771 163.589 51.9152 164.509 51.9152H165.211V52.9494H164.522C164.071 52.9494 163.704 52.976 163.421 53.029C163.147 53.0732 162.948 53.1528 162.825 53.2677C162.71 53.3826 162.652 53.5417 162.652 53.745C162.652 53.9925 162.736 54.1958 162.904 54.355C163.081 54.5141 163.333 54.5936 163.66 54.5936C163.916 54.5936 164.142 54.5362 164.336 54.4213C164.54 54.2975 164.699 54.134 164.814 53.9307C164.929 53.7185 164.986 53.4798 164.986 53.2146V51.6898C164.986 51.3008 164.898 51.0268 164.721 50.8677C164.544 50.6997 164.243 50.6158 163.819 50.6158C163.58 50.6158 163.32 50.6467 163.037 50.7086C162.763 50.7616 162.458 50.8544 162.122 50.987C161.927 51.0754 161.755 51.0975 161.605 51.0533C161.455 51.0003 161.34 50.9119 161.26 50.7881C161.18 50.6555 161.141 50.5141 161.141 50.3638C161.141 50.2047 161.185 50.0544 161.273 49.913C161.362 49.7627 161.508 49.6522 161.711 49.5815C162.126 49.4136 162.515 49.2987 162.878 49.2368C163.249 49.1749 163.589 49.144 163.899 49.144C164.579 49.144 165.136 49.2456 165.569 49.4489C166.011 49.6434 166.343 49.9484 166.564 50.3638C166.785 50.7705 166.895 51.2964 166.895 51.9417V54.8853C166.895 55.2124 166.816 55.4643 166.657 55.6411C166.498 55.8179 166.268 55.9063 165.967 55.9063C165.667 55.9063 165.432 55.8179 165.264 55.6411C165.105 55.4643 165.026 55.2124 165.026 54.8853V54.3947L165.119 54.4743C165.066 54.7748 164.951 55.0356 164.774 55.2566C164.606 55.4688 164.389 55.6367 164.124 55.7605C163.859 55.8754 163.554 55.9328 163.209 55.9328ZM173.188 55.9063C172.905 55.9063 172.688 55.8268 172.538 55.6677C172.388 55.4997 172.312 55.2654 172.312 54.9649V50.271C172.312 50.0323 172.343 49.8335 172.405 49.6743C172.467 49.5064 172.569 49.3826 172.71 49.3031C172.852 49.2147 173.024 49.1705 173.227 49.1705C173.422 49.1705 173.585 49.2014 173.718 49.2633C173.851 49.3252 173.965 49.4091 174.063 49.5152C174.16 49.6213 174.248 49.7451 174.328 49.8865L176.091 52.8301L177.842 49.8997C177.912 49.7672 177.992 49.6478 178.08 49.5417C178.178 49.4357 178.292 49.3473 178.425 49.2766C178.566 49.2058 178.734 49.1705 178.929 49.1705C179.247 49.1705 179.481 49.2677 179.632 49.4622C179.782 49.6478 179.857 49.9174 179.857 50.271V54.9649C179.857 55.2654 179.782 55.4997 179.632 55.6677C179.481 55.8268 179.26 55.9063 178.969 55.9063C178.695 55.9063 178.478 55.8268 178.319 55.6677C178.169 55.4997 178.094 55.2654 178.094 54.9649V51.597H178.425L176.754 54.3815C176.692 54.4787 176.613 54.5715 176.516 54.6599C176.418 54.7483 176.277 54.7925 176.091 54.7925C175.906 54.7925 175.764 54.7483 175.667 54.6599C175.57 54.5715 175.486 54.4787 175.415 54.3815L173.731 51.597H174.063V54.9649C174.063 55.2654 173.988 55.4997 173.837 55.6677C173.687 55.8268 173.47 55.9063 173.188 55.9063ZM183.798 55.9328C183.32 55.9328 182.892 55.84 182.512 55.6544C182.131 55.4688 181.835 55.2168 181.623 54.8986C181.411 54.5804 181.305 54.2224 181.305 53.8246C181.305 53.3472 181.429 52.9715 181.676 52.6975C181.924 52.4146 182.326 52.2158 182.883 52.1008C183.44 51.9771 184.178 51.9152 185.097 51.9152H185.8V52.9494H185.11C184.66 52.9494 184.293 52.976 184.01 53.029C183.736 53.0732 183.537 53.1528 183.413 53.2677C183.298 53.3826 183.241 53.5417 183.241 53.745C183.241 53.9925 183.325 54.1958 183.493 54.355C183.67 54.5141 183.922 54.5936 184.249 54.5936C184.505 54.5936 184.73 54.5362 184.925 54.4213C185.128 54.2975 185.287 54.134 185.402 53.9307C185.517 53.7185 185.575 53.4798 185.575 53.2146V51.6898C185.575 51.3008 185.486 51.0268 185.309 50.8677C185.133 50.6997 184.832 50.6158 184.408 50.6158C184.169 50.6158 183.908 50.6467 183.625 50.7086C183.351 50.7616 183.046 50.8544 182.71 50.987C182.516 51.0754 182.344 51.0975 182.193 51.0533C182.043 51.0003 181.928 50.9119 181.849 50.7881C181.769 50.6555 181.729 50.5141 181.729 50.3638C181.729 50.2047 181.773 50.0544 181.862 49.913C181.95 49.7627 182.096 49.6522 182.299 49.5815C182.715 49.4136 183.104 49.2987 183.466 49.2368C183.838 49.1749 184.178 49.144 184.487 49.144C185.168 49.144 185.725 49.2456 186.158 49.4489C186.6 49.6434 186.931 49.9484 187.152 50.3638C187.373 50.7705 187.484 51.2964 187.484 51.9417V54.8853C187.484 55.2124 187.404 55.4643 187.245 55.6411C187.086 55.8179 186.856 55.9063 186.556 55.9063C186.255 55.9063 186.021 55.8179 185.853 55.6411C185.694 55.4643 185.614 55.2124 185.614 54.8853V54.3947L185.707 54.4743C185.654 54.7748 185.539 55.0356 185.362 55.2566C185.194 55.4688 184.978 55.6367 184.713 55.7605C184.447 55.8754 184.143 55.9328 183.798 55.9328ZM194.541 55.9063C194.214 55.9063 193.962 55.8179 193.785 55.6411C193.617 55.4643 193.533 55.2124 193.533 54.8853V50.8279H191.836V51.5572C191.836 52.1229 191.796 52.6356 191.717 53.0953C191.637 53.555 191.518 53.9616 191.359 54.3152C191.2 54.6688 190.996 54.9693 190.749 55.2168C190.501 55.4555 190.205 55.6456 189.861 55.787C189.631 55.8842 189.423 55.9107 189.237 55.8665C189.052 55.8223 188.897 55.7384 188.773 55.6146C188.658 55.4909 188.583 55.345 188.548 55.177C188.521 55.0003 188.543 54.8279 188.614 54.6599C188.694 54.4831 188.835 54.3329 189.038 54.2091C189.233 54.103 189.392 53.966 189.516 53.7981C189.64 53.6301 189.737 53.4312 189.808 53.2014C189.878 52.9715 189.927 52.7196 189.953 52.4456C189.989 52.1627 190.006 51.8445 190.006 51.4909V50.4036C190.006 50.0412 190.099 49.7627 190.285 49.5683C190.479 49.3738 190.758 49.2766 191.12 49.2766H194.422C194.784 49.2766 195.058 49.3738 195.244 49.5683C195.438 49.7627 195.536 50.0412 195.536 50.4036V54.8853C195.536 55.2124 195.447 55.4643 195.27 55.6411C195.103 55.8179 194.859 55.9063 194.541 55.9063ZM198.259 55.787C197.949 55.787 197.71 55.703 197.543 55.5351C197.375 55.3671 197.291 55.124 197.291 54.8058V50.1782C197.291 49.8423 197.375 49.5904 197.543 49.4224C197.719 49.2545 197.971 49.1705 198.298 49.1705C198.617 49.1705 198.86 49.2545 199.028 49.4224C199.204 49.5904 199.293 49.8423 199.293 50.1782V51.345H200.857C201.733 51.345 202.391 51.5307 202.833 51.9019C203.284 52.2644 203.509 52.8036 203.509 53.5196C203.509 53.9704 203.399 54.3682 203.178 54.713C202.957 55.0489 202.647 55.3141 202.25 55.5085C201.861 55.6942 201.397 55.787 200.857 55.787H198.259ZM199.293 54.5008H200.513C200.875 54.5008 201.158 54.4213 201.361 54.2621C201.573 54.103 201.679 53.8644 201.679 53.5461C201.679 53.2279 201.578 52.9936 201.375 52.8434C201.171 52.6931 200.884 52.618 200.513 52.618H199.293V54.5008ZM205.18 55.9063C204.862 55.9063 204.614 55.8179 204.437 55.6411C204.27 55.4643 204.186 55.2124 204.186 54.8853V50.1782C204.186 49.8423 204.27 49.5904 204.437 49.4224C204.614 49.2545 204.862 49.1705 205.18 49.1705C205.507 49.1705 205.755 49.2545 205.923 49.4224C206.099 49.5904 206.188 49.8423 206.188 50.1782V54.8853C206.188 55.566 205.852 55.9063 205.18 55.9063ZM208.902 55.787C208.593 55.787 208.354 55.703 208.186 55.5351C208.018 55.3671 207.934 55.124 207.934 54.8058V50.1782C207.934 49.8423 208.014 49.5904 208.173 49.4224C208.341 49.2545 208.575 49.1705 208.876 49.1705C209.176 49.1705 209.406 49.2545 209.565 49.4224C209.725 49.5904 209.804 49.8423 209.804 50.1782V54.2356H211.766V50.1782C211.766 49.8423 211.846 49.5904 212.005 49.4224C212.173 49.2545 212.407 49.1705 212.708 49.1705C213.008 49.1705 213.238 49.2545 213.397 49.4224C213.557 49.5904 213.636 49.8423 213.636 50.1782V54.2356H215.598V50.1782C215.598 49.8423 215.678 49.5904 215.837 49.4224C216.005 49.2545 216.239 49.1705 216.54 49.1705C216.84 49.1705 217.07 49.2545 217.229 49.4224C217.389 49.5904 217.468 49.8423 217.468 50.1782V54.8058C217.468 55.124 217.384 55.3671 217.216 55.5351C217.048 55.703 216.81 55.787 216.5 55.787H208.902ZM222.594 55.9328C221.825 55.9328 221.162 55.7958 220.605 55.5218C220.057 55.2389 219.633 54.8456 219.332 54.3417C219.04 53.829 218.895 53.2279 218.895 52.5384C218.895 51.8666 219.036 51.2787 219.319 50.7749C219.602 50.2622 219.995 49.8644 220.499 49.5815C221.012 49.2898 221.591 49.144 222.236 49.144C222.705 49.144 223.129 49.2235 223.509 49.3826C223.889 49.5329 224.216 49.7539 224.49 50.0456C224.764 50.3285 224.972 50.6776 225.113 51.0931C225.255 51.4997 225.326 51.955 225.326 52.4588C225.326 52.6268 225.272 52.755 225.166 52.8434C225.06 52.9229 224.906 52.9627 224.702 52.9627H220.539V51.9285H223.88L223.668 52.1141C223.668 51.7517 223.615 51.4511 223.509 51.2124C223.403 50.9649 223.248 50.7793 223.045 50.6555C222.85 50.5318 222.607 50.4699 222.316 50.4699C221.989 50.4699 221.71 50.545 221.48 50.6953C221.25 50.8456 221.074 51.0622 220.95 51.345C220.826 51.6279 220.764 51.9682 220.764 52.366V52.4721C220.764 53.1439 220.919 53.6389 221.228 53.9572C221.547 54.2754 222.015 54.4345 222.634 54.4345C222.846 54.4345 223.089 54.408 223.363 54.355C223.637 54.3019 223.893 54.2179 224.132 54.103C224.335 54.0058 224.517 53.9748 224.676 54.0102C224.835 54.0367 224.959 54.1074 225.047 54.2224C225.135 54.3373 225.184 54.4699 225.193 54.6201C225.211 54.7704 225.18 54.9207 225.1 55.071C225.021 55.2124 224.888 55.3317 224.702 55.429C224.402 55.5969 224.061 55.7207 223.681 55.8002C223.31 55.8886 222.948 55.9328 222.594 55.9328ZM227.625 55.9063C227.422 55.9063 227.25 55.8665 227.108 55.787C226.967 55.7074 226.861 55.5925 226.79 55.4422C226.728 55.2831 226.697 55.0798 226.697 54.8323V50.1252C226.697 49.8158 226.777 49.5815 226.936 49.4224C227.095 49.2545 227.316 49.1705 227.599 49.1705C227.891 49.1705 228.112 49.2545 228.262 49.4224C228.421 49.5815 228.501 49.8158 228.501 50.1252V53.692H228.143L231.073 49.8069C231.179 49.6655 231.316 49.5241 231.484 49.3826C231.652 49.2412 231.891 49.1705 232.2 49.1705C232.403 49.1705 232.571 49.2103 232.704 49.2898C232.845 49.3605 232.947 49.4754 233.009 49.6346C233.08 49.7848 233.115 49.9837 233.115 50.2312V54.9516C233.115 55.2522 233.035 55.4864 232.876 55.6544C232.726 55.8223 232.509 55.9063 232.226 55.9063C231.926 55.9063 231.696 55.8223 231.537 55.6544C231.387 55.4864 231.312 55.2522 231.312 54.9516V51.3716H231.683L228.739 55.2566C228.633 55.4069 228.496 55.5527 228.328 55.6942C228.169 55.8356 227.935 55.9063 227.625 55.9063ZM229.906 48.4677C229.305 48.4677 228.797 48.3395 228.381 48.0832C227.975 47.818 227.687 47.4644 227.519 47.0224C227.449 46.8368 227.444 46.6821 227.506 46.5583C227.577 46.4257 227.687 46.3329 227.838 46.2799C227.988 46.2269 228.12 46.2357 228.235 46.3064C228.35 46.3683 228.456 46.4876 228.554 46.6644C228.695 46.9119 228.876 47.0976 229.097 47.2213C229.318 47.3451 229.588 47.407 229.906 47.407C230.224 47.407 230.494 47.3451 230.715 47.2213C230.936 47.0976 231.117 46.9119 231.259 46.6644C231.356 46.4876 231.462 46.3683 231.577 46.3064C231.692 46.2357 231.824 46.2269 231.975 46.2799C232.134 46.3329 232.244 46.4257 232.306 46.5583C232.368 46.6821 232.355 46.8368 232.266 47.0224C232.063 47.4644 231.767 47.818 231.378 48.0832C230.998 48.3395 230.507 48.4677 229.906 48.4677Z" fill="white"/>
<path d="M25.3394 37.18C24.8327 37.18 24.446 37.04 24.1794 36.76C23.9127 36.48 23.7794 36.0867 23.7794 35.58V24.52C23.7794 24 23.9194 23.6 24.1994 23.32C24.4794 23.04 24.8794 22.9 25.3994 22.9H34.7794C35.2994 22.9 35.6994 23.04 35.9794 23.32C36.2594 23.6 36.3994 24 36.3994 24.52V35.58C36.3994 36.0867 36.266 36.48 35.9994 36.76C35.7327 37.04 35.3527 37.18 34.8594 37.18C34.3527 37.18 33.966 37.04 33.6994 36.76C33.4327 36.48 33.2994 36.0867 33.2994 35.58V25.46H26.8794V35.58C26.8794 36.0867 26.746 36.48 26.4794 36.76C26.226 37.04 25.846 37.18 25.3394 37.18ZM40.7886 37.18C40.2819 37.18 39.8953 37.04 39.6286 36.76C39.3619 36.48 39.2286 36.0867 39.2286 35.58V24.48C39.2286 23.96 39.3619 23.5667 39.6286 23.3C39.9086 23.0333 40.3019 22.9 40.8086 22.9H45.6686C47.2419 22.9 48.4553 23.3 49.3086 24.1C50.1619 24.8867 50.5886 25.9867 50.5886 27.4C50.5886 28.8133 50.1619 29.92 49.3086 30.72C48.4553 31.52 47.2419 31.92 45.6686 31.92H42.3286V35.58C42.3286 36.0867 42.1953 36.48 41.9286 36.76C41.6753 37.04 41.2953 37.18 40.7886 37.18ZM42.3286 29.52H45.1486C45.9486 29.52 46.5553 29.34 46.9686 28.98C47.3953 28.62 47.6086 28.0933 47.6086 27.4C47.6086 26.7067 47.3953 26.1867 46.9686 25.84C46.5553 25.4933 45.9486 25.32 45.1486 25.32H42.3286V29.52ZM58.8545 37.22C57.4679 37.22 56.2479 36.92 55.1945 36.32C54.1545 35.7067 53.3412 34.8533 52.7545 33.76C52.1812 32.6667 51.8945 31.3933 51.8945 29.94C51.8945 28.8333 52.0545 27.84 52.3745 26.96C52.7079 26.0667 53.1812 25.3067 53.7945 24.68C54.4079 24.04 55.1412 23.5467 55.9945 23.2C56.8612 22.8533 57.8145 22.68 58.8545 22.68C60.2679 22.68 61.4945 22.98 62.5345 23.58C63.5745 24.18 64.3812 25.0267 64.9545 26.12C65.5412 27.2 65.8345 28.4667 65.8345 29.92C65.8345 31.0267 65.6679 32.0267 65.3345 32.92C65.0012 33.8133 64.5279 34.58 63.9145 35.22C63.3012 35.86 62.5679 36.3533 61.7145 36.7C60.8612 37.0467 59.9079 37.22 58.8545 37.22ZM58.8545 34.58C59.6412 34.58 60.3079 34.4 60.8545 34.04C61.4145 33.6667 61.8412 33.1333 62.1345 32.44C62.4412 31.7333 62.5945 30.9 62.5945 29.94C62.5945 28.4733 62.2679 27.34 61.6145 26.54C60.9612 25.7267 60.0412 25.32 58.8545 25.32C58.0812 25.32 57.4145 25.5 56.8545 25.86C56.2945 26.22 55.8679 26.7467 55.5745 27.44C55.2812 28.1333 55.1345 28.9667 55.1345 29.94C55.1345 31.3933 55.4612 32.5333 56.1145 33.36C56.7679 34.1733 57.6812 34.58 58.8545 34.58ZM75.0725 37.22C73.5525 37.22 72.2525 36.92 71.1725 36.32C70.0925 35.72 69.2592 34.88 68.6725 33.8C68.0992 32.7067 67.8125 31.42 67.8125 29.94C67.8125 28.8333 67.9725 27.84 68.2925 26.96C68.6258 26.0667 69.1058 25.3067 69.7325 24.68C70.3592 24.04 71.1192 23.5467 72.0125 23.2C72.9192 22.8533 73.9392 22.68 75.0725 22.68C75.7392 22.68 76.4125 22.7667 77.0925 22.94C77.7858 23.1 78.3858 23.3333 78.8925 23.64C79.2258 23.8267 79.4525 24.06 79.5725 24.34C79.6925 24.62 79.7258 24.9 79.6725 25.18C79.6325 25.46 79.5192 25.7 79.3325 25.9C79.1592 26.1 78.9392 26.2267 78.6725 26.28C78.4058 26.3333 78.1058 26.2733 77.7725 26.1C77.3725 25.86 76.9525 25.6867 76.5125 25.58C76.0725 25.4733 75.6258 25.42 75.1725 25.42C74.2792 25.42 73.5258 25.6 72.9125 25.96C72.3125 26.3067 71.8592 26.8133 71.5525 27.48C71.2458 28.1467 71.0925 28.9667 71.0925 29.94C71.0925 30.9 71.2458 31.72 71.5525 32.4C71.8592 33.08 72.3125 33.6 72.9125 33.96C73.5258 34.3067 74.2792 34.48 75.1725 34.48C75.5992 34.48 76.0325 34.4267 76.4725 34.32C76.9258 34.2133 77.3592 34.0467 77.7725 33.82C78.1192 33.6467 78.4258 33.5867 78.6925 33.64C78.9725 33.68 79.1992 33.8 79.3725 34C79.5592 34.1867 79.6725 34.4133 79.7125 34.68C79.7658 34.9467 79.7392 35.2133 79.6325 35.48C79.5258 35.7467 79.3258 35.9733 79.0325 36.16C78.5392 36.4933 77.9325 36.7533 77.2125 36.94C76.4925 37.1267 75.7792 37.22 75.0725 37.22ZM86.6291 37.18C86.1224 37.18 85.7357 37.04 85.4691 36.76C85.2024 36.48 85.0691 36.0867 85.0691 35.58V25.46H81.5291C81.1157 25.46 80.7957 25.3467 80.5691 25.12C80.3424 24.8933 80.2291 24.58 80.2291 24.18C80.2291 23.7667 80.3424 23.4533 80.5691 23.24C80.7957 23.0133 81.1157 22.9 81.5291 22.9H91.7091C92.1224 22.9 92.4424 23.0133 92.6691 23.24C92.8957 23.4533 93.0091 23.7667 93.0091 24.18C93.0091 24.58 92.8957 24.8933 92.6691 25.12C92.4424 25.3467 92.1224 25.46 91.7091 25.46H88.1691V35.58C88.1691 36.0867 88.0357 36.48 87.7691 36.76C87.5157 37.04 87.1357 37.18 86.6291 37.18ZM95.9658 37C95.4458 37 95.0458 36.86 94.7658 36.58C94.4858 36.3 94.3458 35.9 94.3458 35.38V24.32C94.3458 23.8133 94.4791 23.42 94.7458 23.14C95.0124 22.86 95.3991 22.72 95.9058 22.72C96.3991 22.72 96.7791 22.86 97.0458 23.14C97.3124 23.42 97.4458 23.8133 97.4458 24.32V28.58H100.426C101.439 28.58 102.306 28.7467 103.026 29.08C103.759 29.4 104.319 29.8733 104.706 30.5C105.106 31.1133 105.306 31.8733 105.306 32.78C105.306 34.14 104.872 35.1867 104.006 35.92C103.139 36.64 101.946 37 100.426 37H95.9658ZM97.4458 34.6H100.006C100.806 34.6 101.392 34.4533 101.766 34.16C102.139 33.8533 102.326 33.3933 102.326 32.78C102.326 32.1667 102.139 31.7133 101.766 31.42C101.392 31.1267 100.806 30.98 100.006 30.98H97.4458V34.6ZM108.526 37.18C108.019 37.18 107.632 37.04 107.366 36.76C107.099 36.48 106.966 36.0867 106.966 35.58V24.32C106.966 23.8133 107.099 23.42 107.366 23.14C107.632 22.86 108.019 22.72 108.526 22.72C109.032 22.72 109.419 22.86 109.686 23.14C109.952 23.42 110.086 23.8133 110.086 24.32V35.58C110.086 36.0867 109.952 36.48 109.686 36.76C109.432 37.04 109.046 37.18 108.526 37.18ZM114.52 37C114 37 113.6 36.86 113.32 36.58C113.04 36.3 112.9 35.9 112.9 35.38V24.52C112.9 24 113.04 23.6 113.32 23.32C113.6 23.04 114 22.9 114.52 22.9H121.5C121.9 22.9 122.2 23.0067 122.4 23.22C122.614 23.42 122.72 23.7133 122.72 24.1C122.72 24.5 122.614 24.8067 122.4 25.02C122.2 25.22 121.9 25.32 121.5 25.32H115.86V28.62H121.04C121.454 28.62 121.76 28.7267 121.96 28.94C122.174 29.14 122.28 29.44 122.28 29.84C122.28 30.24 122.174 30.5467 121.96 30.76C121.76 30.96 121.454 31.06 121.04 31.06H115.86V34.58H121.5C121.9 34.58 122.2 34.6867 122.4 34.9C122.614 35.1 122.72 35.3933 122.72 35.78C122.72 36.18 122.614 36.4867 122.4 36.7C122.2 36.9 121.9 37 121.5 37H114.52ZM132.156 37.18C131.649 37.18 131.262 37.04 130.996 36.76C130.729 36.48 130.596 36.0867 130.596 35.58V24.52C130.596 24 130.736 23.6 131.016 23.32C131.296 23.04 131.696 22.9 132.216 22.9H141.596C142.116 22.9 142.516 23.04 142.796 23.32C143.076 23.6 143.216 24 143.216 24.52V35.58C143.216 36.0867 143.082 36.48 142.816 36.76C142.549 37.04 142.169 37.18 141.676 37.18C141.169 37.18 140.782 37.04 140.516 36.76C140.249 36.48 140.116 36.0867 140.116 35.58V25.46H133.696V35.58C133.696 36.0867 133.562 36.48 133.296 36.76C133.042 37.04 132.662 37.18 132.156 37.18ZM147.605 37.18C147.098 37.18 146.712 37.04 146.445 36.76C146.178 36.48 146.045 36.0867 146.045 35.58V24.48C146.045 23.96 146.178 23.5667 146.445 23.3C146.725 23.0333 147.118 22.9 147.625 22.9H152.485C154.058 22.9 155.272 23.3 156.125 24.1C156.978 24.8867 157.405 25.9867 157.405 27.4C157.405 28.8133 156.978 29.92 156.125 30.72C155.272 31.52 154.058 31.92 152.485 31.92H149.145V35.58C149.145 36.0867 149.012 36.48 148.745 36.76C148.492 37.04 148.112 37.18 147.605 37.18ZM149.145 29.52H151.965C152.765 29.52 153.372 29.34 153.785 28.98C154.212 28.62 154.425 28.0933 154.425 27.4C154.425 26.7067 154.212 26.1867 153.785 25.84C153.372 25.4933 152.765 25.32 151.965 25.32H149.145V29.52ZM158.222 37.18C157.849 37.18 157.542 37.0933 157.302 36.92C157.076 36.7467 156.929 36.5133 156.862 36.22C156.809 35.9267 156.869 35.6 157.042 35.24L162.162 24.02C162.376 23.5667 162.629 23.24 162.922 23.04C163.216 22.8267 163.556 22.72 163.942 22.72C164.329 22.72 164.669 22.8267 164.962 23.04C165.256 23.24 165.502 23.5667 165.702 24.02L170.862 35.24C171.036 35.6 171.096 35.9333 171.042 36.24C171.002 36.5333 170.869 36.7667 170.642 36.94C170.416 37.1 170.122 37.18 169.762 37.18C169.309 37.18 168.956 37.0733 168.702 36.86C168.462 36.6467 168.249 36.3133 168.062 35.86L166.862 33.08L168.102 33.94H159.762L161.002 33.08L159.822 35.86C159.622 36.3267 159.409 36.6667 159.182 36.88C158.969 37.08 158.649 37.18 158.222 37.18ZM163.902 26.2L161.342 32.3L160.802 31.52H167.062L166.522 32.3L163.942 26.2H163.902ZM174.501 37C173.981 37 173.581 36.86 173.301 36.58C173.021 36.3 172.881 35.9 172.881 35.38V24.52C172.881 24 173.021 23.6 173.301 23.32C173.581 23.04 173.981 22.9 174.501 22.9H179.341C180.341 22.9 181.194 23.0467 181.901 23.34C182.608 23.6333 183.141 24.0533 183.501 24.6C183.874 25.1467 184.061 25.8 184.061 26.56C184.061 27.4 183.821 28.1133 183.341 28.7C182.861 29.2867 182.201 29.68 181.361 29.88V29.56C182.334 29.7333 183.088 30.12 183.621 30.72C184.168 31.3067 184.441 32.0733 184.441 33.02C184.441 34.2733 184.008 35.2533 183.141 35.96C182.274 36.6533 181.081 37 179.561 37H174.501ZM175.841 34.7H179.141C179.941 34.7 180.528 34.5467 180.901 34.24C181.274 33.92 181.461 33.4533 181.461 32.84C181.461 32.2267 181.274 31.7667 180.901 31.46C180.528 31.1533 179.941 31 179.141 31H175.841V34.7ZM175.841 28.7H178.801C179.574 28.7 180.148 28.5533 180.521 28.26C180.894 27.9667 181.081 27.5267 181.081 26.94C181.081 26.3667 180.894 25.9333 180.521 25.64C180.148 25.3467 179.574 25.2 178.801 25.2H175.841V28.7ZM188.107 37.18C187.907 37.18 187.721 37.1467 187.547 37.08C187.387 37.0133 187.247 36.9133 187.127 36.78C187.021 36.6467 186.934 36.4867 186.867 36.3C186.814 36.1 186.787 35.8733 186.787 35.62V24.2C186.787 23.7333 186.907 23.3733 187.147 23.12C187.401 22.8533 187.761 22.72 188.227 22.72C188.707 22.72 189.067 22.8533 189.307 23.12C189.547 23.3733 189.667 23.7333 189.667 24.2V32.56H189.167L196.147 23.62C196.387 23.3 196.621 23.0733 196.847 22.94C197.074 22.7933 197.374 22.72 197.747 22.72C198.001 22.72 198.221 22.78 198.407 22.9C198.594 23.02 198.741 23.1867 198.847 23.4C198.954 23.6133 199.007 23.86 199.007 24.14V35.68C199.007 36.16 198.881 36.5333 198.627 36.8C198.387 37.0533 198.034 37.18 197.567 37.18C197.101 37.18 196.741 37.0533 196.487 36.8C196.247 36.5333 196.127 36.16 196.127 35.68V27.32H196.607L189.647 36.26C189.394 36.58 189.161 36.8133 188.947 36.96C188.747 37.1067 188.467 37.18 188.107 37.18ZM212.626 37.18C212.119 37.18 211.732 37.04 211.466 36.76C211.199 36.48 211.066 36.0867 211.066 35.58V25.46H206.706V28.02C206.706 29.14 206.626 30.1533 206.466 31.06C206.306 31.9667 206.072 32.7867 205.766 33.52C205.459 34.24 205.079 34.88 204.626 35.44C204.186 36 203.679 36.48 203.106 36.88C202.759 37.1333 202.399 37.2267 202.026 37.16C201.666 37.1067 201.352 36.9067 201.086 36.56C200.819 36.2 200.726 35.8467 200.806 35.5C200.899 35.14 201.119 34.8267 201.466 34.56C201.879 34.2533 202.232 33.8867 202.526 33.46C202.832 33.02 203.079 32.5067 203.266 31.92C203.466 31.3333 203.612 30.6533 203.706 29.88C203.799 29.0933 203.846 28.2067 203.846 27.22V24.52C203.846 24 203.986 23.6 204.266 23.32C204.546 23.04 204.952 22.9 205.486 22.9H212.546C213.079 22.9 213.486 23.04 213.766 23.32C214.046 23.6 214.186 24 214.186 24.52V35.58C214.186 36.0867 214.052 36.48 213.786 36.76C213.519 37.04 213.132 37.18 212.626 37.18ZM217.402 37.18C217.029 37.18 216.722 37.0933 216.482 36.92C216.255 36.7467 216.109 36.5133 216.042 36.22C215.989 35.9267 216.049 35.6 216.222 35.24L221.342 24.02C221.555 23.5667 221.809 23.24 222.102 23.04C222.395 22.8267 222.735 22.72 223.122 22.72C223.509 22.72 223.849 22.8267 224.142 23.04C224.435 23.24 224.682 23.5667 224.882 24.02L230.042 35.24C230.215 35.6 230.275 35.9333 230.222 36.24C230.182 36.5333 230.049 36.7667 229.822 36.94C229.595 37.1 229.302 37.18 228.942 37.18C228.489 37.18 228.135 37.0733 227.882 36.86C227.642 36.6467 227.429 36.3133 227.242 35.86L226.042 33.08L227.282 33.94H218.942L220.182 33.08L219.002 35.86C218.802 36.3267 218.589 36.6667 218.362 36.88C218.149 37.08 217.829 37.18 217.402 37.18ZM223.082 26.2L220.522 32.3L219.982 31.52H226.242L225.702 32.3L223.122 26.2H223.082Z" fill="white"/>
</svg>
