<svg width="309" height="55" viewBox="0 0 309 55" fill="none" xmlns="http://www.w3.org/2000/svg">
<path d="M5.42204 47.7742C4.59404 47.7742 3.82604 47.6902 3.11804 47.5222C2.41004 47.3422 1.78004 47.0902 1.22804 46.7662C0.940039 46.6102 0.742039 46.4182 0.634039 46.1902C0.526039 45.9622 0.490039 45.7402 0.526039 45.5242C0.562039 45.2962 0.652039 45.0982 0.796039 44.9302C0.940039 44.7622 1.13204 44.6542 1.37204 44.6062C1.61204 44.5582 1.88204 44.6062 2.18204 44.7502C2.47004 44.9062 2.77004 45.0382 3.08204 45.1462C3.40604 45.2422 3.74204 45.3142 4.09004 45.3622C4.45004 45.4102 4.81604 45.4342 5.18804 45.4342C5.80004 45.4342 6.29804 45.3742 6.68204 45.2542C7.06604 45.1222 7.35404 44.9302 7.54604 44.6782C7.73804 44.4262 7.83404 44.1082 7.83404 43.7242C7.83404 43.2202 7.66604 42.8482 7.33004 42.6082C6.99404 42.3562 6.46604 42.2302 5.74604 42.2302H3.67604C3.30404 42.2302 3.01604 42.1402 2.81204 41.9602C2.62004 41.7682 2.52404 41.4922 2.52404 41.1322C2.52404 40.7842 2.62004 40.5202 2.81204 40.3402C3.01604 40.1482 3.30404 40.0522 3.67604 40.0522H5.44004C6.13604 40.0522 6.65204 39.9322 6.98804 39.6922C7.32404 39.4522 7.49204 39.0802 7.49204 38.5762C7.49204 38.2642 7.40804 37.9942 7.24004 37.7662C7.08404 37.5262 6.83804 37.3402 6.50204 37.2082C6.17804 37.0762 5.74604 37.0102 5.20604 37.0102C4.75004 37.0102 4.28804 37.0642 3.82004 37.1722C3.35204 37.2802 2.92004 37.4302 2.52404 37.6222C2.21204 37.7782 1.93604 37.8322 1.69604 37.7842C1.46804 37.7362 1.27604 37.6282 1.12004 37.4602C0.976039 37.2802 0.886039 37.0762 0.850039 36.8482C0.826039 36.6202 0.868039 36.3982 0.976039 36.1822C1.08404 35.9542 1.27004 35.7682 1.53404 35.6242C2.11004 35.3122 2.74004 35.0782 3.42404 34.9222C4.10804 34.7662 4.81604 34.6882 5.54804 34.6882C6.60404 34.6882 7.47404 34.8382 8.15804 35.1382C8.85404 35.4382 9.37604 35.8522 9.72404 36.3802C10.072 36.8962 10.246 37.4962 10.246 38.1802C10.246 38.9362 10.024 39.5782 9.58004 40.1062C9.14804 40.6342 8.56004 40.9882 7.81604 41.1682V40.8802C8.68004 41.0362 9.35204 41.3842 9.83204 41.9242C10.324 42.4522 10.57 43.1422 10.57 43.9942C10.57 44.7382 10.384 45.3982 10.012 45.9742C9.64004 46.5382 9.07004 46.9822 8.30204 47.3062C7.54604 47.6182 6.58604 47.7742 5.42204 47.7742ZM13.0331 50.0782C12.6731 50.0782 12.3911 49.9702 12.1871 49.7542C11.9831 49.5502 11.8811 49.2562 11.8811 48.8722V46.7302C11.8811 45.9022 12.2891 45.4882 13.1051 45.4882H14.2031L12.5831 46.0642C12.8831 45.6562 13.1171 45.2362 13.2851 44.8042C13.4651 44.3602 13.5911 43.8562 13.6631 43.2922C13.7471 42.7162 13.7891 42.0202 13.7891 41.2042V40.2682C13.7891 39.7762 13.9151 39.3982 14.1671 39.1342C14.4311 38.8702 14.8091 38.7382 15.3011 38.7382H19.5131C20.0051 38.7382 20.3831 38.8702 20.6471 39.1342C20.9111 39.3982 21.0431 39.7762 21.0431 40.2682V46.7662L19.7651 45.4882H21.2771C21.6731 45.4882 21.9731 45.5962 22.1771 45.8122C22.3931 46.0162 22.5011 46.3222 22.5011 46.7302V48.8722C22.5011 49.6762 22.1171 50.0782 21.3491 50.0782C20.9771 50.0782 20.6891 49.9702 20.4851 49.7542C20.2931 49.5502 20.1971 49.2562 20.1971 48.8722V47.5762H14.1671V48.8722C14.1671 49.6762 13.7891 50.0782 13.0331 50.0782ZM15.3371 45.5062H18.5051V40.8082H16.0931V41.8882C16.0931 42.5482 16.0271 43.2022 15.8951 43.8502C15.7631 44.4982 15.5771 45.0502 15.3371 45.5062ZM28.2397 47.7742C27.2917 47.7742 26.4637 47.5882 25.7557 47.2162C25.0597 46.8442 24.5197 46.3102 24.1357 45.6142C23.7517 44.9182 23.5597 44.0962 23.5597 43.1482C23.5597 42.4402 23.6677 41.8042 23.8837 41.2402C24.0997 40.6762 24.4117 40.1962 24.8197 39.8002C25.2397 39.3922 25.7377 39.0862 26.3137 38.8822C26.8897 38.6662 27.5317 38.5582 28.2397 38.5582C29.1877 38.5582 30.0097 38.7442 30.7057 39.1162C31.4137 39.4882 31.9597 40.0162 32.3437 40.7002C32.7397 41.3842 32.9377 42.2002 32.9377 43.1482C32.9377 43.8682 32.8237 44.5102 32.5957 45.0742C32.3797 45.6382 32.0677 46.1242 31.6597 46.5322C31.2517 46.9402 30.7537 47.2522 30.1657 47.4682C29.5897 47.6722 28.9477 47.7742 28.2397 47.7742ZM28.2397 45.7402C28.6357 45.7402 28.9777 45.6442 29.2657 45.4522C29.5537 45.2602 29.7817 44.9782 29.9497 44.6062C30.1177 44.2222 30.2017 43.7362 30.2017 43.1482C30.2017 42.2722 30.0217 41.6302 29.6617 41.2222C29.3017 40.8022 28.8277 40.5922 28.2397 40.5922C27.8557 40.5922 27.5137 40.6822 27.2137 40.8622C26.9257 41.0422 26.6977 41.3242 26.5297 41.7082C26.3737 42.0802 26.2957 42.5602 26.2957 43.1482C26.2957 44.0242 26.4757 44.6782 26.8357 45.1102C27.1957 45.5302 27.6637 45.7402 28.2397 45.7402ZM36.223 50.9782C35.779 50.9782 35.437 50.8582 35.197 50.6182C34.969 50.3902 34.855 50.0482 34.855 49.5922V39.9622C34.855 39.5182 34.969 39.1822 35.197 38.9542C35.437 38.7142 35.767 38.5942 36.187 38.5942C36.631 38.5942 36.967 38.7142 37.195 38.9542C37.423 39.1822 37.537 39.5182 37.537 39.9622V41.1862L37.339 40.4842C37.519 39.9082 37.879 39.4462 38.419 39.0982C38.971 38.7382 39.601 38.5582 40.309 38.5582C41.077 38.5582 41.749 38.7442 42.325 39.1162C42.913 39.4882 43.369 40.0162 43.693 40.7002C44.017 41.3842 44.179 42.2002 44.179 43.1482C44.179 44.0962 44.017 44.9182 43.693 45.6142C43.369 46.3102 42.919 46.8442 42.343 47.2162C41.767 47.5882 41.089 47.7742 40.309 47.7742C39.613 47.7742 38.995 47.6062 38.455 47.2702C37.915 46.9222 37.549 46.4722 37.357 45.9202H37.573V49.5922C37.573 50.0482 37.453 50.3902 37.213 50.6182C36.985 50.8582 36.655 50.9782 36.223 50.9782ZM39.499 45.7402C39.883 45.7402 40.219 45.6442 40.507 45.4522C40.807 45.2602 41.035 44.9782 41.191 44.6062C41.359 44.2222 41.443 43.7362 41.443 43.1482C41.443 42.2722 41.263 41.6302 40.903 41.2222C40.543 40.8022 40.075 40.5922 39.499 40.5922C39.115 40.5922 38.773 40.6822 38.473 40.8622C38.185 41.0422 37.957 41.3242 37.789 41.7082C37.621 42.0802 37.537 42.5602 37.537 43.1482C37.537 44.0242 37.717 44.6782 38.077 45.1102C38.437 45.5302 38.911 45.7402 39.499 45.7402ZM50.3706 47.7742C49.4226 47.7742 48.5946 47.5882 47.8866 47.2162C47.1906 46.8442 46.6506 46.3102 46.2666 45.6142C45.8826 44.9182 45.6906 44.0962 45.6906 43.1482C45.6906 42.4402 45.7986 41.8042 46.0146 41.2402C46.2306 40.6762 46.5426 40.1962 46.9506 39.8002C47.3706 39.3922 47.8686 39.0862 48.4446 38.8822C49.0206 38.6662 49.6626 38.5582 50.3706 38.5582C51.3186 38.5582 52.1406 38.7442 52.8366 39.1162C53.5446 39.4882 54.0906 40.0162 54.4746 40.7002C54.8706 41.3842 55.0686 42.2002 55.0686 43.1482C55.0686 43.8682 54.9546 44.5102 54.7266 45.0742C54.5106 45.6382 54.1986 46.1242 53.7906 46.5322C53.3826 46.9402 52.8846 47.2522 52.2966 47.4682C51.7206 47.6722 51.0786 47.7742 50.3706 47.7742ZM50.3706 45.7402C50.7666 45.7402 51.1086 45.6442 51.3966 45.4522C51.6846 45.2602 51.9126 44.9782 52.0806 44.6062C52.2486 44.2222 52.3326 43.7362 52.3326 43.1482C52.3326 42.2722 52.1526 41.6302 51.7926 41.2222C51.4326 40.8022 50.9586 40.5922 50.3706 40.5922C49.9866 40.5922 49.6446 40.6822 49.3446 40.8622C49.0566 41.0422 48.8286 41.3242 48.6606 41.7082C48.5046 42.0802 48.4266 42.5602 48.4266 43.1482C48.4266 44.0242 48.6066 44.6782 48.9666 45.1102C49.3266 45.5302 49.7946 45.7402 50.3706 45.7402ZM58.2999 47.5762C57.8799 47.5762 57.5559 47.4622 57.3279 47.2342C57.0999 47.0062 56.9859 46.6762 56.9859 46.2442V40.0702C56.9859 39.6382 57.0999 39.3082 57.3279 39.0802C57.5559 38.8522 57.8799 38.7382 58.2999 38.7382H62.0079C62.8119 38.7382 63.4539 38.8342 63.9339 39.0262C64.4259 39.2062 64.7799 39.4702 64.9959 39.8182C65.2119 40.1542 65.3199 40.5682 65.3199 41.0602C65.3199 41.6002 65.1339 42.0622 64.7619 42.4462C64.3899 42.8182 63.8979 43.0522 63.2859 43.1482V42.8782C64.0899 42.9382 64.6839 43.1662 65.0679 43.5622C65.4519 43.9582 65.6439 44.4682 65.6439 45.0922C65.6439 45.8482 65.3439 46.4542 64.7439 46.9102C64.1559 47.3542 63.2919 47.5762 62.1519 47.5762H58.2999ZM59.4879 45.9562H61.8819C62.3139 45.9562 62.6379 45.8722 62.8539 45.7042C63.0819 45.5242 63.1959 45.2602 63.1959 44.9122C63.1959 44.5642 63.0819 44.3062 62.8539 44.1382C62.6379 43.9582 62.3139 43.8682 61.8819 43.8682H59.4879V45.9562ZM59.4879 42.2662H61.7199C62.0799 42.2662 62.3619 42.1822 62.5659 42.0142C62.7699 41.8342 62.8719 41.5942 62.8719 41.2942C62.8719 40.9822 62.7699 40.7482 62.5659 40.5922C62.3619 40.4362 62.0799 40.3582 61.7199 40.3582H59.4879V42.2662ZM71.6928 47.7742C70.7448 47.7742 69.9168 47.5882 69.2088 47.2162C68.5128 46.8442 67.9728 46.3102 67.5888 45.6142C67.2048 44.9182 67.0128 44.0962 67.0128 43.1482C67.0128 42.4402 67.1208 41.8042 67.3368 41.2402C67.5528 40.6762 67.8648 40.1962 68.2728 39.8002C68.6928 39.3922 69.1908 39.0862 69.7668 38.8822C70.3428 38.6662 70.9848 38.5582 71.6928 38.5582C72.6408 38.5582 73.4628 38.7442 74.1588 39.1162C74.8668 39.4882 75.4128 40.0162 75.7968 40.7002C76.1928 41.3842 76.3908 42.2002 76.3908 43.1482C76.3908 43.8682 76.2768 44.5102 76.0488 45.0742C75.8328 45.6382 75.5208 46.1242 75.1128 46.5322C74.7048 46.9402 74.2068 47.2522 73.6188 47.4682C73.0428 47.6722 72.4008 47.7742 71.6928 47.7742ZM71.6928 45.7402C72.0888 45.7402 72.4308 45.6442 72.7188 45.4522C73.0068 45.2602 73.2348 44.9782 73.4028 44.6062C73.5708 44.2222 73.6548 43.7362 73.6548 43.1482C73.6548 42.2722 73.4748 41.6302 73.1148 41.2222C72.7548 40.8022 72.2808 40.5922 71.6928 40.5922C71.3088 40.5922 70.9668 40.6822 70.6668 40.8622C70.3788 41.0422 70.1508 41.3242 69.9828 41.7082C69.8268 42.0802 69.7488 42.5602 69.7488 43.1482C69.7488 44.0242 69.9288 44.6782 70.2888 45.1102C70.6488 45.5302 71.1168 45.7402 71.6928 45.7402ZM79.6761 47.7382C79.2321 47.7382 78.8901 47.6182 78.6501 47.3782C78.4221 47.1262 78.3081 46.7782 78.3081 46.3342V40.2682C78.3081 39.7762 78.4341 39.3982 78.6861 39.1342C78.9501 38.8702 79.3281 38.7382 79.8201 38.7382H84.3021C84.6741 38.7382 84.9561 38.8282 85.1481 39.0082C85.3401 39.1882 85.4361 39.4522 85.4361 39.8002C85.4361 40.1482 85.3401 40.4122 85.1481 40.5922C84.9561 40.7722 84.6741 40.8622 84.3021 40.8622H81.0261V46.3342C81.0261 47.2702 80.5761 47.7382 79.6761 47.7382ZM91.0112 47.7742C90.0632 47.7742 89.2352 47.5882 88.5272 47.2162C87.8312 46.8442 87.2912 46.3102 86.9072 45.6142C86.5232 44.9182 86.3312 44.0962 86.3312 43.1482C86.3312 42.4402 86.4392 41.8042 86.6552 41.2402C86.8712 40.6762 87.1832 40.1962 87.5912 39.8002C88.0112 39.3922 88.5092 39.0862 89.0852 38.8822C89.6612 38.6662 90.3032 38.5582 91.0112 38.5582C91.9592 38.5582 92.7812 38.7442 93.4772 39.1162C94.1852 39.4882 94.7312 40.0162 95.1152 40.7002C95.5112 41.3842 95.7092 42.2002 95.7092 43.1482C95.7092 43.8682 95.5952 44.5102 95.3672 45.0742C95.1512 45.6382 94.8392 46.1242 94.4312 46.5322C94.0232 46.9402 93.5252 47.2522 92.9372 47.4682C92.3612 47.6722 91.7192 47.7742 91.0112 47.7742ZM91.0112 45.7402C91.4072 45.7402 91.7492 45.6442 92.0372 45.4522C92.3252 45.2602 92.5532 44.9782 92.7212 44.6062C92.8892 44.2222 92.9732 43.7362 92.9732 43.1482C92.9732 42.2722 92.7932 41.6302 92.4332 41.2222C92.0732 40.8022 91.5992 40.5922 91.0112 40.5922C90.6272 40.5922 90.2852 40.6822 89.9852 40.8622C89.6972 41.0422 89.4692 41.3242 89.3012 41.7082C89.1452 42.0802 89.0672 42.5602 89.0672 43.1482C89.0672 44.0242 89.2472 44.6782 89.6072 45.1102C89.9672 45.5302 90.4352 45.7402 91.0112 45.7402ZM104.022 47.7382C103.578 47.7382 103.236 47.6182 102.996 47.3782C102.768 47.1382 102.654 46.7962 102.654 46.3522V39.9802C102.654 39.5362 102.768 39.1942 102.996 38.9542C103.236 38.7142 103.578 38.5942 104.022 38.5942C104.454 38.5942 104.784 38.7142 105.012 38.9542C105.252 39.1942 105.372 39.5362 105.372 39.9802V42.0322H106.434L108.45 39.2242C108.642 38.9482 108.864 38.7682 109.116 38.6842C109.38 38.6002 109.632 38.5942 109.872 38.6662C110.112 38.7382 110.31 38.8702 110.466 39.0622C110.622 39.2422 110.706 39.4582 110.718 39.7102C110.742 39.9622 110.652 40.2322 110.448 40.5202L108.504 43.2562L107.964 42.3742C108.288 42.4102 108.582 42.5062 108.846 42.6622C109.11 42.8182 109.35 43.0222 109.566 43.2742C109.782 43.5142 109.986 43.8082 110.178 44.1562L111.132 45.9022C111.3 46.2022 111.354 46.4842 111.294 46.7482C111.246 47.0002 111.12 47.2102 110.916 47.3782C110.724 47.5462 110.496 47.6482 110.232 47.6842C109.968 47.7322 109.71 47.7022 109.458 47.5942C109.206 47.4862 108.996 47.2762 108.828 46.9642L107.73 45.0202C107.61 44.7802 107.484 44.5942 107.352 44.4622C107.22 44.3302 107.07 44.2402 106.902 44.1922C106.746 44.1442 106.56 44.1202 106.344 44.1202H105.372V46.3522C105.372 46.7962 105.252 47.1382 105.012 47.3782C104.784 47.6182 104.454 47.7382 104.022 47.7382ZM114.338 47.7382C114.062 47.7382 113.828 47.6842 113.636 47.5762C113.444 47.4682 113.3 47.3122 113.204 47.1082C113.12 46.8922 113.078 46.6162 113.078 46.2802V39.8902C113.078 39.4702 113.186 39.1522 113.402 38.9362C113.618 38.7082 113.918 38.5942 114.302 38.5942C114.698 38.5942 114.998 38.7082 115.202 38.9362C115.418 39.1522 115.526 39.4702 115.526 39.8902V44.7322H115.04L119.018 39.4582C119.162 39.2662 119.348 39.0742 119.576 38.8822C119.804 38.6902 120.128 38.5942 120.548 38.5942C120.824 38.5942 121.052 38.6482 121.232 38.7562C121.424 38.8522 121.562 39.0082 121.646 39.2242C121.742 39.4282 121.79 39.6982 121.79 40.0342V46.4422C121.79 46.8502 121.682 47.1682 121.466 47.3962C121.262 47.6242 120.968 47.7382 120.584 47.7382C120.176 47.7382 119.864 47.6242 119.648 47.3962C119.444 47.1682 119.342 46.8502 119.342 46.4422V41.5822H119.846L115.85 46.8562C115.706 47.0602 115.52 47.2582 115.292 47.4502C115.076 47.6422 114.758 47.7382 114.338 47.7382ZM125.483 47.5762C125.063 47.5762 124.739 47.4622 124.511 47.2342C124.283 47.0062 124.169 46.6762 124.169 46.2442V39.9622C124.169 39.5062 124.277 39.1642 124.493 38.9362C124.721 38.7082 125.039 38.5942 125.447 38.5942C125.855 38.5942 126.167 38.7082 126.383 38.9362C126.599 39.1642 126.707 39.5062 126.707 39.9622V45.4702H129.371V39.9622C129.371 39.5062 129.479 39.1642 129.695 38.9362C129.923 38.7082 130.241 38.5942 130.649 38.5942C131.057 38.5942 131.369 38.7082 131.585 38.9362C131.801 39.1642 131.909 39.5062 131.909 39.9622V45.4702H134.573V39.9622C134.573 39.5062 134.681 39.1642 134.897 38.9362C135.125 38.7082 135.443 38.5942 135.851 38.5942C136.259 38.5942 136.571 38.7082 136.787 38.9362C137.003 39.1642 137.111 39.5062 137.111 39.9622V46.2442C137.111 46.6762 136.997 47.0062 136.769 47.2342C136.541 47.4622 136.217 47.5762 135.797 47.5762H125.483ZM144.07 47.7742C143.026 47.7742 142.126 47.5882 141.37 47.2162C140.626 46.8322 140.05 46.2982 139.642 45.6142C139.246 44.9182 139.048 44.1022 139.048 43.1662C139.048 42.2542 139.24 41.4562 139.624 40.7722C140.008 40.0762 140.542 39.5362 141.226 39.1522C141.922 38.7562 142.708 38.5582 143.584 38.5582C144.22 38.5582 144.796 38.6662 145.312 38.8822C145.828 39.0862 146.272 39.3862 146.644 39.7822C147.016 40.1662 147.298 40.6402 147.49 41.2042C147.682 41.7562 147.778 42.3742 147.778 43.0582C147.778 43.2862 147.706 43.4602 147.562 43.5802C147.418 43.6882 147.208 43.7422 146.932 43.7422H141.28V42.3382H145.816L145.528 42.5902C145.528 42.0982 145.456 41.6902 145.312 41.3662C145.168 41.0302 144.958 40.7782 144.682 40.6102C144.418 40.4422 144.088 40.3582 143.692 40.3582C143.248 40.3582 142.87 40.4602 142.558 40.6642C142.246 40.8682 142.006 41.1622 141.838 41.5462C141.67 41.9302 141.586 42.3922 141.586 42.9322V43.0762C141.586 43.9882 141.796 44.6602 142.216 45.0922C142.648 45.5242 143.284 45.7402 144.124 45.7402C144.412 45.7402 144.742 45.7042 145.114 45.6322C145.486 45.5602 145.834 45.4462 146.158 45.2902C146.434 45.1582 146.68 45.1162 146.896 45.1642C147.112 45.2002 147.28 45.2962 147.4 45.4522C147.52 45.6082 147.586 45.7882 147.598 45.9922C147.622 46.1962 147.58 46.4002 147.472 46.6042C147.364 46.7962 147.184 46.9582 146.932 47.0902C146.524 47.3182 146.062 47.4862 145.546 47.5942C145.042 47.7142 144.55 47.7742 144.07 47.7742ZM156.498 47.7382C156.066 47.7382 155.736 47.6122 155.508 47.3602C155.28 47.1082 155.166 46.7482 155.166 46.2802V44.6062C154.854 44.7382 154.536 44.8342 154.212 44.8942C153.9 44.9542 153.588 44.9842 153.276 44.9842C151.932 44.9842 150.93 44.6602 150.27 44.0122C149.61 43.3522 149.28 42.3742 149.28 41.0782V39.9622C149.28 39.5182 149.394 39.1822 149.622 38.9542C149.862 38.7142 150.198 38.5942 150.63 38.5942C151.062 38.5942 151.398 38.7142 151.638 38.9542C151.878 39.1822 151.998 39.5182 151.998 39.9622V40.8262C151.998 41.5222 152.13 42.0262 152.394 42.3382C152.67 42.6502 153.138 42.8062 153.798 42.8062C154.05 42.8062 154.284 42.7822 154.5 42.7342C154.728 42.6742 154.932 42.5842 155.112 42.4642V40.0342C155.112 39.0742 155.568 38.5942 156.48 38.5942C156.936 38.5942 157.272 38.7202 157.488 38.9722C157.716 39.2122 157.83 39.5662 157.83 40.0342V46.2802C157.83 46.7482 157.722 47.1082 157.506 47.3602C157.29 47.6122 156.954 47.7382 156.498 47.7382ZM161.573 47.7382C161.129 47.7382 160.787 47.6182 160.547 47.3782C160.319 47.1382 160.205 46.7962 160.205 46.3522V39.9622C160.205 39.5062 160.319 39.1642 160.547 38.9362C160.787 38.7082 161.129 38.5942 161.573 38.5942C162.005 38.5942 162.335 38.7082 162.563 38.9362C162.803 39.1642 162.923 39.5062 162.923 39.9622V42.0142H166.289V39.9622C166.289 39.5062 166.403 39.1642 166.631 38.9362C166.859 38.7082 167.195 38.5942 167.639 38.5942C168.071 38.5942 168.407 38.7082 168.647 38.9362C168.887 39.1642 169.007 39.5062 169.007 39.9622V46.3522C169.007 46.7962 168.887 47.1382 168.647 47.3782C168.407 47.6182 168.071 47.7382 167.639 47.7382C167.195 47.7382 166.859 47.6182 166.631 47.3782C166.403 47.1382 166.289 46.7962 166.289 46.3522V44.1202H162.923V46.3522C162.923 46.7962 162.809 47.1382 162.581 47.3782C162.353 47.6182 162.017 47.7382 161.573 47.7382ZM172.627 47.7382C172.351 47.7382 172.117 47.6842 171.925 47.5762C171.733 47.4682 171.589 47.3122 171.493 47.1082C171.409 46.8922 171.367 46.6162 171.367 46.2802V39.8902C171.367 39.4702 171.475 39.1522 171.691 38.9362C171.907 38.7082 172.207 38.5942 172.591 38.5942C172.987 38.5942 173.287 38.7082 173.491 38.9362C173.707 39.1522 173.815 39.4702 173.815 39.8902V44.7322H173.329L177.307 39.4582C177.451 39.2662 177.637 39.0742 177.865 38.8822C178.093 38.6902 178.417 38.5942 178.837 38.5942C179.113 38.5942 179.341 38.6482 179.521 38.7562C179.713 38.8522 179.851 39.0082 179.935 39.2242C180.031 39.4282 180.079 39.6982 180.079 40.0342V46.4422C180.079 46.8502 179.971 47.1682 179.755 47.3962C179.551 47.6242 179.257 47.7382 178.873 47.7382C178.465 47.7382 178.153 47.6242 177.937 47.3962C177.733 47.1682 177.631 46.8502 177.631 46.4422V41.5822H178.135L174.139 46.8562C173.995 47.0602 173.809 47.2582 173.581 47.4502C173.365 47.6422 173.047 47.7382 172.627 47.7382ZM183.827 47.7382C183.383 47.7382 183.041 47.6182 182.801 47.3782C182.573 47.1382 182.459 46.7962 182.459 46.3522V39.9802C182.459 39.5362 182.573 39.1942 182.801 38.9542C183.041 38.7142 183.383 38.5942 183.827 38.5942C184.259 38.5942 184.589 38.7142 184.817 38.9542C185.057 39.1942 185.177 39.5362 185.177 39.9802V42.0322H186.239L188.255 39.2242C188.447 38.9482 188.669 38.7682 188.921 38.6842C189.185 38.6002 189.437 38.5942 189.677 38.6662C189.917 38.7382 190.115 38.8702 190.271 39.0622C190.427 39.2422 190.511 39.4582 190.523 39.7102C190.547 39.9622 190.457 40.2322 190.253 40.5202L188.309 43.2562L187.769 42.3742C188.093 42.4102 188.387 42.5062 188.651 42.6622C188.915 42.8182 189.155 43.0222 189.371 43.2742C189.587 43.5142 189.791 43.8082 189.983 44.1562L190.937 45.9022C191.105 46.2022 191.159 46.4842 191.099 46.7482C191.051 47.0002 190.925 47.2102 190.721 47.3782C190.529 47.5462 190.301 47.6482 190.037 47.6842C189.773 47.7322 189.515 47.7022 189.263 47.5942C189.011 47.4862 188.801 47.2762 188.633 46.9642L187.535 45.0202C187.415 44.7802 187.289 44.5942 187.157 44.4622C187.025 44.3302 186.875 44.2402 186.707 44.1922C186.551 44.1442 186.365 44.1202 186.149 44.1202H185.177V46.3522C185.177 46.7962 185.057 47.1382 184.817 47.3782C184.589 47.6182 184.259 47.7382 183.827 47.7382ZM195.87 47.7742C195.222 47.7742 194.64 47.6482 194.124 47.3962C193.608 47.1442 193.206 46.8022 192.918 46.3702C192.63 45.9382 192.486 45.4522 192.486 44.9122C192.486 44.2642 192.654 43.7542 192.99 43.3822C193.326 42.9982 193.872 42.7282 194.628 42.5722C195.384 42.4042 196.386 42.3202 197.634 42.3202H198.588V43.7242H197.652C197.04 43.7242 196.542 43.7602 196.158 43.8322C195.786 43.8922 195.516 44.0002 195.348 44.1562C195.192 44.3122 195.114 44.5282 195.114 44.8042C195.114 45.1402 195.228 45.4162 195.456 45.6322C195.696 45.8482 196.038 45.9562 196.482 45.9562C196.83 45.9562 197.136 45.8782 197.4 45.7222C197.676 45.5542 197.892 45.3322 198.048 45.0562C198.204 44.7682 198.282 44.4442 198.282 44.0842V42.0142C198.282 41.4862 198.162 41.1142 197.922 40.8982C197.682 40.6702 197.274 40.5562 196.698 40.5562C196.374 40.5562 196.02 40.5982 195.636 40.6822C195.264 40.7542 194.85 40.8802 194.394 41.0602C194.13 41.1802 193.896 41.2102 193.692 41.1502C193.488 41.0782 193.332 40.9582 193.224 40.7902C193.116 40.6102 193.062 40.4182 193.062 40.2142C193.062 39.9982 193.122 39.7942 193.242 39.6022C193.362 39.3982 193.56 39.2482 193.836 39.1522C194.4 38.9242 194.928 38.7682 195.42 38.6842C195.924 38.6002 196.386 38.5582 196.806 38.5582C197.73 38.5582 198.486 38.6962 199.074 38.9722C199.674 39.2362 200.124 39.6502 200.424 40.2142C200.724 40.7662 200.874 41.4802 200.874 42.3562V46.3522C200.874 46.7962 200.766 47.1382 200.55 47.3782C200.334 47.6182 200.022 47.7382 199.614 47.7382C199.206 47.7382 198.888 47.6182 198.66 47.3782C198.444 47.1382 198.336 46.7962 198.336 46.3522V45.6862L198.462 45.7942C198.39 46.2022 198.234 46.5562 197.994 46.8562C197.766 47.1442 197.472 47.3722 197.112 47.5402C196.752 47.6962 196.338 47.7742 195.87 47.7742ZM209.416 47.7382C209.032 47.7382 208.738 47.6302 208.534 47.4142C208.33 47.1862 208.228 46.8682 208.228 46.4602V40.0882C208.228 39.7642 208.27 39.4942 208.354 39.2782C208.438 39.0502 208.576 38.8822 208.768 38.7742C208.96 38.6542 209.194 38.5942 209.47 38.5942C209.734 38.5942 209.956 38.6362 210.136 38.7202C210.316 38.8042 210.472 38.9182 210.604 39.0622C210.736 39.2062 210.856 39.3742 210.964 39.5662L213.358 43.5622L215.734 39.5842C215.83 39.4042 215.938 39.2422 216.058 39.0982C216.19 38.9542 216.346 38.8342 216.526 38.7382C216.718 38.6422 216.946 38.5942 217.21 38.5942C217.642 38.5942 217.96 38.7262 218.164 38.9902C218.368 39.2422 218.47 39.6082 218.47 40.0882V46.4602C218.47 46.8682 218.368 47.1862 218.164 47.4142C217.96 47.6302 217.66 47.7382 217.264 47.7382C216.892 47.7382 216.598 47.6302 216.382 47.4142C216.178 47.1862 216.076 46.8682 216.076 46.4602V41.8882H216.526L214.258 45.6682C214.174 45.8002 214.066 45.9262 213.934 46.0462C213.802 46.1662 213.61 46.2262 213.358 46.2262C213.106 46.2262 212.914 46.1662 212.782 46.0462C212.65 45.9262 212.536 45.8002 212.44 45.6682L210.154 41.8882H210.604V46.4602C210.604 46.8682 210.502 47.1862 210.298 47.4142C210.094 47.6302 209.8 47.7382 209.416 47.7382ZM223.82 47.7742C223.172 47.7742 222.59 47.6482 222.074 47.3962C221.558 47.1442 221.156 46.8022 220.868 46.3702C220.58 45.9382 220.436 45.4522 220.436 44.9122C220.436 44.2642 220.604 43.7542 220.94 43.3822C221.276 42.9982 221.822 42.7282 222.578 42.5722C223.334 42.4042 224.336 42.3202 225.584 42.3202H226.538V43.7242H225.602C224.99 43.7242 224.492 43.7602 224.108 43.8322C223.736 43.8922 223.466 44.0002 223.298 44.1562C223.142 44.3122 223.064 44.5282 223.064 44.8042C223.064 45.1402 223.178 45.4162 223.406 45.6322C223.646 45.8482 223.988 45.9562 224.432 45.9562C224.78 45.9562 225.086 45.8782 225.35 45.7222C225.626 45.5542 225.842 45.3322 225.998 45.0562C226.154 44.7682 226.232 44.4442 226.232 44.0842V42.0142C226.232 41.4862 226.112 41.1142 225.872 40.8982C225.632 40.6702 225.224 40.5562 224.648 40.5562C224.324 40.5562 223.97 40.5982 223.586 40.6822C223.214 40.7542 222.8 40.8802 222.344 41.0602C222.08 41.1802 221.846 41.2102 221.642 41.1502C221.438 41.0782 221.282 40.9582 221.174 40.7902C221.066 40.6102 221.012 40.4182 221.012 40.2142C221.012 39.9982 221.072 39.7942 221.192 39.6022C221.312 39.3982 221.51 39.2482 221.786 39.1522C222.35 38.9242 222.878 38.7682 223.37 38.6842C223.874 38.6002 224.336 38.5582 224.756 38.5582C225.68 38.5582 226.436 38.6962 227.024 38.9722C227.624 39.2362 228.074 39.6502 228.374 40.2142C228.674 40.7662 228.824 41.4802 228.824 42.3562V46.3522C228.824 46.7962 228.716 47.1382 228.5 47.3782C228.284 47.6182 227.972 47.7382 227.564 47.7382C227.156 47.7382 226.838 47.6182 226.61 47.3782C226.394 47.1382 226.286 46.7962 226.286 46.3522V45.6862L226.412 45.7942C226.34 46.2022 226.184 46.5562 225.944 46.8562C225.716 47.1442 225.422 47.3722 225.062 47.5402C224.702 47.6962 224.288 47.7742 223.82 47.7742ZM238.404 47.7382C237.96 47.7382 237.618 47.6182 237.378 47.3782C237.15 47.1382 237.036 46.7962 237.036 46.3522V40.8442H234.732V41.8342C234.732 42.6022 234.678 43.2982 234.57 43.9222C234.462 44.5462 234.3 45.0982 234.084 45.5782C233.868 46.0582 233.592 46.4662 233.256 46.8022C232.92 47.1262 232.518 47.3842 232.05 47.5762C231.738 47.7082 231.456 47.7442 231.204 47.6842C230.952 47.6242 230.742 47.5102 230.574 47.3422C230.418 47.1742 230.316 46.9762 230.268 46.7482C230.232 46.5082 230.262 46.2742 230.358 46.0462C230.466 45.8062 230.658 45.6022 230.934 45.4342C231.198 45.2902 231.414 45.1042 231.582 44.8762C231.75 44.6482 231.882 44.3782 231.978 44.0662C232.074 43.7542 232.14 43.4122 232.176 43.0402C232.224 42.6562 232.248 42.2242 232.248 41.7442V40.2682C232.248 39.7762 232.374 39.3982 232.626 39.1342C232.89 38.8702 233.268 38.7382 233.76 38.7382H238.242C238.734 38.7382 239.106 38.8702 239.358 39.1342C239.622 39.3982 239.754 39.7762 239.754 40.2682V46.3522C239.754 46.7962 239.634 47.1382 239.394 47.3782C239.166 47.6182 238.836 47.7382 238.404 47.7382ZM243.45 47.5762C243.03 47.5762 242.706 47.4622 242.478 47.2342C242.25 47.0062 242.136 46.6762 242.136 46.2442V39.9622C242.136 39.5062 242.25 39.1642 242.478 38.9362C242.718 38.7082 243.06 38.5942 243.504 38.5942C243.936 38.5942 244.266 38.7082 244.494 38.9362C244.734 39.1642 244.854 39.5062 244.854 39.9622V41.5462H246.978C248.166 41.5462 249.06 41.7982 249.66 42.3022C250.272 42.7942 250.578 43.5262 250.578 44.4982C250.578 45.1102 250.428 45.6502 250.128 46.1182C249.828 46.5742 249.408 46.9342 248.868 47.1982C248.34 47.4502 247.71 47.5762 246.978 47.5762H243.45ZM244.854 45.8302H246.51C247.002 45.8302 247.386 45.7222 247.662 45.5062C247.95 45.2902 248.094 44.9662 248.094 44.5342C248.094 44.1022 247.956 43.7842 247.68 43.5802C247.404 43.3762 247.014 43.2742 246.51 43.2742H244.854V45.8302ZM252.846 47.7382C252.414 47.7382 252.078 47.6182 251.838 47.3782C251.61 47.1382 251.496 46.7962 251.496 46.3522V39.9622C251.496 39.5062 251.61 39.1642 251.838 38.9362C252.078 38.7082 252.414 38.5942 252.846 38.5942C253.29 38.5942 253.626 38.7082 253.854 38.9362C254.094 39.1642 254.214 39.5062 254.214 39.9622V46.3522C254.214 47.2762 253.758 47.7382 252.846 47.7382ZM257.899 47.5762C257.479 47.5762 257.155 47.4622 256.927 47.2342C256.699 47.0062 256.585 46.6762 256.585 46.2442V39.9622C256.585 39.5062 256.693 39.1642 256.909 38.9362C257.137 38.7082 257.455 38.5942 257.863 38.5942C258.271 38.5942 258.583 38.7082 258.799 38.9362C259.015 39.1642 259.123 39.5062 259.123 39.9622V45.4702H261.787V39.9622C261.787 39.5062 261.895 39.1642 262.111 38.9362C262.339 38.7082 262.657 38.5942 263.065 38.5942C263.473 38.5942 263.785 38.7082 264.001 38.9362C264.217 39.1642 264.325 39.5062 264.325 39.9622V45.4702H266.989V39.9622C266.989 39.5062 267.097 39.1642 267.313 38.9362C267.541 38.7082 267.859 38.5942 268.267 38.5942C268.675 38.5942 268.987 38.7082 269.203 38.9362C269.419 39.1642 269.527 39.5062 269.527 39.9622V46.2442C269.527 46.6762 269.413 47.0062 269.185 47.2342C268.957 47.4622 268.633 47.5762 268.213 47.5762H257.899ZM276.486 47.7742C275.442 47.7742 274.542 47.5882 273.786 47.2162C273.042 46.8322 272.466 46.2982 272.058 45.6142C271.662 44.9182 271.464 44.1022 271.464 43.1662C271.464 42.2542 271.656 41.4562 272.04 40.7722C272.424 40.0762 272.958 39.5362 273.642 39.1522C274.338 38.7562 275.124 38.5582 276 38.5582C276.636 38.5582 277.212 38.6662 277.728 38.8822C278.244 39.0862 278.688 39.3862 279.06 39.7822C279.432 40.1662 279.714 40.6402 279.906 41.2042C280.098 41.7562 280.194 42.3742 280.194 43.0582C280.194 43.2862 280.122 43.4602 279.978 43.5802C279.834 43.6882 279.624 43.7422 279.348 43.7422H273.696V42.3382H278.232L277.944 42.5902C277.944 42.0982 277.872 41.6902 277.728 41.3662C277.584 41.0302 277.374 40.7782 277.098 40.6102C276.834 40.4422 276.504 40.3582 276.108 40.3582C275.664 40.3582 275.286 40.4602 274.974 40.6642C274.662 40.8682 274.422 41.1622 274.254 41.5462C274.086 41.9302 274.002 42.3922 274.002 42.9322V43.0762C274.002 43.9882 274.212 44.6602 274.632 45.0922C275.064 45.5242 275.7 45.7402 276.54 45.7402C276.828 45.7402 277.158 45.7042 277.53 45.6322C277.902 45.5602 278.25 45.4462 278.574 45.2902C278.85 45.1582 279.096 45.1162 279.312 45.1642C279.528 45.2002 279.696 45.2962 279.816 45.4522C279.936 45.6082 280.002 45.7882 280.014 45.9922C280.038 46.1962 279.996 46.4002 279.888 46.6042C279.78 46.7962 279.6 46.9582 279.348 47.0902C278.94 47.3182 278.478 47.4862 277.962 47.5942C277.458 47.7142 276.966 47.7742 276.486 47.7742ZM283.316 47.7382C283.04 47.7382 282.806 47.6842 282.614 47.5762C282.422 47.4682 282.278 47.3122 282.182 47.1082C282.098 46.8922 282.056 46.6162 282.056 46.2802V39.8902C282.056 39.4702 282.164 39.1522 282.38 38.9362C282.596 38.7082 282.896 38.5942 283.28 38.5942C283.676 38.5942 283.976 38.7082 284.18 38.9362C284.396 39.1522 284.504 39.4702 284.504 39.8902V44.7322H284.018L287.996 39.4582C288.14 39.2662 288.326 39.0742 288.554 38.8822C288.782 38.6902 289.106 38.5942 289.526 38.5942C289.802 38.5942 290.03 38.6482 290.21 38.7562C290.402 38.8522 290.54 39.0082 290.624 39.2242C290.72 39.4282 290.768 39.6982 290.768 40.0342V46.4422C290.768 46.8502 290.66 47.1682 290.444 47.3962C290.24 47.6242 289.946 47.7382 289.562 47.7382C289.154 47.7382 288.842 47.6242 288.626 47.3962C288.422 47.1682 288.32 46.8502 288.32 46.4422V41.5822H288.824L284.828 46.8562C284.684 47.0602 284.498 47.2582 284.27 47.4502C284.054 47.6422 283.736 47.7382 283.316 47.7382ZM286.412 37.6402C285.596 37.6402 284.906 37.4662 284.342 37.1182C283.79 36.7582 283.4 36.2782 283.172 35.6782C283.076 35.4262 283.07 35.2162 283.154 35.0482C283.25 34.8682 283.4 34.7422 283.604 34.6702C283.808 34.5982 283.988 34.6102 284.144 34.7062C284.3 34.7902 284.444 34.9522 284.576 35.1922C284.768 35.5282 285.014 35.7802 285.314 35.9482C285.614 36.1162 285.98 36.2002 286.412 36.2002C286.844 36.2002 287.21 36.1162 287.51 35.9482C287.81 35.7802 288.056 35.5282 288.248 35.1922C288.38 34.9522 288.524 34.7902 288.68 34.7062C288.836 34.6102 289.016 34.5982 289.22 34.6702C289.436 34.7422 289.586 34.8682 289.67 35.0482C289.754 35.2162 289.736 35.4262 289.616 35.6782C289.34 36.2782 288.938 36.7582 288.41 37.1182C287.894 37.4662 287.228 37.6402 286.412 37.6402Z" fill="#EE96AF"/>
<path d="M4.89834 25.2662C4.14906 25.2662 3.57724 25.0592 3.18288 24.6451C2.78851 24.231 2.59133 23.6493 2.59133 22.9V6.54392C2.59133 5.77491 2.79837 5.18337 3.21245 4.7693C3.62653 4.35522 4.21807 4.14818 4.98708 4.14818H18.8587C19.6277 4.14818 20.2193 4.35522 20.6333 4.7693C21.0474 5.18337 21.2545 5.77491 21.2545 6.54392V22.9C21.2545 23.6493 21.0573 24.231 20.6629 24.6451C20.2686 25.0592 19.7066 25.2662 18.977 25.2662C18.2277 25.2662 17.6559 25.0592 17.2616 24.6451C16.8672 24.231 16.67 23.6493 16.67 22.9V7.93404H7.17578V22.9C7.17578 23.6493 6.9786 24.231 6.58424 24.6451C6.20959 25.0592 5.64763 25.2662 4.89834 25.2662ZM27.7455 25.2662C26.9962 25.2662 26.4244 25.0592 26.03 24.6451C25.6356 24.231 25.4385 23.6493 25.4385 22.9V6.48476C25.4385 5.71576 25.6356 5.13408 26.03 4.73972C26.4441 4.34536 27.0258 4.14818 27.775 4.14818H34.9623C37.289 4.14818 39.0833 4.73972 40.3453 5.9228C41.6072 7.08616 42.2382 8.7129 42.2382 10.803C42.2382 12.8931 41.6072 14.5297 40.3453 15.7128C39.0833 16.8959 37.289 17.4874 34.9623 17.4874H30.0229V22.9C30.0229 23.6493 29.8257 24.231 29.4314 24.6451C29.0567 25.0592 28.4947 25.2662 27.7455 25.2662ZM30.0229 13.9382H34.1933C35.3763 13.9382 36.2735 13.672 36.8848 13.1396C37.5157 12.6072 37.8312 11.8284 37.8312 10.803C37.8312 9.77768 37.5157 9.00867 36.8848 8.496C36.2735 7.98333 35.3763 7.727 34.1933 7.727H30.0229V13.9382ZM54.4623 25.3253C52.4116 25.3253 50.6074 24.8817 49.0497 23.9944C47.5117 23.0874 46.3089 21.8254 45.4413 20.2085C44.5934 18.5916 44.1695 16.7086 44.1695 14.5593C44.1695 12.9227 44.4061 11.4537 44.8794 10.1523C45.3723 8.83121 46.0723 7.70728 46.9793 6.78053C47.8864 5.83407 48.9708 5.1045 50.2328 4.59183C51.5145 4.07916 52.9243 3.82283 54.4623 3.82283C56.5524 3.82283 58.3665 4.26649 59.9045 5.1538C61.4425 6.04111 62.6354 7.2932 63.4833 8.91008C64.3509 10.5072 64.7847 12.3805 64.7847 14.5297C64.7847 16.1663 64.5382 17.6452 64.0453 18.9663C63.5523 20.2874 62.8523 21.4212 61.9453 22.3676C61.0383 23.3141 59.9538 24.0437 58.6918 24.5563C57.4299 25.069 56.02 25.3253 54.4623 25.3253ZM54.4623 21.4212C55.6257 21.4212 56.6116 21.155 57.42 20.6226C58.2482 20.0705 58.8792 19.2818 59.313 18.2564C59.7665 17.2114 59.9932 15.979 59.9932 14.5593C59.9932 12.3903 59.5101 10.7143 58.544 9.5312C57.5778 8.3284 56.2172 7.727 54.4623 7.727C53.3187 7.727 52.3328 7.99319 51.5046 8.52558C50.6765 9.05797 50.0455 9.83683 49.6117 10.8622C49.1779 11.8875 48.961 13.1199 48.961 14.5593C48.961 16.7086 49.4441 18.3945 50.4103 19.617C51.3764 20.8198 52.7271 21.4212 54.4623 21.4212ZM78.4463 25.3253C76.1985 25.3253 74.2759 24.8817 72.6788 23.9944C71.0816 23.1071 69.8492 21.8648 68.9817 20.2677C68.1338 18.6508 67.7098 16.748 67.7098 14.5593C67.7098 12.9227 67.9465 11.4537 68.4197 10.1523C68.9126 8.83121 69.6225 7.70728 70.5492 6.78053C71.476 5.83407 72.5999 5.1045 73.921 4.59183C75.2618 4.07916 76.7703 3.82283 78.4463 3.82283C79.4322 3.82283 80.428 3.951 81.4336 4.20733C82.4589 4.44395 83.3462 4.78901 84.0955 5.24253C84.5885 5.51858 84.9237 5.86365 85.1011 6.27772C85.2786 6.6918 85.3279 7.10588 85.249 7.51996C85.1899 7.93404 85.0223 8.28896 84.7462 8.58474C84.4899 8.88051 84.1645 9.06783 83.7702 9.1467C83.3758 9.22557 82.9322 9.13684 82.4392 8.88051C81.8477 8.52558 81.2266 8.26925 80.5759 8.1115C79.9252 7.95376 79.2646 7.87488 78.5942 7.87488C77.2731 7.87488 76.159 8.14108 75.252 8.67347C74.3647 9.18613 73.6943 9.93542 73.2407 10.9213C72.7872 11.9072 72.5605 13.1199 72.5605 14.5593C72.5605 15.979 72.7872 17.1917 73.2407 18.1973C73.6943 19.2029 74.3647 19.9719 75.252 20.5043C76.159 21.017 77.2731 21.2733 78.5942 21.2733C79.2252 21.2733 79.866 21.1944 80.5167 21.0367C81.1871 20.8789 81.828 20.6325 82.4392 20.2972C82.9519 20.0409 83.4054 19.9522 83.7998 20.0311C84.2138 20.0902 84.549 20.2677 84.8054 20.5634C85.0814 20.8395 85.249 21.1747 85.3082 21.5691C85.3871 21.9634 85.3476 22.3578 85.1899 22.7521C85.0321 23.1465 84.7364 23.4817 84.3026 23.7578C83.573 24.2507 82.6758 24.6352 81.6111 24.9113C80.5463 25.1873 79.4914 25.3253 78.4463 25.3253ZM95.5368 25.2662C94.7875 25.2662 94.2157 25.0592 93.8213 24.6451C93.4269 24.231 93.2298 23.6493 93.2298 22.9V7.93404H87.9946C87.3834 7.93404 86.9101 7.76644 86.5749 7.43123C86.2397 7.09602 86.0721 6.63265 86.0721 6.04111C86.0721 5.42985 86.2397 4.96647 86.5749 4.65099C86.9101 4.31578 87.3834 4.14818 87.9946 4.14818H103.049C103.661 4.14818 104.134 4.31578 104.469 4.65099C104.804 4.96647 104.972 5.42985 104.972 6.04111C104.972 6.63265 104.804 7.09602 104.469 7.43123C104.134 7.76644 103.661 7.93404 103.049 7.93404H97.8142V22.9C97.8142 23.6493 97.617 24.231 97.2227 24.6451C96.848 25.0592 96.286 25.2662 95.5368 25.2662ZM109.344 25C108.575 25 107.984 24.793 107.57 24.3789C107.156 23.9648 106.949 23.3733 106.949 22.6043V6.24815C106.949 5.49886 107.146 4.91718 107.54 4.5031C107.935 4.08902 108.506 3.88198 109.256 3.88198C109.985 3.88198 110.547 4.08902 110.942 4.5031C111.336 4.91718 111.533 5.49886 111.533 6.24815V12.5481H115.94C117.439 12.5481 118.72 12.7945 119.785 13.2875C120.87 13.7607 121.698 14.4607 122.27 15.3875C122.861 16.2945 123.157 17.4184 123.157 18.7592C123.157 20.7705 122.516 22.3183 121.234 23.4028C119.953 24.4676 118.188 25 115.94 25H109.344ZM111.533 21.4508H115.319C116.502 21.4508 117.37 21.2339 117.922 20.8001C118.474 20.3465 118.75 19.6663 118.75 18.7592C118.75 17.8522 118.474 17.1818 117.922 16.748C117.37 16.3142 116.502 16.0973 115.319 16.0973H111.533V21.4508ZM127.919 25.2662C127.169 25.2662 126.598 25.0592 126.203 24.6451C125.809 24.231 125.612 23.6493 125.612 22.9V6.24815C125.612 5.49886 125.809 4.91718 126.203 4.5031C126.598 4.08902 127.169 3.88198 127.919 3.88198C128.668 3.88198 129.24 4.08902 129.634 4.5031C130.029 4.91718 130.226 5.49886 130.226 6.24815V22.9C130.226 23.6493 130.029 24.231 129.634 24.6451C129.26 25.0592 128.688 25.2662 127.919 25.2662ZM136.784 25C136.015 25 135.423 24.793 135.009 24.3789C134.595 23.9648 134.388 23.3733 134.388 22.6043V6.54392C134.388 5.77491 134.595 5.18337 135.009 4.7693C135.423 4.35522 136.015 4.14818 136.784 4.14818H147.106C147.698 4.14818 148.142 4.30592 148.437 4.62141C148.753 4.91718 148.911 5.35098 148.911 5.9228C148.911 6.51434 148.753 6.96786 148.437 7.28334C148.142 7.57911 147.698 7.727 147.106 7.727H138.766V12.6072H146.426C147.037 12.6072 147.491 12.765 147.787 13.0804C148.102 13.3762 148.26 13.8199 148.26 14.4114C148.26 15.003 148.102 15.4565 147.787 15.772C147.491 16.0677 147.037 16.2156 146.426 16.2156H138.766V21.4212H147.106C147.698 21.4212 148.142 21.5789 148.437 21.8944C148.753 22.1902 148.911 22.624 148.911 23.1958C148.911 23.7873 148.753 24.2409 148.437 24.5563C148.142 24.8521 147.698 25 147.106 25H136.784ZM162.864 25.2662C162.115 25.2662 161.543 25.0592 161.149 24.6451C160.754 24.231 160.557 23.6493 160.557 22.9V6.54392C160.557 5.77491 160.764 5.18337 161.178 4.7693C161.592 4.35522 162.184 4.14818 162.953 4.14818H176.824C177.593 4.14818 178.185 4.35522 178.599 4.7693C179.013 5.18337 179.22 5.77491 179.22 6.54392V22.9C179.22 23.6493 179.023 24.231 178.629 24.6451C178.234 25.0592 177.672 25.2662 176.943 25.2662C176.193 25.2662 175.622 25.0592 175.227 24.6451C174.833 24.231 174.636 23.6493 174.636 22.9V7.93404H165.142V22.9C165.142 23.6493 164.944 24.231 164.55 24.6451C164.175 25.0592 163.613 25.2662 162.864 25.2662ZM185.711 25.2662C184.962 25.2662 184.39 25.0592 183.996 24.6451C183.601 24.231 183.404 23.6493 183.404 22.9V6.48476C183.404 5.71576 183.601 5.13408 183.996 4.73972C184.41 4.34536 184.991 4.14818 185.741 4.14818H192.928C195.255 4.14818 197.049 4.73972 198.311 5.9228C199.573 7.08616 200.204 8.7129 200.204 10.803C200.204 12.8931 199.573 14.5297 198.311 15.7128C197.049 16.8959 195.255 17.4874 192.928 17.4874H187.989V22.9C187.989 23.6493 187.791 24.231 187.397 24.6451C187.022 25.0592 186.46 25.2662 185.711 25.2662ZM187.989 13.9382H192.159C193.342 13.9382 194.239 13.672 194.851 13.1396C195.481 12.6072 195.797 11.8284 195.797 10.803C195.797 9.77768 195.481 9.00867 194.851 8.496C194.239 7.98333 193.342 7.727 192.159 7.727H187.989V13.9382ZM201.413 25.2662C200.861 25.2662 200.407 25.138 200.052 24.8817C199.717 24.6254 199.5 24.2803 199.401 23.8465C199.323 23.4127 199.411 22.9296 199.668 22.3972L207.239 5.80449C207.555 5.13408 207.929 4.65099 208.363 4.35522C208.797 4.03973 209.3 3.88198 209.872 3.88198C210.444 3.88198 210.946 4.03973 211.38 4.35522C211.814 4.65099 212.179 5.13408 212.474 5.80449L220.105 22.3972C220.362 22.9296 220.45 23.4226 220.372 23.8761C220.312 24.3099 220.115 24.6549 219.78 24.9113C219.445 25.1479 219.011 25.2662 218.479 25.2662C217.808 25.2662 217.286 25.1084 216.911 24.793C216.556 24.4775 216.241 23.9845 215.965 23.3141L214.19 19.2029L216.024 20.4747H203.69L205.524 19.2029L203.779 23.3141C203.483 24.0042 203.168 24.507 202.832 24.8225C202.517 25.1183 202.044 25.2662 201.413 25.2662ZM209.813 9.02839L206.027 18.0494L205.228 16.8959H214.486L213.687 18.0494L209.872 9.02839H209.813ZM225.486 25C224.717 25 224.126 24.793 223.712 24.3789C223.298 23.9648 223.091 23.3733 223.091 22.6043V6.54392C223.091 5.77491 223.298 5.18337 223.712 4.7693C224.126 4.35522 224.717 4.14818 225.486 4.14818H232.644C234.123 4.14818 235.385 4.36507 236.43 4.79887C237.475 5.23267 238.264 5.85379 238.796 6.66223C239.348 7.47067 239.624 8.43685 239.624 9.56078C239.624 10.803 239.269 11.8579 238.559 12.7255C237.85 13.5931 236.873 14.1748 235.631 14.4706V13.9973C237.071 14.2537 238.185 14.8255 238.973 15.7128C239.782 16.5804 240.186 17.7142 240.186 19.1142C240.186 20.9677 239.545 22.4169 238.264 23.462C236.982 24.4873 235.217 25 232.969 25H225.486ZM227.468 21.5986H232.348C233.531 21.5986 234.399 21.3719 234.951 20.9184C235.503 20.4451 235.779 19.755 235.779 18.848C235.779 17.9409 235.503 17.2607 234.951 16.8072C234.399 16.3536 233.531 16.1269 232.348 16.1269H227.468V21.5986ZM227.468 12.7255H231.845C232.989 12.7255 233.837 12.5086 234.389 12.0748C234.941 11.641 235.217 10.9903 235.217 10.1227C235.217 9.27487 234.941 8.63403 234.389 8.20023C233.837 7.76644 232.989 7.54954 231.845 7.54954H227.468V12.7255ZM245.608 25.2662C245.312 25.2662 245.036 25.2169 244.78 25.1183C244.543 25.0197 244.336 24.8718 244.159 24.6747C244.001 24.4775 243.873 24.2409 243.774 23.9648C243.695 23.669 243.656 23.3338 243.656 22.9592V6.07068C243.656 5.38055 243.833 4.84817 244.188 4.47353C244.563 4.07916 245.095 3.88198 245.785 3.88198C246.495 3.88198 247.028 4.07916 247.383 4.47353C247.738 4.84817 247.915 5.38055 247.915 6.07068V18.4339H247.176L257.498 5.21295C257.853 4.73972 258.198 4.40451 258.533 4.20733C258.868 3.99043 259.312 3.88198 259.864 3.88198C260.239 3.88198 260.564 3.97071 260.84 4.14818C261.116 4.32564 261.333 4.57211 261.491 4.8876C261.649 5.20309 261.727 5.56788 261.727 5.98195V23.0479C261.727 23.7578 261.54 24.3099 261.165 24.7042C260.811 25.0789 260.288 25.2662 259.598 25.2662C258.908 25.2662 258.375 25.0789 258.001 24.7042C257.646 24.3099 257.468 23.7578 257.468 23.0479V10.6847H258.178L247.885 23.9056C247.511 24.3789 247.166 24.7239 246.85 24.9408C246.554 25.1577 246.14 25.2662 245.608 25.2662ZM281.867 25.2662C281.118 25.2662 280.546 25.0592 280.152 24.6451C279.758 24.231 279.56 23.6493 279.56 22.9V7.93404H273.113V11.7199C273.113 13.3762 272.994 14.8748 272.758 16.2156C272.521 17.5564 272.176 18.7691 271.722 19.8536C271.269 20.9184 270.707 21.8648 270.037 22.693C269.386 23.5211 268.637 24.231 267.789 24.8225C267.276 25.1972 266.744 25.3352 266.192 25.2366C265.659 25.1577 265.196 24.862 264.801 24.3493C264.407 23.8169 264.269 23.2944 264.387 22.7817C264.525 22.2493 264.851 21.786 265.363 21.3916C265.975 20.9381 266.497 20.3958 266.931 19.7649C267.384 19.1142 267.749 18.355 268.025 17.4874C268.321 16.6198 268.538 15.6142 268.676 14.4706C268.814 13.3072 268.883 11.996 268.883 10.5368V6.54392C268.883 5.77491 269.09 5.18337 269.504 4.7693C269.918 4.35522 270.52 4.14818 271.308 4.14818H281.749C282.538 4.14818 283.139 4.35522 283.553 4.7693C283.967 5.18337 284.174 5.77491 284.174 6.54392V22.9C284.174 23.6493 283.977 24.231 283.583 24.6451C283.188 25.0592 282.617 25.2662 281.867 25.2662ZM288.931 25.2662C288.379 25.2662 287.925 25.138 287.57 24.8817C287.235 24.6254 287.018 24.2803 286.919 23.8465C286.841 23.4127 286.929 22.9296 287.186 22.3972L294.757 5.80449C295.073 5.13408 295.448 4.65099 295.881 4.35522C296.315 4.03973 296.818 3.88198 297.39 3.88198C297.962 3.88198 298.464 4.03973 298.898 4.35522C299.332 4.65099 299.697 5.13408 299.993 5.80449L307.623 22.3972C307.88 22.9296 307.968 23.4226 307.89 23.8761C307.83 24.3099 307.633 24.6549 307.298 24.9113C306.963 25.1479 306.529 25.2662 305.997 25.2662C305.326 25.2662 304.804 25.1084 304.429 24.793C304.074 24.4775 303.759 23.9845 303.483 23.3141L301.708 19.2029L303.542 20.4747H291.208L293.042 19.2029L291.297 23.3141C291.001 24.0042 290.686 24.507 290.35 24.8225C290.035 25.1183 289.562 25.2662 288.931 25.2662ZM297.331 9.02839L293.545 18.0494L292.746 16.8959H302.004L301.205 18.0494L297.39 9.02839H297.331Z" fill="#78BAD5"/>
</svg>
