<svg width="210" height="200" viewBox="0 0 210 200" fill="none" xmlns="http://www.w3.org/2000/svg">
<g clip-path="url(#clip0_2001_1832)">
<rect width="210" height="200" fill="white"/>
<path d="M76.5225 258.215C86.0364 227.795 86.0642 219.922 87.4888 174.334L97.4938 160.151C97.6527 159.925 97.7417 159.658 97.7496 159.383L100.643 58.1201C100.643 58.1068 100.643 58.0942 100.644 58.0808C100.647 57.6703 100.774 50.8354 105.002 50.8354C109.23 50.8354 109.357 57.6703 109.361 58.0808C109.361 58.0942 109.361 58.1068 109.362 58.1201L112.255 159.383C112.263 159.658 112.352 159.925 112.511 160.151L122.516 174.334C125.29 219.948 125.342 227.804 133.575 258.269C133.816 259.161 133.149 260.057 132.225 260.057H77.8568C76.9091 260.057 76.2396 259.12 76.5225 258.215Z" fill="white"/>
<path fill-rule="evenodd" clip-rule="evenodd" d="M87.4663 175.055L87.4888 174.334L97.4938 160.151C97.6527 159.925 97.7417 159.658 97.7496 159.383L100.643 58.1201C100.643 58.1068 100.643 58.0942 100.644 58.0808C100.647 57.6703 100.774 50.8354 105.002 50.8354C109.23 50.8354 109.357 57.6703 109.361 58.0808C109.361 58.0942 109.361 58.1068 109.362 58.1201L112.255 159.383C112.263 159.658 112.352 159.925 112.511 160.151L122.516 174.334L122.559 175.049C122.714 177.595 122.86 180.022 122.999 182.341L123 182.356C125.327 221.003 125.85 229.682 133.575 258.269C133.816 259.161 133.149 260.057 132.225 260.057H77.8568C76.9091 260.057 76.2396 259.12 76.5225 258.215C85.801 228.547 86.057 220.325 87.3854 177.649L87.4663 175.055ZM88.7854 177.745L88.858 175.413L89.0818 175.469C90.1886 175.743 91.7369 176.109 93.5036 176.474C97.0236 177.202 101.46 177.941 105.002 177.941C108.544 177.941 112.981 177.202 116.501 176.474C118.267 176.109 119.816 175.743 120.923 175.469L121.176 175.406C121.324 177.846 121.464 180.177 121.599 182.408L121.601 182.455C123.928 221.106 124.458 229.909 132.221 258.635C132.223 258.639 132.223 258.641 132.223 258.641L132.222 258.643C132.222 258.643 132.22 258.65 132.216 258.655H77.8653C77.8615 258.65 77.8594 258.642 77.8594 258.642L77.8593 258.641L77.8596 258.639L77.8608 258.634C82.6293 243.387 85.0425 233.721 86.4314 222.129C87.7453 211.164 88.1398 198.488 88.7854 177.745ZM99.1513 159.423C99.1355 159.974 98.9576 160.508 98.6396 160.959L89.4188 174.108C90.5124 174.379 92.0426 174.74 93.7877 175.101C97.2912 175.826 101.611 176.539 105.002 176.539C108.393 176.539 112.713 175.826 116.217 175.101C117.962 174.74 119.492 174.379 120.586 174.108L120.632 174.097L111.365 160.959C111.047 160.508 110.869 159.974 110.853 159.423L107.96 58.1603C107.959 58.1344 107.959 58.1119 107.959 58.0938C107.886 55.534 107.341 52.1776 105 52.1788C102.66 52.18 102.118 55.534 102.046 58.0938C102.046 58.1119 102.045 58.1344 102.044 58.1603L99.1513 159.423Z" fill="#3A5ECF"/>
<path d="M94.8242 110.405C94.8242 108.801 96.1252 107.5 97.7301 107.5H112.259C113.864 107.5 115.165 108.801 115.165 110.405C115.165 112.01 113.864 113.311 112.259 113.311H97.7301C96.1252 113.311 94.8242 112.01 94.8242 110.405Z" fill="white"/>
<path fill-rule="evenodd" clip-rule="evenodd" d="M112.259 108.902H97.7301C96.8997 108.902 96.2265 109.575 96.2265 110.405C96.2265 111.236 96.8997 111.909 97.7301 111.909H112.259C113.09 111.909 113.763 111.236 113.763 110.405C113.763 109.575 113.09 108.902 112.259 108.902ZM97.7301 107.5C96.1252 107.5 94.8242 108.801 94.8242 110.405C94.8242 112.01 96.1252 113.311 97.7301 113.311H112.259C113.864 113.311 115.165 112.01 115.165 110.405C115.165 108.801 113.864 107.5 112.259 107.5H97.7301Z" fill="#3A5ECF"/>
<path fill-rule="evenodd" clip-rule="evenodd" d="M111.341 36.5644C113.205 32.9001 114.317 28.6545 114.317 26.2654C114.317 21.7353 110.237 18.0629 105.203 18.0629C100.17 18.0629 96.0893 21.7353 96.0893 26.2654C96.0893 28.6545 97.2016 32.9001 99.0657 36.5644C99.9919 38.385 101.06 39.9722 102.186 41.0819C103.334 42.2129 104.356 42.6705 105.203 42.6705C106.051 42.6705 107.073 42.2129 108.221 41.0819C109.347 39.9722 110.415 38.385 111.341 36.5644ZM105.203 44.0376C111.076 44.0376 115.836 31.5506 115.836 26.2654C115.836 20.9803 111.076 16.6958 105.203 16.6958C99.3308 16.6958 94.5703 20.9803 94.5703 26.2654C94.5703 31.5506 99.3308 44.0376 105.203 44.0376Z" fill="#00D2F2"/>
<path opacity="0.4" fill-rule="evenodd" clip-rule="evenodd" d="M235.347 246.486C236.429 246.708 237.126 247.765 236.904 248.847C234.145 262.278 228.796 273.95 221.698 282.308C214.597 290.669 205.638 295.82 195.753 295.82C183.425 295.82 172.567 287.829 164.892 275.549C157.2 263.24 152.508 246.36 152.508 227.82C152.508 209.28 157.2 192.4 164.892 180.091C172.567 167.811 183.425 159.82 195.753 159.82C205.638 159.82 214.597 164.971 221.698 173.332C228.796 181.69 234.145 193.362 236.904 206.793C237.126 207.875 236.429 208.932 235.347 209.154C234.265 209.376 233.208 208.679 232.986 207.597C230.332 194.678 225.224 183.663 218.649 175.921C212.077 168.182 204.147 163.82 195.753 163.82C185.302 163.82 175.538 170.604 168.284 182.211C161.049 193.79 156.508 209.909 156.508 227.82C156.508 245.73 161.049 261.85 168.284 273.429C175.538 285.035 185.302 291.82 195.753 291.82C204.147 291.82 212.077 287.458 218.649 279.719C225.224 271.977 230.332 260.962 232.986 248.042C233.208 246.96 234.265 246.263 235.347 246.486Z" fill="#E65A80"/>
<path opacity="0.4" fill-rule="evenodd" clip-rule="evenodd" d="M-24.8942 246.486C-25.9762 246.708 -26.6731 247.765 -26.4509 248.847C-23.6922 262.278 -18.3431 273.95 -11.245 282.308C-4.14436 290.669 4.8156 295.82 14.6998 295.82C27.0279 295.82 37.8863 287.829 45.5608 275.549C53.2529 263.24 57.9452 246.36 57.9452 227.82C57.9452 209.28 53.2529 192.4 45.5608 180.091C37.8863 167.811 27.0279 159.82 14.6998 159.82C4.81559 159.82 -4.14437 164.971 -11.2451 173.332C-18.3431 181.69 -23.6922 193.362 -26.4509 206.793C-26.6731 207.875 -25.9762 208.932 -24.8942 209.154C-23.8122 209.376 -22.7549 208.679 -22.5327 207.597C-19.879 194.678 -14.7713 183.663 -8.1962 175.921C-1.62371 168.182 6.30591 163.82 14.6998 163.82C25.1509 163.82 34.9153 170.604 42.1687 182.211C49.4045 193.79 53.9452 209.909 53.9452 227.82C53.9452 245.73 49.4045 261.85 42.1687 273.429C34.9153 285.035 25.1509 291.82 14.6998 291.82C6.30591 291.82 -1.62371 287.458 -8.19619 279.719C-14.7713 271.977 -19.879 260.962 -22.5327 248.042C-22.7549 246.96 -23.8122 246.263 -24.8942 246.486Z" fill="#E65A80"/>
<path opacity="0.4" fill-rule="evenodd" clip-rule="evenodd" d="M252.91 200.148C251.828 200.37 250.771 199.673 250.548 198.591C246.713 179.919 239.322 163.95 229.762 152.693C220.204 141.439 208.586 135 196.202 135C180.777 135 166.51 145.01 155.997 161.832C145.502 178.626 138.945 201.951 138.945 227.82C138.945 253.689 145.502 277.014 155.997 293.808C166.51 310.63 180.777 320.64 196.202 320.64C208.586 320.64 220.204 314.201 229.762 302.947C239.322 291.69 246.713 275.721 250.548 257.049C250.771 255.967 251.828 255.27 252.91 255.492C253.992 255.715 254.689 256.772 254.467 257.854C250.526 277.038 242.894 293.663 232.81 305.537C222.724 317.413 210.077 324.64 196.202 324.64C178.9 324.64 163.539 313.424 152.605 295.928C141.654 278.404 134.945 254.319 134.945 227.82C134.945 201.321 141.654 177.236 152.605 159.712C163.539 142.216 178.9 131 196.202 131C210.077 131 222.724 138.228 232.81 150.104C242.894 161.977 250.526 178.603 254.467 197.786C254.689 198.868 253.992 199.926 252.91 200.148Z" fill="#E65A80"/>
<path opacity="0.4" fill-rule="evenodd" clip-rule="evenodd" d="M-42.4567 200.148C-41.3747 200.37 -40.3174 199.673 -40.0952 198.591C-36.2598 179.919 -28.869 163.95 -19.3085 152.693C-9.7506 141.439 1.86666 135 14.2513 135C29.676 135 43.9431 145.01 54.4559 161.832C64.951 178.626 71.5078 201.951 71.5078 227.82C71.5078 253.689 64.951 277.014 54.4559 293.808C43.9432 310.63 29.676 320.64 14.2513 320.64C1.86667 320.64 -9.75059 314.201 -19.3085 302.947C-28.869 291.69 -36.2598 275.721 -40.0952 257.049C-40.3174 255.967 -41.3747 255.27 -42.4567 255.492C-43.5387 255.715 -44.2356 256.772 -44.0134 257.854C-40.0729 277.038 -32.4407 293.663 -22.3573 305.537C-12.2713 317.413 0.376355 324.64 14.2513 324.64C31.553 324.64 46.9141 313.424 57.848 295.928C68.7995 278.404 75.5078 254.319 75.5078 227.82C75.5078 201.321 68.7995 177.236 57.848 159.712C46.9141 142.216 31.553 131 14.2513 131C0.376347 131 -12.2713 138.228 -22.3573 150.104C-32.4407 161.977 -40.0729 178.603 -44.0134 197.786C-44.2356 198.868 -43.5387 199.926 -42.4567 200.148Z" fill="#E65A80"/>
</g>
<defs>
<clipPath id="clip0_2001_1832">
<rect width="210" height="200" fill="white"/>
</clipPath>
</defs>
</svg>
