<svg width="210" height="200" viewBox="0 0 210 200" fill="none" xmlns="http://www.w3.org/2000/svg">
<g clip-path="url(#clip0_2001_757)">
<rect width="210" height="200" fill="white"/>
<path d="M76.0305 177.056C76.0137 178.677 77.3231 180 78.9443 180H131.334C132.955 180 134.264 178.677 134.248 177.056L134.172 169.771C134.156 168.173 132.856 166.887 131.258 166.887H79.0197C77.4222 166.887 76.1225 168.173 76.106 169.771L76.0305 177.056Z" fill="#3A5ECF"/>
<path d="M101.496 -32.6736L101.496 -32.6737C101.496 -32.6942 101.497 -32.7131 101.497 -32.7289C101.499 -32.9222 101.532 -34.6497 102.061 -36.306C102.604 -38.0061 103.533 -39.2715 105.139 -39.2715C106.745 -39.2715 107.674 -38.0061 108.217 -36.306C108.746 -34.6497 108.779 -32.9222 108.781 -32.7289C108.782 -32.713 108.782 -32.6942 108.782 -32.6738L108.782 -32.6736L111.683 68.8531C111.695 69.2828 111.834 69.6992 112.082 70.0504L121.901 83.9705C117.618 98.1493 115.416 107.276 116.751 118.771C118.092 130.312 122.993 144.199 132.765 168.035C132.972 168.54 132.595 169.073 132.103 169.073H78.232C77.733 169.073 77.3553 168.526 77.5775 168.019C88.0017 144.2 93.2315 130.311 94.5617 118.763C95.8869 107.258 93.3369 98.1222 88.3886 83.9546L98.1963 70.0504C98.4441 69.6992 98.5828 69.2828 98.595 68.8531L101.496 -32.6736Z" fill="white" stroke="#3A5ECF" stroke-width="1.45695"/>
<rect x="95.6699" y="17.5498" width="18.9404" height="4.37086" rx="2.18543" fill="white" stroke="#3A5ECF" stroke-width="1.45695"/>
<path d="M124.897 117.728C123.858 118.253 123.864 119.74 124.908 120.256L131.64 123.588C132.58 124.052 133.681 123.369 133.681 122.321L133.681 115.588C133.681 114.535 132.57 113.852 131.63 114.327L124.897 117.728Z" fill="#00D2F2"/>
<path d="M85.2279 117.728C86.2674 118.253 86.2612 119.74 85.2174 120.256L78.4845 123.588C77.5452 124.052 76.4444 123.369 76.4444 122.321L76.4444 115.588C76.4444 114.535 77.555 113.852 78.495 114.327L85.2279 117.728Z" fill="#00D2F2"/>
<path opacity="0.4" fill-rule="evenodd" clip-rule="evenodd" d="M251.402 137.486C252.484 137.708 253.181 138.765 252.959 139.847C250.2 153.278 244.851 164.95 237.753 173.308C230.652 181.669 221.692 186.82 211.808 186.82C199.48 186.82 188.622 178.829 180.947 166.549C173.255 154.24 168.563 137.36 168.563 118.82C168.563 100.28 173.255 83.3999 180.947 71.0912C188.622 58.8107 199.48 50.8203 211.808 50.8203C221.692 50.8203 230.652 55.9709 237.753 64.3319C244.851 72.6897 250.2 84.3621 252.959 97.7926C253.181 98.8746 252.484 99.9319 251.402 100.154C250.32 100.376 249.263 99.6794 249.041 98.5975C246.387 85.6782 241.279 74.6633 234.704 66.9212C228.132 59.1822 220.202 54.8203 211.808 54.8203C201.357 54.8203 191.593 61.6044 184.339 73.2111C177.103 84.7895 172.563 100.909 172.563 118.82C172.563 136.73 177.103 152.85 184.339 164.429C191.593 176.035 201.357 182.82 211.808 182.82C220.202 182.82 228.132 178.458 234.704 170.719C241.279 162.977 246.387 151.962 249.041 139.042C249.263 137.96 250.32 137.263 251.402 137.486Z" fill="#E65A80"/>
<path opacity="0.4" fill-rule="evenodd" clip-rule="evenodd" d="M-40.8395 137.486C-41.9215 137.708 -42.6184 138.765 -42.3962 139.847C-39.6375 153.278 -34.2884 164.95 -27.1904 173.308C-20.0897 181.669 -11.1297 186.82 -1.24554 186.82C11.0826 186.82 21.9409 178.829 29.6155 166.549C37.3076 154.24 41.9999 137.36 41.9999 118.82C41.9999 100.28 37.3076 83.3999 29.6155 71.0912C21.9409 58.8107 11.0826 50.8203 -1.24554 50.8203C-11.1297 50.8203 -20.0897 55.9709 -27.1904 64.3319C-34.2884 72.6897 -39.6375 84.3621 -42.3962 97.7926C-42.6184 98.8746 -41.9215 99.9319 -40.8395 100.154C-39.7575 100.376 -38.7002 99.6794 -38.478 98.5975C-35.8243 85.6782 -30.7166 74.6633 -24.1415 66.9212C-17.569 59.1822 -9.6394 54.8203 -1.24554 54.8203C9.20557 54.8203 18.97 61.6044 26.2234 73.2111C33.4591 84.7895 37.9999 100.909 37.9999 118.82C37.9999 136.73 33.4591 152.85 26.2234 164.429C18.97 176.035 9.20557 182.82 -1.24554 182.82C-9.6394 182.82 -17.569 178.458 -24.1415 170.719C-30.7166 162.977 -35.8243 151.962 -38.478 139.042C-38.7002 137.96 -39.7575 137.263 -40.8395 137.486Z" fill="#E65A80"/>
<path opacity="0.4" fill-rule="evenodd" clip-rule="evenodd" d="M268.965 91.1479C267.883 91.3702 266.825 90.6732 266.603 89.5913C262.768 70.9189 255.377 54.9504 245.816 43.693C236.258 32.4388 224.641 26 212.256 26C196.832 26 182.565 36.0099 172.052 52.8321C161.557 69.626 155 92.9511 155 118.82C155 144.689 161.557 168.014 172.052 184.808C182.565 201.63 196.832 211.64 212.256 211.64C224.641 211.64 236.258 205.201 245.816 193.947C255.377 182.69 262.768 166.721 266.603 148.049C266.825 146.967 267.883 146.27 268.965 146.492C270.046 146.715 270.743 147.772 270.521 148.854C266.581 168.038 258.949 184.663 248.865 196.537C238.779 208.413 226.131 215.64 212.256 215.64C194.955 215.64 179.594 204.424 168.66 186.928C157.708 169.404 151 145.319 151 118.82C151 92.3214 157.708 68.2365 168.66 50.7123C179.594 33.2163 194.955 22 212.256 22C226.131 22 238.779 29.2276 248.865 41.1037C258.949 52.9768 266.581 69.6027 270.521 88.7864C270.743 89.8684 270.046 90.9257 268.965 91.1479Z" fill="#E65A80"/>
<path opacity="0.4" fill-rule="evenodd" clip-rule="evenodd" d="M-58.402 91.1479C-57.32 91.3702 -56.2627 90.6732 -56.0405 89.5913C-52.2051 70.9189 -44.8143 54.9504 -35.2538 43.693C-25.6959 32.4388 -14.0787 26 -1.69399 26C13.7307 26 27.9978 36.0099 38.5106 52.8321C49.0057 69.626 55.5624 92.9511 55.5624 118.82C55.5624 144.689 49.0057 168.014 38.5106 184.808C27.9978 201.63 13.7307 211.64 -1.69398 211.64C-14.0786 211.64 -25.6959 205.201 -35.2538 193.947C-44.8143 182.69 -52.2051 166.721 -56.0405 148.049C-56.2627 146.967 -57.32 146.27 -58.402 146.492C-59.484 146.715 -60.1809 147.772 -59.9587 148.854C-56.0182 168.038 -48.3861 184.663 -38.3026 196.537C-28.2166 208.413 -15.569 215.64 -1.69398 215.64C15.6077 215.64 30.9688 204.424 41.9027 186.928C52.8542 169.404 59.5624 145.319 59.5624 118.82C59.5624 92.3214 52.8542 68.2365 41.9027 50.7123C30.9688 33.2163 15.6077 22 -1.69399 22C-15.569 22 -28.2166 29.2276 -38.3026 41.1037C-48.3861 52.9768 -56.0182 69.6027 -59.9587 88.7864C-60.1809 89.8684 -59.484 90.9257 -58.402 91.1479Z" fill="#E65A80"/>
</g>
<defs>
<clipPath id="clip0_2001_757">
<rect width="210" height="200" fill="white"/>
</clipPath>
</defs>
</svg>
