<svg width="210" height="200" viewBox="0 0 210 200" fill="none" xmlns="http://www.w3.org/2000/svg">
<g clip-path="url(#clip0_2001_1475)">
<rect width="210" height="200" fill="white"/>
<path opacity="0.4" fill-rule="evenodd" clip-rule="evenodd" d="M60.9453 110.279C60.9453 109.174 61.8407 108.279 62.9453 108.279H147.942C149.046 108.279 149.942 109.174 149.942 110.279C149.942 111.384 149.046 112.279 147.942 112.279H62.9453C61.8407 112.279 60.9453 111.384 60.9453 110.279Z" fill="#E65A80"/>
<path opacity="0.4" d="M53.7065 108.534C55.1776 109.277 55.1688 111.381 53.6917 112.112L48.8306 114.517C47.5013 115.175 45.9436 114.208 45.9436 112.724L45.9436 107.863C45.9436 106.373 47.5152 105.406 48.8455 106.078L53.7065 108.534Z" fill="#E65A80"/>
<path opacity="0.4" d="M157.176 108.534C155.705 109.277 155.714 111.381 157.191 112.112L162.052 114.517C163.381 115.175 164.939 114.208 164.939 112.724L164.939 107.863C164.939 106.373 163.368 105.406 162.037 106.078L157.176 108.534Z" fill="#E65A80"/>
<path d="M76.847 258.757C86.4129 228.17 86.4408 220.254 87.8732 174.418L97.9329 160.157C98.0927 159.93 98.1822 159.661 98.1901 159.384L101.099 57.5688C101.1 57.5554 101.1 57.5428 101.1 57.5293C101.104 57.1166 101.231 50.2444 105.482 50.2444C109.733 50.2444 109.861 57.1166 109.865 57.5293C109.865 57.5428 109.865 57.5554 109.865 57.5688L112.774 159.384C112.782 159.661 112.872 159.93 113.032 160.157L123.091 174.418C125.881 220.281 125.933 228.179 134.211 258.811C134.454 259.708 133.783 260.609 132.854 260.609H78.1887C77.2357 260.609 76.5626 259.667 76.847 258.757Z" fill="white"/>
<path fill-rule="evenodd" clip-rule="evenodd" d="M87.8506 175.142L87.8732 174.418L97.9329 160.157C98.0927 159.93 98.1822 159.661 98.1901 159.384L101.099 57.5688C101.1 57.5554 101.1 57.5428 101.1 57.5293C101.104 57.1166 101.231 50.2444 105.482 50.2444C109.733 50.2444 109.861 57.1166 109.865 57.5293C109.865 57.5428 109.865 57.5554 109.865 57.5688L112.774 159.384C112.782 159.661 112.872 159.93 113.032 160.157L123.091 174.418L123.135 175.136C123.29 177.696 123.437 180.137 123.578 182.468L123.579 182.483C125.918 221.341 126.444 230.068 134.211 258.811C134.454 259.708 133.783 260.609 132.854 260.609H78.1887C77.2357 260.609 76.5626 259.667 76.847 258.757C86.1763 228.927 86.4336 220.66 87.7693 177.751L87.8506 175.142ZM89.177 177.847L89.25 175.503L89.4749 175.559C90.5879 175.834 92.1446 176.202 93.9209 176.569C97.4601 177.301 101.921 178.045 105.482 178.045C109.043 178.045 113.504 177.301 117.044 176.569C118.82 176.202 120.377 175.834 121.49 175.559L121.744 175.495C121.893 177.949 122.034 180.292 122.169 182.536L122.172 182.583C124.512 221.445 125.045 230.296 132.85 259.178C132.851 259.183 132.851 259.185 132.851 259.185L132.851 259.187C132.851 259.187 132.849 259.194 132.845 259.199H78.1972C78.1934 259.194 78.1913 259.186 78.1913 259.186L78.1912 259.184L78.1914 259.183L78.1927 259.178C82.9873 243.847 85.4136 234.128 86.8101 222.474C88.1311 211.449 88.5278 198.704 89.177 177.847ZM99.5994 159.425C99.5836 159.979 99.4047 160.516 99.085 160.969L89.8138 174.19C90.9134 174.462 92.4519 174.826 94.2065 175.188C97.7292 175.917 102.073 176.635 105.482 176.635C108.892 176.635 113.235 175.917 116.758 175.188C118.513 174.826 120.051 174.462 121.151 174.19L121.197 174.179L111.88 160.969C111.56 160.516 111.381 159.979 111.365 159.425L108.456 57.6092C108.455 57.5832 108.455 57.5606 108.455 57.5423C108.382 54.9686 107.834 51.5939 105.481 51.5951C103.127 51.5963 102.583 54.9686 102.51 57.5423C102.51 57.5606 102.509 57.5832 102.508 57.6092L99.5994 159.425Z" fill="#3A5ECF"/>
<path d="M104.051 46.4276C103.58 47.368 103.269 48.7165 103.269 50.2444C103.269 50.9126 103.329 51.5489 103.436 52.133L102.278 53.3621C102.01 52.434 101.859 51.3697 101.859 50.2444C101.859 48.545 102.202 46.9717 102.79 45.7971C103.356 44.6646 104.268 43.6958 105.486 43.6958C106.704 43.6958 107.617 44.6646 108.183 45.7971C108.77 46.9717 109.113 48.545 109.113 50.2444C109.113 51.3697 108.963 52.434 108.694 53.3621L107.536 52.133C107.643 51.5489 107.703 50.9126 107.703 50.2444C107.703 48.7165 107.392 47.368 106.922 46.4276C106.43 45.4451 105.882 45.1058 105.486 45.1058C105.09 45.1058 104.542 45.4451 104.051 46.4276Z" fill="#00D2F2"/>
<path d="M95.2539 110.139C95.2539 108.526 96.5621 107.218 98.1757 107.218H112.785C114.399 107.218 115.707 108.526 115.707 110.139C115.707 111.753 114.399 113.061 112.785 113.061H98.1757C96.5621 113.061 95.2539 111.753 95.2539 110.139Z" fill="white"/>
<path fill-rule="evenodd" clip-rule="evenodd" d="M112.785 108.627H98.1757C97.3407 108.627 96.6639 109.304 96.6639 110.139C96.6639 110.974 97.3407 111.651 98.1757 111.651H112.785C113.62 111.651 114.297 110.974 114.297 110.139C114.297 109.304 113.62 108.627 112.785 108.627ZM98.1757 107.218C96.5621 107.218 95.2539 108.526 95.2539 110.139C95.2539 111.753 96.5621 113.061 98.1757 113.061H112.785C114.399 113.061 115.707 111.753 115.707 110.139C115.707 108.526 114.399 107.218 112.785 107.218H98.1757Z" fill="#00D2F2"/>
</g>
<defs>
<clipPath id="clip0_2001_1475">
<rect width="210" height="200" fill="white"/>
</clipPath>
</defs>
</svg>
