<svg width="210" height="200" viewBox="0 0 210 200" fill="none" xmlns="http://www.w3.org/2000/svg">
<g clip-path="url(#clip0_2001_1389)">
<rect width="210" height="200" fill="white"/>
<path fill-rule="evenodd" clip-rule="evenodd" d="M105.055 40.9011C99.8424 40.9011 95.6165 45.1271 95.6165 50.34C95.6165 54.3642 98.1351 57.8019 101.684 59.1594L101.185 60.4649C97.1126 58.9073 94.2188 54.9625 94.2188 50.34C94.2188 44.3551 99.0705 39.5034 105.055 39.5034C111.04 39.5034 115.892 44.3551 115.892 50.34C115.892 54.9625 112.998 58.9073 108.926 60.4649L108.426 59.1594C111.976 57.8019 114.494 54.3642 114.494 50.34C114.494 45.1271 110.268 40.9011 105.055 40.9011Z" fill="#00D2F2"/>
<path d="M76.6668 257.131C86.1501 226.809 86.1777 218.961 87.5978 173.521L97.5706 159.382C97.729 159.158 97.8177 158.892 97.8256 158.617L100.709 57.6804C100.71 57.6671 100.71 57.6546 100.71 57.6412C100.714 57.232 100.841 50.4192 105.055 50.4192C109.269 50.4192 109.396 57.232 109.399 57.6412C109.4 57.6546 109.4 57.6671 109.4 57.6804L112.284 158.617C112.292 158.892 112.381 159.158 112.539 159.382L122.512 173.521C125.277 218.988 125.329 226.818 133.536 257.185C133.776 258.074 133.111 258.967 132.19 258.967H77.9968C77.0521 258.967 76.3848 258.033 76.6668 257.131Z" fill="white"/>
<path fill-rule="evenodd" clip-rule="evenodd" d="M87.5753 174.238L87.5978 173.521L97.5706 159.382C97.729 159.158 97.8177 158.892 97.8256 158.617L100.709 57.6804C100.71 57.6671 100.71 57.6546 100.71 57.6412C100.714 57.232 100.841 50.4192 105.055 50.4192C109.269 50.4192 109.396 57.232 109.399 57.6412C109.4 57.6546 109.4 57.6671 109.4 57.6804L112.284 158.617C112.292 158.892 112.381 159.158 112.539 159.382L122.512 173.521L122.555 174.233C122.709 176.77 122.855 179.19 122.994 181.502L122.995 181.516C125.314 220.039 125.835 228.69 133.536 257.185C133.776 258.074 133.111 258.967 132.19 258.967H77.9968C77.0521 258.967 76.3848 258.033 76.6668 257.131C85.9155 227.559 86.1706 219.363 87.4948 176.825L87.5753 174.238ZM88.8902 176.92L88.9626 174.596L89.1857 174.652C90.289 174.925 91.8322 175.289 93.5932 175.653C97.1019 176.379 101.524 177.116 105.055 177.116C108.585 177.116 113.008 176.379 116.516 175.653C118.277 175.289 119.821 174.925 120.924 174.652L121.176 174.589C121.324 177.021 121.464 179.344 121.598 181.568L121.601 181.615C123.92 220.142 124.448 228.916 132.186 257.549C132.188 257.553 132.188 257.555 132.188 257.555L132.187 257.557C132.187 257.557 132.185 257.565 132.181 257.57H78.0053C78.0015 257.564 77.9994 257.557 77.9994 257.557L77.9993 257.555L77.9996 257.553L78.0008 257.549C82.754 242.35 85.1594 232.715 86.5438 221.161C87.8535 210.231 88.2467 197.597 88.8902 176.92ZM99.2227 158.657C99.207 159.206 99.0296 159.739 98.7127 160.188L89.5216 173.295C90.6117 173.565 92.1369 173.925 93.8764 174.284C97.3686 175.007 101.675 175.718 105.055 175.718C108.435 175.718 112.741 175.007 116.233 174.284C117.973 173.925 119.498 173.565 120.588 173.295L120.634 173.283L111.397 160.188C111.08 159.739 110.903 159.206 110.887 158.657L108.003 57.7204C108.002 57.6946 108.002 57.6722 108.002 57.6541C107.929 55.1026 107.387 51.757 105.053 51.7582C102.72 51.7594 102.18 55.1026 102.108 57.6541C102.108 57.6722 102.107 57.6946 102.107 57.7204L99.2227 158.657Z" fill="#3A5ECF"/>
<path d="M103.633 46.6356C103.167 47.5679 102.859 48.9046 102.859 50.4194C102.859 51.0817 102.918 51.7125 103.024 52.2915L101.876 53.51C101.61 52.5899 101.461 51.5349 101.461 50.4194C101.461 48.7347 101.801 47.175 102.383 46.0105C102.944 44.8879 103.849 43.9275 105.056 43.9275C106.263 43.9275 107.168 44.8879 107.73 46.0105C108.312 47.175 108.652 48.7347 108.652 50.4194C108.652 51.5349 108.503 52.5899 108.237 53.51L107.088 52.2915C107.195 51.7125 107.254 51.0817 107.254 50.4194C107.254 48.9046 106.945 47.5679 106.479 46.6356C105.992 45.6616 105.449 45.3252 105.056 45.3252C104.664 45.3252 104.12 45.6616 103.633 46.6356Z" fill="#3A5ECF"/>
<path d="M94.9141 109.797C94.9141 108.198 96.2109 106.901 97.8106 106.901H112.293C113.893 106.901 115.19 108.198 115.19 109.797C115.19 111.397 113.893 112.694 112.293 112.694H97.8106C96.2109 112.694 94.9141 111.397 94.9141 109.797Z" fill="white"/>
<path fill-rule="evenodd" clip-rule="evenodd" d="M112.293 108.299H97.8106C96.9828 108.299 96.3118 108.97 96.3118 109.797C96.3118 110.625 96.9828 111.296 97.8106 111.296H112.293C113.121 111.296 113.792 110.625 113.792 109.797C113.792 108.97 113.121 108.299 112.293 108.299ZM97.8106 106.901C96.2109 106.901 94.9141 108.198 94.9141 109.797C94.9141 111.397 96.2109 112.694 97.8106 112.694H112.293C113.893 112.694 115.19 111.397 115.19 109.797C115.19 108.198 113.893 106.901 112.293 106.901H97.8106Z" fill="#3A5ECF"/>
<path opacity="0.4" fill-rule="evenodd" clip-rule="evenodd" d="M92.5316 28.2933C92.7538 29.3753 92.0569 30.4326 90.9749 30.6548C81.9793 32.5025 74.3426 36.0532 68.9979 40.5922C63.6563 45.1287 60.7109 50.5434 60.7109 56.2155C60.7109 63.2746 65.295 69.9681 73.3447 74.9987C81.3662 80.0116 92.5723 83.1775 105.055 83.1775C117.538 83.1775 128.744 80.0116 136.765 74.9987C144.815 69.9681 149.399 63.2746 149.399 56.2155C149.399 50.5434 146.454 45.1287 141.112 40.5922C135.767 36.0532 128.131 32.5025 119.135 30.6548C118.053 30.4326 117.356 29.3753 117.578 28.2933C117.801 27.2113 118.858 26.5144 119.94 26.7366C129.447 28.6894 137.741 32.4814 143.701 37.5434C149.665 42.6081 153.399 49.053 153.399 56.2155C153.399 65.1516 147.609 72.9391 138.885 78.3908C130.133 83.8601 118.167 87.1775 105.055 87.1775C91.9426 87.1775 79.9766 83.8601 71.2249 78.3908C62.5013 72.9391 56.7109 65.1516 56.7109 56.2155C56.7109 49.053 60.4451 42.6081 66.4086 37.5434C72.3691 32.4814 80.6631 28.6894 90.1701 26.7366C91.252 26.5144 92.3093 27.2113 92.5316 28.2933Z" fill="#E65A80"/>
</g>
<defs>
<clipPath id="clip0_2001_1389">
<rect width="210" height="200" fill="white"/>
</clipPath>
</defs>
</svg>
