<svg width="210" height="200" viewBox="0 0 210 200" fill="none" xmlns="http://www.w3.org/2000/svg">
<g clip-path="url(#clip0_2001_1508)">
<rect width="210" height="200" fill="white"/>
<path opacity="0.4" fill-rule="evenodd" clip-rule="evenodd" d="M235.457 246.79C236.539 247.012 237.236 248.069 237.013 249.151C234.255 262.582 228.906 274.254 221.808 282.612C214.707 290.973 205.747 296.124 195.863 296.124C183.535 296.124 172.676 288.133 165.002 275.853C157.31 263.544 152.617 246.664 152.617 228.124C152.617 209.584 157.31 192.704 165.002 180.395C172.676 168.115 183.535 160.125 195.863 160.125C205.747 160.125 214.707 165.275 221.808 173.636C228.906 181.994 234.255 193.666 237.013 207.097C237.236 208.179 236.539 209.236 235.457 209.458C234.375 209.681 233.317 208.984 233.095 207.902C230.442 194.982 225.334 183.967 218.759 176.225C212.186 168.486 204.257 164.125 195.863 164.125C185.412 164.125 175.647 170.909 168.394 182.515C161.158 194.094 156.617 210.214 156.617 228.124C156.617 246.035 161.158 262.155 168.394 273.733C175.647 285.34 185.412 292.124 195.863 292.124C204.257 292.124 212.186 287.762 218.759 280.023C225.334 272.281 230.442 261.266 233.095 248.347C233.317 247.265 234.375 246.568 235.457 246.79Z" fill="#E65A80"/>
<path opacity="0.4" fill-rule="evenodd" clip-rule="evenodd" d="M-24.7848 246.79C-25.8668 247.012 -26.5638 248.069 -26.3415 249.151C-23.5828 262.582 -18.2337 274.254 -11.1357 282.612C-4.03499 290.973 4.92497 296.124 14.8091 296.124C27.1373 296.124 37.9956 288.133 45.6701 275.853C53.3623 263.544 58.0546 246.664 58.0546 228.124C58.0546 209.584 53.3623 192.704 45.6701 180.395C37.9956 168.115 27.1373 160.125 14.8091 160.125C4.92497 160.125 -4.03499 165.275 -11.1357 173.636C-18.2337 181.994 -23.5828 193.666 -26.3415 207.097C-26.5638 208.179 -25.8668 209.236 -24.7848 209.458C-23.7028 209.681 -22.6456 208.984 -22.4233 207.902C-19.7696 194.982 -14.6619 183.967 -8.08682 176.225C-1.51434 168.486 6.41528 164.125 14.8091 164.125C25.2603 164.125 35.0246 170.909 42.2781 182.515C49.5138 194.094 54.0546 210.214 54.0546 228.124C54.0546 246.035 49.5138 262.155 42.2781 273.733C35.0246 285.34 25.2603 292.124 14.8091 292.124C6.41529 292.124 -1.51433 287.762 -8.08682 280.023C-14.6619 272.281 -19.7696 261.266 -22.4233 248.347C-22.6456 247.265 -23.7028 246.568 -24.7848 246.79Z" fill="#E65A80"/>
<path opacity="0.4" fill-rule="evenodd" clip-rule="evenodd" d="M253.019 200.452C251.937 200.674 250.88 199.977 250.658 198.895C246.822 180.223 239.431 164.255 229.871 152.997C220.313 141.743 208.696 135.304 196.311 135.304C180.886 135.304 166.619 145.314 156.107 162.136C145.611 178.93 139.055 202.255 139.055 228.124C139.055 253.993 145.611 277.318 156.107 294.112C166.619 310.935 180.886 320.944 196.311 320.944C208.696 320.944 220.313 314.506 229.871 303.251C239.431 291.994 246.822 276.026 250.658 257.353C250.88 256.271 251.937 255.574 253.019 255.797C254.101 256.019 254.798 257.076 254.576 258.158C250.635 277.342 243.003 293.968 232.92 305.841C222.834 317.717 210.186 324.944 196.311 324.944C179.009 324.944 163.648 313.728 152.715 296.232C141.763 278.708 135.055 254.623 135.055 228.124C135.055 201.626 141.763 177.541 152.715 160.016C163.648 142.52 179.009 131.304 196.311 131.304C210.186 131.304 222.834 138.532 232.92 150.408C243.003 162.281 250.635 178.907 254.576 198.091C254.798 199.173 254.101 200.23 253.019 200.452Z" fill="#E65A80"/>
<path opacity="0.4" fill-rule="evenodd" clip-rule="evenodd" d="M-42.3473 200.452C-41.2653 200.674 -40.2081 199.977 -39.9858 198.895C-36.1504 180.223 -28.7596 164.255 -19.1991 152.997C-9.64123 141.743 1.97604 135.304 14.3607 135.304C29.7854 135.304 44.0525 145.314 54.5653 162.136C65.0604 178.93 71.6171 202.255 71.6171 228.124C71.6171 253.993 65.0604 277.318 54.5653 294.112C44.0525 310.935 29.7854 320.944 14.3607 320.944C1.97604 320.944 -9.64122 314.506 -19.1991 303.251C-28.7596 291.994 -36.1504 276.026 -39.9858 257.353C-40.2081 256.271 -41.2653 255.574 -42.3473 255.797C-43.4293 256.019 -44.1263 257.076 -43.904 258.158C-39.9636 277.342 -32.3314 293.968 -22.2479 305.841C-12.1619 317.717 0.48573 324.944 14.3607 324.944C31.6624 324.944 47.0235 313.728 57.9574 296.232C68.9089 278.708 75.6171 254.623 75.6171 228.124C75.6171 201.626 68.9089 177.541 57.9574 160.016C47.0235 142.52 31.6624 131.304 14.3607 131.304C0.485722 131.304 -12.1619 138.532 -22.2479 150.408C-32.3314 162.281 -39.9636 178.907 -43.904 198.091C-44.1263 199.173 -43.4293 200.23 -42.3473 200.452Z" fill="#E65A80"/>
<path d="M76.6361 258.913C86.2091 228.303 86.2371 220.381 87.6705 174.511L97.7376 160.239C97.8976 160.013 97.9871 159.744 97.995 159.466L100.906 57.5755C100.907 57.5621 100.907 57.5494 100.907 57.536C100.911 57.1229 101.039 50.2456 105.293 50.2456C109.547 50.2456 109.675 57.1229 109.678 57.536C109.678 57.5494 109.679 57.5621 109.679 57.5755L112.59 159.466C112.598 159.744 112.688 160.013 112.848 160.239L122.915 174.511C125.706 220.408 125.759 228.313 134.043 258.966C134.286 259.865 133.615 260.766 132.684 260.766H77.9788C77.0251 260.766 76.3515 259.823 76.6361 258.913Z" fill="white"/>
<path fill-rule="evenodd" clip-rule="evenodd" d="M87.6479 175.236L87.6705 174.511L97.7376 160.239C97.8976 160.013 97.9871 159.744 97.995 159.466L100.906 57.5755C100.907 57.5621 100.907 57.5494 100.907 57.536C100.911 57.1229 101.039 50.2456 105.293 50.2456C109.547 50.2456 109.675 57.1229 109.678 57.536C109.678 57.5494 109.679 57.5621 109.679 57.5755L112.59 159.466C112.598 159.744 112.688 160.013 112.848 160.239L122.915 174.511L122.958 175.23C123.114 177.792 123.261 180.234 123.402 182.568L123.402 182.583C125.744 221.47 126.27 230.203 134.043 258.966C134.286 259.865 133.615 260.766 132.684 260.766H77.9788C77.0251 260.766 76.3515 259.823 76.6361 258.913C85.9723 229.061 86.2298 220.787 87.5665 177.847L87.6479 175.236ZM88.9752 177.942L89.0483 175.597L89.2734 175.653C90.3872 175.929 91.945 176.296 93.7227 176.664C97.2645 177.397 101.729 178.141 105.293 178.141C108.856 178.141 113.321 177.397 116.863 176.664C118.64 176.296 120.198 175.929 121.312 175.653L121.567 175.589C121.716 178.044 121.857 180.39 121.992 182.635L121.995 182.682C124.336 221.573 124.87 230.43 132.681 259.335C132.682 259.339 132.682 259.341 132.682 259.341L132.682 259.343C132.682 259.343 132.679 259.35 132.676 259.355H77.9873C77.9835 259.35 77.9814 259.342 77.9814 259.342L77.9813 259.341L77.9816 259.339L77.9828 259.334C82.7809 243.992 85.2091 234.266 86.6066 222.603C87.9286 211.569 88.3256 198.815 88.9752 177.942ZM99.4054 159.507C99.3896 160.061 99.2105 160.599 98.8906 161.053L89.6125 174.283C90.713 174.556 92.2526 174.919 94.0085 175.282C97.5338 176.012 101.88 176.73 105.293 176.73C108.705 176.73 113.052 176.012 116.577 175.282C118.333 174.919 119.872 174.556 120.973 174.283L121.019 174.272L111.695 161.053C111.375 160.599 111.196 160.061 111.18 159.507L108.269 57.6159C108.268 57.5899 108.268 57.5672 108.267 57.549C108.194 54.9734 107.646 51.5961 105.291 51.5973C102.936 51.5985 102.391 54.9734 102.318 57.549C102.318 57.5672 102.317 57.5899 102.317 57.6159L99.4054 159.507Z" fill="#3A5ECF"/>
<path d="M95.0586 110.186C95.0586 108.571 96.3677 107.262 97.9825 107.262H112.602C114.217 107.262 115.526 108.571 115.526 110.186C115.526 111.8 114.217 113.11 112.602 113.11H97.9825C96.3677 113.11 95.0586 111.8 95.0586 110.186Z" fill="white"/>
<path fill-rule="evenodd" clip-rule="evenodd" d="M112.602 108.673H97.9825C97.1469 108.673 96.4695 109.35 96.4695 110.186C96.4695 111.021 97.1469 111.699 97.9825 111.699H112.602C113.438 111.699 114.115 111.021 114.115 110.186C114.115 109.35 113.438 108.673 112.602 108.673ZM97.9825 107.262C96.3677 107.262 95.0586 108.571 95.0586 110.186C95.0586 111.8 96.3677 113.11 97.9825 113.11H112.602C114.217 113.11 115.526 111.8 115.526 110.186C115.526 108.571 114.217 107.262 112.602 107.262H97.9825Z" fill="#3A5ECF"/>
<path d="M103.333 40.6179C104.077 42.0889 106.18 42.0802 106.911 40.6031L109.32 35.734C109.978 34.4047 109.011 32.847 107.528 32.847H102.659C101.168 32.847 100.202 34.4186 100.874 35.7488L103.333 40.6179Z" fill="#00D2F2"/>
<path d="M103.362 26.4414C104.105 27.9124 106.209 27.9037 106.94 26.4265L112.155 15.8869C112.813 14.5576 111.846 12.9999 110.363 12.9999H99.8229C98.3325 12.9999 97.3658 14.5714 98.0378 15.9017L103.362 26.4414Z" fill="#00D2F2"/>
</g>
<defs>
<clipPath id="clip0_2001_1508">
<rect width="210" height="200" fill="white"/>
</clipPath>
</defs>
</svg>
